<mxfile host="app.diagrams.net" modified="2021-12-22T14:40:37.573Z" agent="5.0 (X11)" etag="CQbdyDVziMngR3n29BVj" version="16.0.0" type="github">
  <diagram id="PAh_x-_NG1Y3zjvtotn9" name="Page-1">
    <mxGraphModel dx="5231" dy="4946" grid="1" gridSize="10" guides="1" tooltips="1" connect="1" arrows="1" fold="1" page="1" pageScale="1" pageWidth="850" pageHeight="1100" math="0" shadow="0">
      <root>
        <mxCell id="0" />
        <mxCell id="1" parent="0" />
        <mxCell id="btuSytvUT4QP95B8jF5O-100" value="" style="rounded=0;whiteSpace=wrap;html=1;fontSize=12;fillColor=default;" parent="1" vertex="1">
          <mxGeometry x="20" y="-3459.37" width="540" height="435.31" as="geometry" />
        </mxCell>
        <mxCell id="dkhloUsF44E33A5MY1pY-50" value="" style="rounded=0;whiteSpace=wrap;html=1;fillColor=#d5e8d4;strokeColor=#82b366;" vertex="1" parent="1">
          <mxGeometry x="400" y="-3224.06" width="150" height="187.5" as="geometry" />
        </mxCell>
        <mxCell id="B5z_M_z4CxZ3m_XP2lqP-43" value="" style="rounded=0;whiteSpace=wrap;html=1;strokeColor=#000000;strokeWidth=2;fillColor=#FFFFFF;" parent="1" vertex="1">
          <mxGeometry x="-3400" y="-3640.3100000000004" width="920" height="750.63" as="geometry" />
        </mxCell>
        <mxCell id="B5z_M_z4CxZ3m_XP2lqP-26" value="" style="rounded=0;whiteSpace=wrap;html=1;" parent="1" vertex="1">
          <mxGeometry x="-430" y="-3271.87" width="350" height="220" as="geometry" />
        </mxCell>
        <mxCell id="btuSytvUT4QP95B8jF5O-66" value="" style="rounded=0;whiteSpace=wrap;html=1;fontSize=2;strokeWidth=1;" parent="1" vertex="1">
          <mxGeometry x="-1415" y="-3510" width="580" height="600" as="geometry" />
        </mxCell>
        <mxCell id="btuSytvUT4QP95B8jF5O-1" value="" style="rounded=0;whiteSpace=wrap;html=1;" parent="1" vertex="1">
          <mxGeometry x="-3250" y="-3520" width="680" height="540" as="geometry" />
        </mxCell>
        <mxCell id="btuSytvUT4QP95B8jF5O-2" value="" style="rounded=0;whiteSpace=wrap;html=1;" parent="1" vertex="1">
          <mxGeometry x="-3240" y="-3500" width="660" height="510" as="geometry" />
        </mxCell>
        <mxCell id="btuSytvUT4QP95B8jF5O-5" value="" style="rounded=0;whiteSpace=wrap;html=1;" parent="1" vertex="1">
          <mxGeometry x="-3000" y="-3480" width="190" height="480" as="geometry" />
        </mxCell>
        <mxCell id="btuSytvUT4QP95B8jF5O-6" value="" style="rounded=0;whiteSpace=wrap;html=1;" parent="1" vertex="1">
          <mxGeometry x="-2780" y="-3480" width="190" height="480" as="geometry" />
        </mxCell>
        <mxCell id="B5z_M_z4CxZ3m_XP2lqP-6" value="" style="rounded=0;whiteSpace=wrap;html=1;" parent="1" vertex="1">
          <mxGeometry x="-2990" y="-3450.63" width="170" height="445" as="geometry" />
        </mxCell>
        <mxCell id="B5z_M_z4CxZ3m_XP2lqP-8" value="" style="rounded=0;whiteSpace=wrap;html=1;" parent="1" vertex="1">
          <mxGeometry x="-2770" y="-3450.63" width="170" height="445" as="geometry" />
        </mxCell>
        <mxCell id="btuSytvUT4QP95B8jF5O-3" value="ProxMox" style="text;html=1;align=center;verticalAlign=middle;resizable=0;points=[];autosize=1;strokeColor=none;fillColor=none;" parent="1" vertex="1">
          <mxGeometry x="-3250" y="-3520.63" width="60" height="20" as="geometry" />
        </mxCell>
        <mxCell id="btuSytvUT4QP95B8jF5O-4" value="" style="rounded=0;whiteSpace=wrap;html=1;" parent="1" vertex="1">
          <mxGeometry x="-3220" y="-3480" width="190" height="480" as="geometry" />
        </mxCell>
        <mxCell id="btuSytvUT4QP95B8jF5O-8" value="VM1" style="text;html=1;align=center;verticalAlign=middle;resizable=0;points=[];autosize=1;strokeColor=none;fillColor=none;" parent="1" vertex="1">
          <mxGeometry x="-3150" y="-3480" width="40" height="20" as="geometry" />
        </mxCell>
        <mxCell id="btuSytvUT4QP95B8jF5O-9" value="VM2" style="text;html=1;align=center;verticalAlign=middle;resizable=0;points=[];autosize=1;strokeColor=none;fillColor=none;" parent="1" vertex="1">
          <mxGeometry x="-2931" y="-3480" width="40" height="20" as="geometry" />
        </mxCell>
        <mxCell id="btuSytvUT4QP95B8jF5O-10" value="VM3" style="text;html=1;align=center;verticalAlign=middle;resizable=0;points=[];autosize=1;strokeColor=none;fillColor=none;" parent="1" vertex="1">
          <mxGeometry x="-2710" y="-3480" width="40" height="20" as="geometry" />
        </mxCell>
        <mxCell id="btuSytvUT4QP95B8jF5O-12" value="Kubernetes Master" style="text;html=1;align=center;verticalAlign=middle;resizable=0;points=[];autosize=1;strokeColor=none;fillColor=none;" parent="1" vertex="1">
          <mxGeometry x="-3190" y="-3440" width="120" height="20" as="geometry" />
        </mxCell>
        <mxCell id="btuSytvUT4QP95B8jF5O-13" value="" style="rounded=1;whiteSpace=wrap;html=1;" parent="1" vertex="1">
          <mxGeometry x="-2980" y="-3430" width="150" height="417.5" as="geometry" />
        </mxCell>
        <mxCell id="btuSytvUT4QP95B8jF5O-14" value="Kubernetes Slave" style="text;html=1;align=center;verticalAlign=middle;resizable=0;points=[];autosize=1;" parent="1" vertex="1">
          <mxGeometry x="-2960" y="-3430" width="110" height="20" as="geometry" />
        </mxCell>
        <mxCell id="btuSytvUT4QP95B8jF5O-15" value="" style="rounded=1;whiteSpace=wrap;html=1;" parent="1" vertex="1">
          <mxGeometry x="-2765" y="-3430" width="150" height="415" as="geometry" />
        </mxCell>
        <mxCell id="btuSytvUT4QP95B8jF5O-16" value="Kubernetes Slave" style="text;html=1;align=center;verticalAlign=middle;resizable=0;points=[];autosize=1;" parent="1" vertex="1">
          <mxGeometry x="-2745" y="-3430" width="110" height="20" as="geometry" />
        </mxCell>
        <mxCell id="btuSytvUT4QP95B8jF5O-19" value="" style="rounded=0;whiteSpace=wrap;html=1;" parent="1" vertex="1">
          <mxGeometry x="-2970" y="-3355.63" width="345" height="140" as="geometry" />
        </mxCell>
        <mxCell id="btuSytvUT4QP95B8jF5O-20" value="Free5GC" style="text;whiteSpace=wrap;html=1;" parent="1" vertex="1">
          <mxGeometry x="-2935" y="-3355.63" width="70" height="30" as="geometry" />
        </mxCell>
        <mxCell id="btuSytvUT4QP95B8jF5O-21" value="" style="rounded=1;whiteSpace=wrap;html=1;" parent="1" vertex="1">
          <mxGeometry x="-2836" y="-3318.13" width="206" height="65" as="geometry" />
        </mxCell>
        <mxCell id="btuSytvUT4QP95B8jF5O-22" value="Observability" style="text;whiteSpace=wrap;html=1;" parent="1" vertex="1">
          <mxGeometry x="-2775" y="-3318.13" width="100" height="30" as="geometry" />
        </mxCell>
        <mxCell id="btuSytvUT4QP95B8jF5O-23" value="Jeager" style="rounded=0;whiteSpace=wrap;html=1;" parent="1" vertex="1">
          <mxGeometry x="-2825" y="-3293.13" width="60" height="27.5" as="geometry" />
        </mxCell>
        <mxCell id="btuSytvUT4QP95B8jF5O-24" value="Fluentd" style="rounded=0;whiteSpace=wrap;html=1;" parent="1" vertex="1">
          <mxGeometry x="-2760" y="-3293.13" width="60" height="27.5" as="geometry" />
        </mxCell>
        <mxCell id="btuSytvUT4QP95B8jF5O-25" value="Tester" style="rounded=0;whiteSpace=wrap;html=1;" parent="1" vertex="1">
          <mxGeometry x="-2695" y="-3293.13" width="60" height="27.5" as="geometry" />
        </mxCell>
        <mxCell id="btuSytvUT4QP95B8jF5O-26" value="Terraform" style="text;html=1;align=center;verticalAlign=middle;resizable=0;points=[];autosize=1;strokeColor=none;fillColor=none;" parent="1" vertex="1">
          <mxGeometry x="-3240" y="-3500" width="70" height="20" as="geometry" />
        </mxCell>
        <mxCell id="btuSytvUT4QP95B8jF5O-27" value="" style="rounded=0;whiteSpace=wrap;html=1;" parent="1" vertex="1">
          <mxGeometry x="-3210" y="-3452.5" width="170" height="445" as="geometry" />
        </mxCell>
        <mxCell id="btuSytvUT4QP95B8jF5O-28" value="" style="rounded=1;whiteSpace=wrap;html=1;" parent="1" vertex="1">
          <mxGeometry x="-3200" y="-3430" width="150" height="420" as="geometry" />
        </mxCell>
        <mxCell id="btuSytvUT4QP95B8jF5O-29" value="Kubernetes Master" style="text;whiteSpace=wrap;html=1;" parent="1" vertex="1">
          <mxGeometry x="-3180" y="-3430" width="130" height="30" as="geometry" />
        </mxCell>
        <mxCell id="btuSytvUT4QP95B8jF5O-30" value="Ansible" style="text;html=1;align=center;verticalAlign=middle;resizable=0;points=[];autosize=1;strokeColor=none;fillColor=none;" parent="1" vertex="1">
          <mxGeometry x="-3210" y="-3450" width="50" height="20" as="geometry" />
        </mxCell>
        <mxCell id="btuSytvUT4QP95B8jF5O-31" value="Prometheus" style="rounded=0;whiteSpace=wrap;html=1;" parent="1" vertex="1">
          <mxGeometry x="-2970" y="-3205.63" width="345" height="60" as="geometry" />
        </mxCell>
        <mxCell id="btuSytvUT4QP95B8jF5O-32" value="Grafana" style="rounded=0;whiteSpace=wrap;html=1;" parent="1" vertex="1">
          <mxGeometry x="-2970" y="-3135.63" width="345" height="60" as="geometry" />
        </mxCell>
        <mxCell id="btuSytvUT4QP95B8jF5O-33" value="" style="rounded=0;whiteSpace=wrap;html=1;fontSize=2;strokeWidth=1;" parent="1" vertex="1">
          <mxGeometry x="-2070" y="-3500" width="560" height="470" as="geometry" />
        </mxCell>
        <mxCell id="btuSytvUT4QP95B8jF5O-34" value="&lt;font style=&quot;font-size: 12px&quot;&gt;AWS&lt;/font&gt;" style="text;html=1;align=center;verticalAlign=middle;resizable=0;points=[];autosize=1;strokeColor=none;fillColor=none;fontSize=2;" parent="1" vertex="1">
          <mxGeometry x="-2070" y="-3497.5" width="40" height="10" as="geometry" />
        </mxCell>
        <mxCell id="btuSytvUT4QP95B8jF5O-35" value="" style="rounded=0;whiteSpace=wrap;html=1;fontSize=12;strokeWidth=1;" parent="1" vertex="1">
          <mxGeometry x="-2060" y="-3480" width="540" height="440" as="geometry" />
        </mxCell>
        <mxCell id="btuSytvUT4QP95B8jF5O-36" value="VPC" style="text;html=1;align=center;verticalAlign=middle;resizable=0;points=[];autosize=1;strokeColor=none;fillColor=none;fontSize=12;" parent="1" vertex="1">
          <mxGeometry x="-2050" y="-3480" width="40" height="20" as="geometry" />
        </mxCell>
        <mxCell id="btuSytvUT4QP95B8jF5O-37" value="" style="rounded=0;whiteSpace=wrap;html=1;fontSize=12;strokeWidth=1;" parent="1" vertex="1">
          <mxGeometry x="-2050" y="-3460" width="250" height="290" as="geometry" />
        </mxCell>
        <mxCell id="btuSytvUT4QP95B8jF5O-38" value="Subnet 1" style="text;html=1;align=center;verticalAlign=middle;resizable=0;points=[];autosize=1;strokeColor=none;fillColor=none;fontSize=12;" parent="1" vertex="1">
          <mxGeometry x="-2040" y="-3460" width="60" height="20" as="geometry" />
        </mxCell>
        <mxCell id="btuSytvUT4QP95B8jF5O-39" value="" style="rounded=0;whiteSpace=wrap;html=1;fontSize=12;strokeWidth=1;" parent="1" vertex="1">
          <mxGeometry x="-1780" y="-3460" width="250" height="290" as="geometry" />
        </mxCell>
        <mxCell id="btuSytvUT4QP95B8jF5O-40" value="Subnet 2" style="text;html=1;align=center;verticalAlign=middle;resizable=0;points=[];autosize=1;strokeColor=none;fillColor=none;fontSize=12;" parent="1" vertex="1">
          <mxGeometry x="-1770" y="-3460" width="60" height="20" as="geometry" />
        </mxCell>
        <mxCell id="btuSytvUT4QP95B8jF5O-55" style="edgeStyle=orthogonalEdgeStyle;rounded=0;orthogonalLoop=1;jettySize=auto;html=1;exitX=0.5;exitY=1;exitDx=0;exitDy=0;entryX=0.5;entryY=0;entryDx=0;entryDy=0;endArrow=none;endFill=0;" parent="1" source="btuSytvUT4QP95B8jF5O-41" target="btuSytvUT4QP95B8jF5O-42" edge="1">
          <mxGeometry relative="1" as="geometry" />
        </mxCell>
        <mxCell id="btuSytvUT4QP95B8jF5O-56" style="edgeStyle=orthogonalEdgeStyle;rounded=0;orthogonalLoop=1;jettySize=auto;html=1;exitX=1;exitY=0.5;exitDx=0;exitDy=0;entryX=0;entryY=0.5;entryDx=0;entryDy=0;endArrow=none;endFill=0;" parent="1" source="btuSytvUT4QP95B8jF5O-41" target="btuSytvUT4QP95B8jF5O-43" edge="1">
          <mxGeometry relative="1" as="geometry" />
        </mxCell>
        <mxCell id="btuSytvUT4QP95B8jF5O-41" value="Router 1" style="rounded=0;whiteSpace=wrap;html=1;fontSize=12;strokeWidth=1;" parent="1" vertex="1">
          <mxGeometry x="-1980" y="-3155" width="120" height="35" as="geometry" />
        </mxCell>
        <mxCell id="btuSytvUT4QP95B8jF5O-42" value="Gateway 1" style="rounded=0;whiteSpace=wrap;html=1;fontSize=12;strokeWidth=1;" parent="1" vertex="1">
          <mxGeometry x="-1980" y="-3105" width="120" height="35" as="geometry" />
        </mxCell>
        <mxCell id="btuSytvUT4QP95B8jF5O-57" style="edgeStyle=orthogonalEdgeStyle;rounded=0;orthogonalLoop=1;jettySize=auto;html=1;exitX=0.5;exitY=0;exitDx=0;exitDy=0;entryX=0.5;entryY=1;entryDx=0;entryDy=0;endArrow=none;endFill=0;" parent="1" source="btuSytvUT4QP95B8jF5O-43" target="btuSytvUT4QP95B8jF5O-44" edge="1">
          <mxGeometry relative="1" as="geometry" />
        </mxCell>
        <mxCell id="btuSytvUT4QP95B8jF5O-43" value="Router 2" style="rounded=0;whiteSpace=wrap;html=1;fontSize=12;strokeWidth=1;" parent="1" vertex="1">
          <mxGeometry x="-1720" y="-3155" width="120" height="35" as="geometry" />
        </mxCell>
        <mxCell id="btuSytvUT4QP95B8jF5O-44" value="NAT" style="rounded=0;whiteSpace=wrap;html=1;fontSize=12;strokeWidth=1;" parent="1" vertex="1">
          <mxGeometry x="-1720" y="-3230" width="120" height="35" as="geometry" />
        </mxCell>
        <mxCell id="btuSytvUT4QP95B8jF5O-45" value="" style="rounded=0;whiteSpace=wrap;html=1;fontSize=12;strokeWidth=1;fillColor=default;" parent="1" vertex="1">
          <mxGeometry x="-2040" y="-3440" width="500" height="190" as="geometry" />
        </mxCell>
        <mxCell id="btuSytvUT4QP95B8jF5O-46" value="EC2" style="text;html=1;align=center;verticalAlign=middle;resizable=0;points=[];autosize=1;strokeColor=none;fillColor=none;fontSize=12;" parent="1" vertex="1">
          <mxGeometry x="-2030" y="-3436.25" width="40" height="20" as="geometry" />
        </mxCell>
        <mxCell id="btuSytvUT4QP95B8jF5O-47" value="" style="rounded=0;whiteSpace=wrap;html=1;fontSize=12;strokeWidth=1;dashed=1;" parent="1" vertex="1">
          <mxGeometry x="-1980" y="-3420" width="120" height="80" as="geometry" />
        </mxCell>
        <mxCell id="btuSytvUT4QP95B8jF5O-54" style="edgeStyle=orthogonalEdgeStyle;rounded=0;orthogonalLoop=1;jettySize=auto;html=1;exitX=0.5;exitY=1;exitDx=0;exitDy=0;endArrow=none;endFill=0;" parent="1" source="btuSytvUT4QP95B8jF5O-48" target="btuSytvUT4QP95B8jF5O-41" edge="1">
          <mxGeometry relative="1" as="geometry" />
        </mxCell>
        <mxCell id="btuSytvUT4QP95B8jF5O-48" value="&lt;div align=&quot;center&quot;&gt;K8s-Master-1&lt;/div&gt;&lt;div align=&quot;center&quot;&gt;(Ubuntu-2004)&lt;/div&gt;" style="rounded=0;whiteSpace=wrap;html=1;fontSize=12;strokeWidth=1;align=center;" parent="1" vertex="1">
          <mxGeometry x="-1965" y="-3390" width="90" height="40" as="geometry" />
        </mxCell>
        <mxCell id="btuSytvUT4QP95B8jF5O-49" value="Sec Group 1" style="text;html=1;align=center;verticalAlign=middle;resizable=0;points=[];autosize=1;strokeColor=none;fillColor=none;fontSize=12;" parent="1" vertex="1">
          <mxGeometry x="-1960" y="-3420" width="80" height="20" as="geometry" />
        </mxCell>
        <mxCell id="btuSytvUT4QP95B8jF5O-50" value="" style="rounded=0;whiteSpace=wrap;html=1;fontSize=12;strokeWidth=1;dashed=1;" parent="1" vertex="1">
          <mxGeometry x="-1770" y="-3420" width="225" height="80" as="geometry" />
        </mxCell>
        <mxCell id="btuSytvUT4QP95B8jF5O-51" value="Sec Group 2" style="text;html=1;align=center;verticalAlign=middle;resizable=0;points=[];autosize=1;strokeColor=none;fillColor=none;fontSize=12;" parent="1" vertex="1">
          <mxGeometry x="-1695" y="-3420" width="80" height="20" as="geometry" />
        </mxCell>
        <mxCell id="btuSytvUT4QP95B8jF5O-60" style="edgeStyle=orthogonalEdgeStyle;rounded=0;orthogonalLoop=1;jettySize=auto;html=1;exitX=0.5;exitY=1;exitDx=0;exitDy=0;entryX=0.5;entryY=0;entryDx=0;entryDy=0;endArrow=none;endFill=0;" parent="1" source="btuSytvUT4QP95B8jF5O-52" target="btuSytvUT4QP95B8jF5O-44" edge="1">
          <mxGeometry relative="1" as="geometry" />
        </mxCell>
        <mxCell id="btuSytvUT4QP95B8jF5O-52" value="K8s-Worker-2&lt;br&gt;(Ubuntu-2004)" style="rounded=0;whiteSpace=wrap;html=1;fontSize=12;strokeWidth=1;" parent="1" vertex="1">
          <mxGeometry x="-1642.5" y="-3390" width="90" height="40" as="geometry" />
        </mxCell>
        <mxCell id="btuSytvUT4QP95B8jF5O-53" value="K8s-Worker-1&lt;br&gt;(Ubuntu-2004)" style="rounded=0;whiteSpace=wrap;html=1;fontSize=12;strokeWidth=1;" parent="1" vertex="1">
          <mxGeometry x="-1762.5" y="-3390" width="90" height="40" as="geometry" />
        </mxCell>
        <mxCell id="btuSytvUT4QP95B8jF5O-58" style="edgeStyle=orthogonalEdgeStyle;rounded=0;orthogonalLoop=1;jettySize=auto;html=1;exitX=0.5;exitY=0;exitDx=0;exitDy=0;endArrow=none;endFill=0;" parent="1" source="btuSytvUT4QP95B8jF5O-44" target="btuSytvUT4QP95B8jF5O-53" edge="1">
          <mxGeometry relative="1" as="geometry" />
        </mxCell>
        <mxCell id="btuSytvUT4QP95B8jF5O-62" style="edgeStyle=orthogonalEdgeStyle;rounded=0;orthogonalLoop=1;jettySize=auto;html=1;exitX=0.875;exitY=0.5;exitDx=0;exitDy=0;exitPerimeter=0;entryX=0;entryY=0.5;entryDx=0;entryDy=0;endArrow=none;endFill=0;" parent="1" source="btuSytvUT4QP95B8jF5O-61" target="btuSytvUT4QP95B8jF5O-42" edge="1">
          <mxGeometry relative="1" as="geometry" />
        </mxCell>
        <mxCell id="btuSytvUT4QP95B8jF5O-61" value="Internet" style="ellipse;shape=cloud;whiteSpace=wrap;html=1;" parent="1" vertex="1">
          <mxGeometry x="-2200" y="-3127.5" width="120" height="80" as="geometry" />
        </mxCell>
        <mxCell id="btuSytvUT4QP95B8jF5O-63" value="&lt;div align=&quot;left&quot;&gt;&lt;font style=&quot;font-size: 20px&quot;&gt;Terraform AWS Provisioning&lt;/font&gt;&lt;/div&gt;" style="text;html=1;strokeColor=none;fillColor=none;align=left;verticalAlign=middle;whiteSpace=wrap;rounded=0;" parent="1" vertex="1">
          <mxGeometry x="-2200" y="-3540" width="265" height="30" as="geometry" />
        </mxCell>
        <mxCell id="btuSytvUT4QP95B8jF5O-65" value="&lt;font style=&quot;font-size: 12px&quot;&gt;EC2&lt;/font&gt;" style="text;html=1;align=center;verticalAlign=middle;resizable=0;points=[];autosize=1;strokeColor=none;fillColor=none;fontSize=20;" parent="1" vertex="1">
          <mxGeometry x="-1415" y="-3512.5" width="40" height="30" as="geometry" />
        </mxCell>
        <mxCell id="btuSytvUT4QP95B8jF5O-67" value="" style="rounded=0;whiteSpace=wrap;html=1;fontSize=12;" parent="1" vertex="1">
          <mxGeometry x="-1405" y="-3465" width="180" height="545" as="geometry" />
        </mxCell>
        <mxCell id="btuSytvUT4QP95B8jF5O-68" value="" style="rounded=0;whiteSpace=wrap;html=1;fontSize=12;" parent="1" vertex="1">
          <mxGeometry x="-1215" y="-3465" width="180" height="545" as="geometry" />
        </mxCell>
        <mxCell id="btuSytvUT4QP95B8jF5O-69" value="" style="rounded=0;whiteSpace=wrap;html=1;fontSize=12;" parent="1" vertex="1">
          <mxGeometry x="-1025" y="-3465" width="180" height="545" as="geometry" />
        </mxCell>
        <mxCell id="btuSytvUT4QP95B8jF5O-71" value="&lt;div align=&quot;center&quot;&gt;K8s-Master-1&lt;/div&gt;&lt;div align=&quot;center&quot;&gt;(Ubuntu-2004)&lt;/div&gt;" style="text;whiteSpace=wrap;html=1;fontSize=12;align=center;" parent="1" vertex="1">
          <mxGeometry x="-1365" y="-3465" width="100" height="40" as="geometry" />
        </mxCell>
        <mxCell id="btuSytvUT4QP95B8jF5O-72" value="&lt;div align=&quot;center&quot;&gt;K8s-Worker-1&lt;br&gt;(Ubuntu-2004)&lt;/div&gt;" style="text;whiteSpace=wrap;html=1;fontSize=12;align=center;" parent="1" vertex="1">
          <mxGeometry x="-1175" y="-3465" width="100" height="40" as="geometry" />
        </mxCell>
        <mxCell id="btuSytvUT4QP95B8jF5O-73" value="&lt;div align=&quot;center&quot;&gt;K8s-Worker-1&lt;br&gt;(Ubuntu-2004)&lt;/div&gt;" style="text;whiteSpace=wrap;html=1;fontSize=12;align=center;" parent="1" vertex="1">
          <mxGeometry x="-985" y="-3465" width="100" height="40" as="geometry" />
        </mxCell>
        <mxCell id="btuSytvUT4QP95B8jF5O-74" value="GTP5G" style="rounded=0;whiteSpace=wrap;html=1;fontSize=12;" parent="1" vertex="1">
          <mxGeometry x="-1395" y="-3420" width="70" height="30" as="geometry" />
        </mxCell>
        <mxCell id="btuSytvUT4QP95B8jF5O-75" value="GTP5G" style="rounded=0;whiteSpace=wrap;html=1;fontSize=12;" parent="1" vertex="1">
          <mxGeometry x="-1205" y="-3420" width="70" height="30" as="geometry" />
        </mxCell>
        <mxCell id="btuSytvUT4QP95B8jF5O-76" value="GTP5G" style="rounded=0;whiteSpace=wrap;html=1;fontSize=12;" parent="1" vertex="1">
          <mxGeometry x="-1015" y="-3422.5" width="70" height="30" as="geometry" />
        </mxCell>
        <mxCell id="btuSytvUT4QP95B8jF5O-77" value="" style="rounded=0;whiteSpace=wrap;html=1;fontSize=12;dashed=1;fillColor=none;" parent="1" vertex="1">
          <mxGeometry x="-1395" y="-3380" width="540" height="450" as="geometry" />
        </mxCell>
        <mxCell id="btuSytvUT4QP95B8jF5O-78" value="Kubernetes" style="text;html=1;align=center;verticalAlign=middle;resizable=0;points=[];autosize=1;strokeColor=none;fillColor=none;fontSize=12;" parent="1" vertex="1">
          <mxGeometry x="-1395" y="-3380" width="80" height="20" as="geometry" />
        </mxCell>
        <mxCell id="btuSytvUT4QP95B8jF5O-79" value="" style="rounded=0;whiteSpace=wrap;html=1;fontSize=12;fillColor=default;" parent="1" vertex="1">
          <mxGeometry x="-1375" y="-3350" width="120" height="410" as="geometry" />
        </mxCell>
        <mxCell id="btuSytvUT4QP95B8jF5O-80" value="Master" style="text;html=1;align=center;verticalAlign=middle;resizable=0;points=[];autosize=1;strokeColor=none;fillColor=none;fontSize=12;" parent="1" vertex="1">
          <mxGeometry x="-1340" y="-3345" width="50" height="20" as="geometry" />
        </mxCell>
        <mxCell id="btuSytvUT4QP95B8jF5O-81" value="" style="rounded=0;whiteSpace=wrap;html=1;fontSize=12;fillColor=default;" parent="1" vertex="1">
          <mxGeometry x="-1185" y="-3350" width="120" height="410" as="geometry" />
        </mxCell>
        <mxCell id="btuSytvUT4QP95B8jF5O-82" value="node" style="text;html=1;align=center;verticalAlign=middle;resizable=0;points=[];autosize=1;strokeColor=none;fillColor=none;fontSize=12;" parent="1" vertex="1">
          <mxGeometry x="-1145" y="-3345" width="40" height="20" as="geometry" />
        </mxCell>
        <mxCell id="btuSytvUT4QP95B8jF5O-83" value="" style="rounded=0;whiteSpace=wrap;html=1;fontSize=12;fillColor=default;" parent="1" vertex="1">
          <mxGeometry x="-995" y="-3352.5" width="120" height="412.5" as="geometry" />
        </mxCell>
        <mxCell id="btuSytvUT4QP95B8jF5O-84" value="node" style="text;html=1;align=center;verticalAlign=middle;resizable=0;points=[];autosize=1;strokeColor=none;fillColor=none;fontSize=12;" parent="1" vertex="1">
          <mxGeometry x="-955" y="-3347.5" width="40" height="20" as="geometry" />
        </mxCell>
        <mxCell id="btuSytvUT4QP95B8jF5O-85" value="&lt;div&gt;Flannel CNI&lt;/div&gt;&lt;div&gt;interface - dock0&lt;/div&gt;&lt;div&gt;interface - flannel1&lt;br&gt;&lt;/div&gt;" style="rounded=0;whiteSpace=wrap;html=1;fontSize=12;fillColor=default;" parent="1" vertex="1">
          <mxGeometry x="-1345" y="-3322.5" width="450" height="52.5" as="geometry" />
        </mxCell>
        <mxCell id="btuSytvUT4QP95B8jF5O-86" value="Multus CNI&lt;br&gt;interface - eth0/1" style="rounded=0;whiteSpace=wrap;html=1;fontSize=12;fillColor=default;" parent="1" vertex="1">
          <mxGeometry x="-1345" y="-3260" width="450" height="40" as="geometry" />
        </mxCell>
        <mxCell id="btuSytvUT4QP95B8jF5O-87" value="Nginx Ingress Controller" style="rounded=0;whiteSpace=wrap;html=1;fontSize=12;fillColor=default;" parent="1" vertex="1">
          <mxGeometry x="-1165" y="-3213.75" width="270" height="30" as="geometry" />
        </mxCell>
        <mxCell id="btuSytvUT4QP95B8jF5O-88" value="Prometheus" style="rounded=0;whiteSpace=wrap;html=1;fontSize=12;fillColor=default;" parent="1" vertex="1">
          <mxGeometry x="-1345" y="-3173.75" width="450" height="30" as="geometry" />
        </mxCell>
        <mxCell id="btuSytvUT4QP95B8jF5O-89" value="Fluentd" style="rounded=0;whiteSpace=wrap;html=1;fontSize=12;fillColor=default;" parent="1" vertex="1">
          <mxGeometry x="-1165" y="-3133.75" width="270" height="30" as="geometry" />
        </mxCell>
        <mxCell id="btuSytvUT4QP95B8jF5O-91" value="Free5GC - Helm" style="rounded=0;whiteSpace=wrap;html=1;fontSize=12;fillColor=default;" parent="1" vertex="1">
          <mxGeometry x="-1165" y="-3051.25" width="270" height="30" as="geometry" />
        </mxCell>
        <mxCell id="btuSytvUT4QP95B8jF5O-92" value="MongoDB" style="rounded=0;whiteSpace=wrap;html=1;fontSize=12;fillColor=default;" parent="1" vertex="1">
          <mxGeometry x="-1165" y="-3093.75" width="270" height="30" as="geometry" />
        </mxCell>
        <mxCell id="btuSytvUT4QP95B8jF5O-93" value="free5gc-local-pv" style="rounded=0;whiteSpace=wrap;html=1;fontSize=12;fillColor=default;" parent="1" vertex="1">
          <mxGeometry x="-1165" y="-2980" width="270" height="30" as="geometry" />
        </mxCell>
        <mxCell id="btuSytvUT4QP95B8jF5O-95" value="Free5GC - NS" style="text;html=1;align=center;verticalAlign=middle;resizable=0;points=[];autosize=1;strokeColor=none;fillColor=none;fontSize=12;" parent="1" vertex="1">
          <mxGeometry x="10" y="-3480" width="90" height="20" as="geometry" />
        </mxCell>
        <mxCell id="dkhloUsF44E33A5MY1pY-65" style="edgeStyle=orthogonalEdgeStyle;rounded=0;orthogonalLoop=1;jettySize=auto;html=1;exitX=0.5;exitY=1;exitDx=0;exitDy=0;entryX=0.5;entryY=0;entryDx=0;entryDy=0;" edge="1" parent="1" source="btuSytvUT4QP95B8jF5O-98" target="dkhloUsF44E33A5MY1pY-40">
          <mxGeometry relative="1" as="geometry" />
        </mxCell>
        <mxCell id="btuSytvUT4QP95B8jF5O-98" value="CSMF Portal (Tenant)" style="rounded=0;whiteSpace=wrap;html=1;fontSize=12;" parent="1" vertex="1">
          <mxGeometry x="300" y="-3424.06" width="250" height="25" as="geometry" />
        </mxCell>
        <mxCell id="btuSytvUT4QP95B8jF5O-101" value="NS Controller" style="text;html=1;align=center;verticalAlign=middle;resizable=0;points=[];autosize=1;strokeColor=none;fillColor=none;fontSize=12;" parent="1" vertex="1">
          <mxGeometry x="20" y="-3459.37" width="90" height="20" as="geometry" />
        </mxCell>
        <mxCell id="btuSytvUT4QP95B8jF5O-116" value="" style="rounded=0;whiteSpace=wrap;html=1;fontSize=12;fillColor=default;" parent="1" vertex="1">
          <mxGeometry x="-750" y="-3373.12" width="290" height="321.25" as="geometry" />
        </mxCell>
        <mxCell id="btuSytvUT4QP95B8jF5O-117" value="Kubernetes Master" style="text;html=1;align=center;verticalAlign=middle;resizable=0;points=[];autosize=1;strokeColor=none;fillColor=none;fontSize=12;" parent="1" vertex="1">
          <mxGeometry x="-750" y="-3371.87" width="120" height="20" as="geometry" />
        </mxCell>
        <mxCell id="btuSytvUT4QP95B8jF5O-131" value="&lt;div align=&quot;left&quot;&gt;&lt;font style=&quot;font-size: 20px&quot;&gt;Ansible K8s + Free5GC Cluster&lt;/font&gt;&lt;/div&gt;" style="text;html=1;strokeColor=none;fillColor=none;align=left;verticalAlign=middle;whiteSpace=wrap;rounded=0;" parent="1" vertex="1">
          <mxGeometry x="-1415" y="-3540" width="305" height="30" as="geometry" />
        </mxCell>
        <mxCell id="btuSytvUT4QP95B8jF5O-132" value="&lt;div align=&quot;left&quot;&gt;&lt;font style=&quot;font-size: 20px&quot;&gt;Network Slice Controller&lt;/font&gt;&lt;/div&gt;" style="text;html=1;strokeColor=none;fillColor=none;align=left;verticalAlign=middle;whiteSpace=wrap;rounded=0;" parent="1" vertex="1">
          <mxGeometry x="10" y="-3510" width="305" height="30" as="geometry" />
        </mxCell>
        <mxCell id="B5z_M_z4CxZ3m_XP2lqP-7" value="Ansible" style="text;html=1;align=center;verticalAlign=middle;resizable=0;points=[];autosize=1;strokeColor=none;fillColor=none;" parent="1" vertex="1">
          <mxGeometry x="-2990" y="-3448.13" width="50" height="20" as="geometry" />
        </mxCell>
        <mxCell id="B5z_M_z4CxZ3m_XP2lqP-9" value="Ansible" style="text;html=1;align=center;verticalAlign=middle;resizable=0;points=[];autosize=1;strokeColor=none;fillColor=none;" parent="1" vertex="1">
          <mxGeometry x="-2770" y="-3448.13" width="50" height="20" as="geometry" />
        </mxCell>
        <mxCell id="B5z_M_z4CxZ3m_XP2lqP-16" style="edgeStyle=orthogonalEdgeStyle;rounded=0;orthogonalLoop=1;jettySize=auto;html=1;exitX=1;exitY=0.5;exitDx=0;exitDy=0;entryX=0;entryY=0.5;entryDx=0;entryDy=0;startArrow=classic;startFill=1;" parent="1" source="B5z_M_z4CxZ3m_XP2lqP-10" target="B5z_M_z4CxZ3m_XP2lqP-12" edge="1">
          <mxGeometry relative="1" as="geometry" />
        </mxCell>
        <mxCell id="B5z_M_z4CxZ3m_XP2lqP-10" value="etcd" style="shape=datastore;whiteSpace=wrap;html=1;fontSize=12;fillColor=default;" parent="1" vertex="1">
          <mxGeometry x="-720" y="-3260" width="60" height="60" as="geometry" />
        </mxCell>
        <mxCell id="B5z_M_z4CxZ3m_XP2lqP-14" style="edgeStyle=orthogonalEdgeStyle;rounded=0;orthogonalLoop=1;jettySize=auto;html=1;exitX=0.5;exitY=1;exitDx=0;exitDy=0;entryX=0.5;entryY=0;entryDx=0;entryDy=0;startArrow=classic;startFill=1;" parent="1" source="B5z_M_z4CxZ3m_XP2lqP-11" target="B5z_M_z4CxZ3m_XP2lqP-12" edge="1">
          <mxGeometry relative="1" as="geometry" />
        </mxCell>
        <mxCell id="B5z_M_z4CxZ3m_XP2lqP-11" value="kube-controller-manager" style="rounded=0;whiteSpace=wrap;html=1;" parent="1" vertex="1">
          <mxGeometry x="-620" y="-3346.87" width="120" height="60" as="geometry" />
        </mxCell>
        <mxCell id="B5z_M_z4CxZ3m_XP2lqP-15" style="edgeStyle=orthogonalEdgeStyle;rounded=0;orthogonalLoop=1;jettySize=auto;html=1;exitX=0.5;exitY=1;exitDx=0;exitDy=0;entryX=0.5;entryY=0;entryDx=0;entryDy=0;startArrow=classic;startFill=1;" parent="1" source="B5z_M_z4CxZ3m_XP2lqP-12" target="B5z_M_z4CxZ3m_XP2lqP-13" edge="1">
          <mxGeometry relative="1" as="geometry" />
        </mxCell>
        <mxCell id="B5z_M_z4CxZ3m_XP2lqP-38" style="edgeStyle=orthogonalEdgeStyle;rounded=0;orthogonalLoop=1;jettySize=auto;html=1;exitX=1;exitY=0.5;exitDx=0;exitDy=0;entryX=0;entryY=0.5;entryDx=0;entryDy=0;startArrow=classic;startFill=1;" parent="1" source="B5z_M_z4CxZ3m_XP2lqP-12" target="B5z_M_z4CxZ3m_XP2lqP-31" edge="1">
          <mxGeometry relative="1" as="geometry" />
        </mxCell>
        <mxCell id="B5z_M_z4CxZ3m_XP2lqP-39" style="edgeStyle=orthogonalEdgeStyle;rounded=0;orthogonalLoop=1;jettySize=auto;html=1;exitX=1;exitY=0.5;exitDx=0;exitDy=0;entryX=0;entryY=0.5;entryDx=0;entryDy=0;startArrow=classic;startFill=1;" parent="1" source="B5z_M_z4CxZ3m_XP2lqP-12" target="B5z_M_z4CxZ3m_XP2lqP-32" edge="1">
          <mxGeometry relative="1" as="geometry">
            <Array as="points">
              <mxPoint x="-420" y="-3229.87" />
              <mxPoint x="-420" y="-3215.87" />
            </Array>
          </mxGeometry>
        </mxCell>
        <mxCell id="B5z_M_z4CxZ3m_XP2lqP-12" value="kube-apiserver" style="rounded=0;whiteSpace=wrap;html=1;" parent="1" vertex="1">
          <mxGeometry x="-620" y="-3260" width="120" height="60" as="geometry" />
        </mxCell>
        <mxCell id="B5z_M_z4CxZ3m_XP2lqP-13" value="kube-scheduler" style="rounded=0;whiteSpace=wrap;html=1;" parent="1" vertex="1">
          <mxGeometry x="-620" y="-3170" width="120" height="60" as="geometry" />
        </mxCell>
        <mxCell id="B5z_M_z4CxZ3m_XP2lqP-28" value="" style="fontColor=#0066CC;verticalAlign=top;verticalLabelPosition=bottom;labelPosition=center;align=center;html=1;outlineConnect=0;fillColor=#666666;strokeColor=#000000;gradientColor=none;gradientDirection=north;strokeWidth=2;shape=mxgraph.networks.pc;" parent="1" vertex="1">
          <mxGeometry x="-385" y="-3155.6099999999997" width="100" height="70" as="geometry" />
        </mxCell>
        <mxCell id="B5z_M_z4CxZ3m_XP2lqP-29" value="" style="fontColor=#0066CC;verticalAlign=top;verticalLabelPosition=bottom;labelPosition=center;align=center;html=1;outlineConnect=0;fillColor=#666666;strokeColor=#000000;gradientColor=none;gradientDirection=north;strokeWidth=2;shape=mxgraph.networks.pc;" parent="1" vertex="1">
          <mxGeometry x="-225" y="-3153.1099999999997" width="100" height="70" as="geometry" />
        </mxCell>
        <mxCell id="B5z_M_z4CxZ3m_XP2lqP-31" value="kubelet" style="rounded=0;whiteSpace=wrap;html=1;strokeColor=#000000;fillColor=#FFFFFF;" parent="1" vertex="1">
          <mxGeometry x="-380" y="-3263.1299999999997" width="90" height="23.13" as="geometry" />
        </mxCell>
        <mxCell id="B5z_M_z4CxZ3m_XP2lqP-32" value="kube-proxy" style="rounded=0;whiteSpace=wrap;html=1;strokeColor=#000000;fillColor=#FFFFFF;" parent="1" vertex="1">
          <mxGeometry x="-380" y="-3227.4999999999995" width="90" height="23.13" as="geometry" />
        </mxCell>
        <mxCell id="B5z_M_z4CxZ3m_XP2lqP-33" value="kubelet" style="rounded=0;whiteSpace=wrap;html=1;strokeColor=#000000;fillColor=#FFFFFF;" parent="1" vertex="1">
          <mxGeometry x="-220" y="-3263.7599999999998" width="90" height="23.13" as="geometry" />
        </mxCell>
        <mxCell id="B5z_M_z4CxZ3m_XP2lqP-34" value="kube-proxy" style="rounded=0;whiteSpace=wrap;html=1;strokeColor=#000000;fillColor=#FFFFFF;" parent="1" vertex="1">
          <mxGeometry x="-220" y="-3228.1299999999997" width="90" height="23.13" as="geometry" />
        </mxCell>
        <mxCell id="B5z_M_z4CxZ3m_XP2lqP-35" value="Kubernetes Minions" style="text;html=1;align=center;verticalAlign=middle;resizable=0;points=[];autosize=1;strokeColor=none;fillColor=none;" parent="1" vertex="1">
          <mxGeometry x="-320" y="-3071.87" width="120" height="20" as="geometry" />
        </mxCell>
        <mxCell id="B5z_M_z4CxZ3m_XP2lqP-42" style="edgeStyle=orthogonalEdgeStyle;rounded=0;orthogonalLoop=1;jettySize=auto;html=1;exitX=0;exitY=0.5;exitDx=0;exitDy=0;entryX=1;entryY=0.75;entryDx=0;entryDy=0;startArrow=none;startFill=0;endArrow=classic;endFill=1;" parent="1" source="B5z_M_z4CxZ3m_XP2lqP-40" target="B5z_M_z4CxZ3m_XP2lqP-12" edge="1">
          <mxGeometry relative="1" as="geometry" />
        </mxCell>
        <mxCell id="B5z_M_z4CxZ3m_XP2lqP-40" value="NS Controller" style="rounded=0;whiteSpace=wrap;html=1;strokeColor=#000000;fillColor=#FFFFFF;strokeWidth=2;" parent="1" vertex="1">
          <mxGeometry x="-380" y="-3193.1299999999997" width="90" height="23.13" as="geometry" />
        </mxCell>
        <mxCell id="B5z_M_z4CxZ3m_XP2lqP-41" value="NS Controller" style="rounded=0;whiteSpace=wrap;html=1;strokeColor=#000000;fillColor=#FFFFFF;strokeWidth=2;" parent="1" vertex="1">
          <mxGeometry x="-220" y="-3193.1299999999997" width="90" height="23.13" as="geometry" />
        </mxCell>
        <mxCell id="dkhloUsF44E33A5MY1pY-64" style="edgeStyle=orthogonalEdgeStyle;rounded=0;orthogonalLoop=1;jettySize=auto;html=1;exitX=0.5;exitY=1;exitDx=0;exitDy=0;entryX=0.5;entryY=0;entryDx=0;entryDy=0;" edge="1" parent="1" source="dkhloUsF44E33A5MY1pY-29" target="dkhloUsF44E33A5MY1pY-40">
          <mxGeometry relative="1" as="geometry" />
        </mxCell>
        <mxCell id="dkhloUsF44E33A5MY1pY-29" value="NSMF Portal (Operator/designer)" style="rounded=0;whiteSpace=wrap;html=1;fontSize=12;fillColor=#d5e8d4;strokeColor=#82b366;" vertex="1" parent="1">
          <mxGeometry x="30" y="-3424.06" width="250" height="25" as="geometry" />
        </mxCell>
        <mxCell id="dkhloUsF44E33A5MY1pY-42" value="" style="shape=image;verticalLabelPosition=bottom;labelBackgroundColor=#ffffff;verticalAlign=top;aspect=fixed;imageAspect=0;image=data:image/png,iVBORw0KGgoAAAANSUhEUgAABY8AAAK/CAYAAAAh0TJVAAAABHNCSVQICAgIfAhkiAAAABl0RVh0U29mdHdhcmUAZ25vbWUtc2NyZWVuc2hvdO8Dvz4AAAAmdEVYdENyZWF0aW9uIFRpbWUAcXVhIDIyIGRleiAyMDIxIDEwOjE5OjA49+Q60AAAIABJREFUeJzs3XmU3XWd5//nd7n7rbq3tqSqslCVnRAWw64tiEsGBxntIK2j6cbRUaPd4pzWae3DqNMzc6Zbp8WepkdFm7HxgDhMT9Pj0j00/BiWUUBIIJBAgOxLpZJK7XWX7/r5/XGrLimqKiQhSQXyepyTw/X7/X6W7/ec+njv+/v5vD+WMcYgIiIiIiIiIiIiInIEe7Y7ICIiIiIiIiIiIiJnHgWPRURERERERERERGQKBY9FREREREREREREZAoFj0VERERERERERERkCgWPRURERERERERERGQKBY9FRORN4ZZbbuGiiy7irrvumu2uiIiIiIiIiJwV3NnugIiIyLHYsGEDmzZtYvPmzaetzeHhYS699FIOHjzIj370I9auXXva2haRs0OpVOLnP/85Dz74IPv27WNkZITm5maWLl3Ktddey5o1a7Asa7a7KSIiIiJnKQWPRUREZrB3715eeeUVAJ566ikFj0XkpLrnnnv4wz/8Q3p7e6c9/xd/8ResXr2aO++8k1WrVp3m3p1enuexadMmOjo6WLBgwWx3R0RERETGKXgsIiIygxUrVvDFL36Rvr4+1q1bN9vdEZG3kG9/+9t8+ctfBqC7u5v169ezevVq8vk8+/fv52c/+xl33303Gzdu5KqrruKxxx7jvPPOm+Venzp33303n/rUp1i5ciVbtmyZ7e6IiIiIyDgFj0VERGbgui5/8Rd/MdvdEJG3mCeffJKvfOUrAHzwgx/k7rvvJpfLTbrmhhtu4JOf/CTvf//7GRwc5KabbuKpp556y6awiOMYgCiKZrknIiIiInIkbZgnIiJnnFKpxK5duyiVSsdVLo5jDhw4wO7du/E875jKeJ7Hrl27OHjw4Il0tW5wcJCenh583z/ussPDw+zevfuYy57IfU6YuN8T6aeInBy33HILURSxePFifvrTn04JHE+4+uqr+bM/+zOglvf9wQcfPKb6y+Uyu3btolKpHNP1p3JMGR4eZseOHRw+fPi46n09AwMD7Nixg8HBweMuq3FQRERE5NgpeCwiImeMzZs3s2bNGhobG+nu7qZYLPKRj3yEnp6eo5YbGBjgi1/8InPnzqWzs5Ouri4KhQJr167lpZdemrbM3r17+chHPkKxWKS7u5v29nbmzZvHn/zJn0y67uKLL6alpYXHHntsSh3GGG677TaWLFlCc3Mz8+bNI5fLMX/+/Pq/rq4utm3bVi9z4YUXMmfOHIaGhti4cSPXXHMNxWKRrq4umpub+cIXvjBjwOdE7vPI9u666y46Ojro7u6mpaWFXbt2HfW5isjJt2fPHh566CEA/uiP/oh0On3U69evX09jYyMA995775TzF1xwAR0dHXiex+bNm3n/+99PQ0MD3d3dFAoFbrzxRg4cODBt3adqTNm5cydf/OIX6+P44sWLaWtro6uri1tvvRVjTL2+733ve8yfP58/+qM/AmD79u318XPBggX88pe/rF87NjbGN77xDbq6umhpaWHx4sU0NzezZMkSvvnNb84YDNY4KCIiIvIGGBERkTPA008/bfL5vAFMIpEw559/vmlrazOA6ezsNCtWrDCA+cpXvjKp3L59+8ySJUsMYFpaWsxHP/pR8/GPf9wsWLDAAKZQKJhnnnlmUpmBgYH6+UWLFpmbbrrJ3HDDDaalpcUA5tChQ/VrJ47dd999U/q8fv16A5hkMmk+8IEPmHXr1tXrBUxbW5vp7Ow0L7300pT6brvtNpNIJIxt22bFihWmUCjUy91www1T2jqR+zyyvVtvvbVev2VZBpj2ehE5te6666763+KBAweOqcwHP/hBA5iLLrpoyrmJv/E77rjDJJNJA5jly5eb7u7uejtLly41Q0NDk8qdqjGlv7+/PpY3NDSYK6+80lx77bWTxsZbbrmlXt+tt95qUqmUcV23XlcqlTKpVMqk02nzd3/3d8YYY3p6eszKlSvrdaxatcq8613vMvPnz68fu+aaa4znecfdZxERERGZmYLHIiJyRrjooosMYJYtW2Z27NhhjDEmDEPz/e9/36RSqfoP/tcGj9esWWMA8/a3v31S0NfzPPOhD33IAGb16tWTyvz5n/+5AczFF19sgiCoH69Wq+ZHP/rRpGMzBY83btxoAOM4jvnVr35VP14qlczll19uAPOnf/qnU+5zor6J4Mfzzz9vjDEmiqJ6MHq6gMaJ3OeR7SUSCdPV1WWeeOIJEwSB+c1vfjNtkEVETq2vfOUrBjDNzc3HXOarX/1qPaD7WhN/45ZlmXPPPXfS2PE//+f/NI7jGMB89atfnVTuVI0pvb295qKLLjJ33nmnqVQq9XJBEJhPf/rTBjC5XG7SOWOM+eEPf1gPfE9nor8LFiwwGzdurB+P49j89//+341t2wYw/+7f/bvj7rOIiIiIzEzBYxERmXW//vWv60HThx56aMr5Bx54oD6j7sjg8YYNG+oBge3bt08pt3v37vpstk2bNtWPf+5znzOA+YM/+IPX7dtMweNvfvObBjDXXnvtlDJ33323Acwll1wyY33nn3/+lJmApVLJFItFA5jvfOc7b/g+j2wvn89PmgEtIrPjX//rf20As2LFimMu861vfaseII7jeNK5ib/xlStXmoGBgSllb7rppvoKjomyszWm7N+/vz7WHxkANuboweMnnniiXu7++++ftu7PfOYzBjDFYtFUq9WT1mcRERGRs51yHouIyKybyP+5cOFC3vWud005/973vpdrrrlmyvGJXJiXXHIJixYtmnJ+4cKFLFy4EICnnnqqfnzx4sUA/PSnP2Xjxo0n1OexsTEA2tvbp5xramoCOOoGUf/+3/97CoXCpGPZbJbLLrsMgP3799ePn+h9vra9ZcuWzdgfETk9jnUTuyMlEon6Z3NEvuAj/cf/+B/rY8+R1q5dC0BPTw+7d+8GZm9M6ezsJJVKARzXRnc/+9nPAFi2bBlr1qyZ9ppPfvKTAPV88tPROCgiIiJy/NzZ7oCIiMjLL78MwHnnnYdlWcdcbsuWLUAtKLJu3bpprxkeHgagr6+vfuyzn/0st99+O6+88gqXXXYZv/M7v8PnPvc53vnOdx5z20uXLgXgiSeeIIoiHMepn/u///f/ArBkyZIZy9v29O9vi8UiANVqtX7sRO/zSBMBcxGZXfl8HoBDhw4dc5mJv+/GxsYZx46Zji9fvrz+effu3XR1dZ22MWXz5s1s2LCBnp4eyuUyxhjiOAao//dYPP/88wCsWrVqxmuOPLd9+3auvPLKE+qziIiIiEym4LGIiMy6iSDFdLPmjqXc7t276zPqppNMJifNNsvn8/z617/m5ptv5n/8j//BPffcwz333MPq1av54Q9/yOrVq1+37bVr13LLLbewdetW1q1bx5e//GXy+Ty/+MUv+K//9b8C8OlPf/q47geoB8+PnF14ovcpImeeOXPmALWZt0EQTJpVPJNXXnkFgO7u7uNur7m5uf554qXUqR5TnnjiCdavX8+mTZuOu+x0JmYpz507d8Zrcrkc6XSaarVKqVQ6Ke2KiIiICChthYiIzLpkMgm8GtA4VplMBqgFck0tj/+0/zzPqy/dntDa2spPfvITtm/fzh//8R9TKBTYuHEj73znO9m6devrtj06Okq1WsWyLH76059yySWXsGLFCr785S8ThiFf//rX+Z3f+Z3jup9TcZ8icmY5//zzgdoLoueee+6Yyjz66KMAXHrppcfd3sDAQP3zxKznUzmmvPjii7z73e9m06ZNvOc97+G+++7j+eefZ+/evezdu5dsNnvc95BOp6fcy2uVSqV6cPy1KYFERERE5MRp5rGIiMy6efPmAbWlxsdjIifn3r17T7jtrq4u/vN//s984Qtf4JprruGll17iv/yX/8Idd9xx1HJf+9rX6Ovr46//+q9pamriySefZGhoiO7ubtauXXtSZwCfjPsUkTPDVVddheu6hGHIXXfdxcUXX3zU6//P//k/9b/9D3/4w8fd3pEvwybSNpzKMeW2226jUqlw2WWXcf/9909K6QMcV2qiCRP9femll2a85shz55133nG3ISIiIiLT08xjERGZdRObxG3durWe//hIjz76KI888siU41dddRUAzzzzDD09PW+oDx0dHdx4440A9Pb2vu71zzzzDFBbgr527Vq++c1vcvvtt/PVr371pKeOOJn3KSKza+7cuVx//fUAfP/736+PJdMZGBjgC1/4AlALiL73ve+d8drvfve7BEEw5fhPfvIToJaDfWKDz1M5pky8BLz00kunBI4rlQpRFE1bbiJ9x3QrUCby0T/77LMzpsL43ve+B9QCzQoei4iIiJw8Ch6LiMisu+666+rLjD/xiU9QqVTq5/73//7ffOADH5i0gdyE66+/nvnz5xOGIR//+MfreTGPtH//fn784x9POva1r31tSsAmCAIeeOABAFasWPG6fb7kkksAuPHGG7n22mv53d/9XdavX8+Xv/xlvv3tb3P//fcf14ZQR3Oi9ykiZ6Y///M/J5vNUq1Wed/73sfdd9+N7/v188YYHnzwQa644gq2bdtGIpHgjjvumHFTPIAHHniA6667btIGd3/7t3/L3/7t3wLwmc98pn78VI4pHR0dADzyyCOTgtn9/f1cd911047lR5br7e2dFCCO45gbb7yRtrY2AD71qU9NecF377338jd/8zcAfPWrXz3qcxIRERGR46O0FSIiMusaGxv50z/9Uz7/+c/z+OOPs2TJEi699FL27t3Lxo0b6ezsZO3atdx5552TyiUSCX784x9z3XXX8fDDD9PV1cV73vMeOjo6GBoaYuvWrTz77LNks1l+7/d+r17urrvu4j/9p//ElVdeyYUXXgjAP/3TP7Fjxw4KhUJ9pt/RfPvb3+bxxx/nueee4/7775/2mmXLlvGLX/yCpUuXvoGnc+L3KSJnpkWLFvHzn/+cD33oQ/T397Nu3TrWr19Pd3c3iUSCPXv2cPjwYaCWp/jee+/l8ssvP2qdq1ev5oEHHmDRokVceeWVDA0N8dRTTwG1WcA333xz/dpTOabcfPPN3HPPPWzevJnVq1fzz//5P2d0dJR7772XsbExFi1axI4dO6aUe8c73kGhUGB4eJirr76ayy+/nO3bt3PLLbfwr/7Vv+JHP/oRa9euZcOGDSxatIirr76aYrHIiy++WA82f+xjH2P9+vXH1V8REREReR1GRETkDHH77bebOXPmGMAAxnVd89GPftT09vaaW2+91QDm61//+pRyzzzzjFmzZo1xHKdedqL8FVdcYe66665J1//93/+9Wbly5aRrAXP99deb559/ftK1nZ2dBjD/+I//OOn4d77zHQOYc8891zzzzDNmy5Yt5umnnzaPPPKI+cEPfmAWL15sALNy5UoTx/Hr1jfhpptuMoD50pe+9Ibv81jaE5HZs2/fPvOZz3zGtLW1TRmP2tvbzec//3nT09Nz1DpaWloMYO677z7z/e9/3zQ1NdXrSCaT5hOf+IQZHByctuypGlN++ctfmqVLl06q84orrjC/+c1vzO/93u8ZwDz22GNTyj3wwAP1+if68dBDD9XPP/744+aqq64ytm1Pqru7u9t897vfnTTWHm+fRURERGR6ljHGnLrQtIiIyPEJw5CXXnqJUqnE4sWLaWlpAWrLuIeGhigUCjMuSR4dHWX79u2USiWampro7u4mk8nM2NaBAwfYs2cPmUyG7u5uGhoaplxTrVbxPK+eVgNqeUg7OzvxfZ8XX3yR5cuXTyn35JNPcsUVVwCwb9+++qaA09V3pCiKGB4eplgsnpT7fL32RGT2GWPYtWsXfX19WJbFnDlzWLhw4TFtLtfa2kp/fz/33XcfH/rQh6hWq2zevBmorX5obGx83TpOxZhijGH//v318W/BggVAbYwvlUozlg+CgBdffJFqtcqyZcsoFotTrhkcHGTHjh0EQUBHRwfnnHPOUfuicVBERETkxCl4LCIicpweeeQR3vWud5HJZBgbG5s2yPvwww9zzTXX4DgOg4OD0wamRUTeqNcGj0VERERETibtJiEiInKcJmYRVyoV/uRP/mTSBn8AW7duredN/hf/4l8ocCwiIiIiIiJvSgoei4iIHKclS5bUg8P/4T/8B1paWli1ahVXXnklS5Ys4dxzz2Xz5s1cfPHF3H777bPcWxEREREREZETo+CxiIjICfjLv/xL/vEf/5GPf/zjdHV10dvby9atW4njmOuvv56/+Zu/4YknnqCtrW22uyoib2GLFy9mzpw5GmtERERE5JRQzmMRERERERERAWqbTG7cuJGOjg66u7tnuzun3dl+/yIir6WZxyIiIiIiIiICwE9+8hPe8Y53cN111812V2bF2X7/IiKvpeCxiIiIiIiIiAAQx/Gk/55tzvb7FxF5LQWPRUREREREROS4RVHE3r172b59O5VK5bjLDwwMHHfZgYEBXn75ZXp7e09LeyIiZzsFj0VERERERETOcn/1V39Fe3s7X/rSlwDYtm0b7e3ttLe309HRwX333Ve/9vDhw/z+7/8+bW1tLFy4kCVLllAoFPjABz7Ali1bpq3/vPPOo7m5maGhITZs2MDVV19NS0sLS5YsoaWlhc9+9rOUSqVpy+7YsYM/+IM/YOHChbS0tLB8+XI6OjqYN28ef/ZnfzbtLOHjbe947l9E5GziznYHRERERERERGR2RVHE2NgYYRgCtbQNY2NjAFiWVQ/Q7tu3j6uvvpodO3bQ1tbGunXrcF2Xhx9+mF/+8pc88sgjPPTQQ1x66aWT6j948CCDg4Pceeed/Nt/+2+JoogVK1Zw4MABhoeH+cEPfsCBAwf42c9+NqncwMAAF1xwAaVSiWKxyG/91m9RLBbZsmULO3fu5I//+I8ZGBjgW9/61htq71jvX0TkbGMZY8xsd0JEREREREREZt9f//Vf8+lPf5rly5ezdevWKeff97738eCDD/LOd76T++67j5aWFgDCMOTjH/849957L+effz7PPffcpHKtra309/cDcMEFF3DPPfewcuVK4jjm3/ybf8Ntt90GwJNPPslll11WL9fX18f73/9+/vAP/5APf/jDJJNJoBbcvfnmm/lv/+2/kU6n6e/vJ5vNvuH2Xu/+RUTONkpbISIiIiIiIiKv6+mnn+bBBx8kmUxy55131gPHAK7r8p3vfIdkMsnzzz/Phg0bpq3jwgsv5LHHHmPlypUA2LbNt771rXpdDz/88KTr29raePrpp/nYxz5WDxxPlPvGN74BQLVaZfPmzSelPRERmUzBYxERERGRM8zXvv6N2e6CiMgU//AP/wDAJZdcQnd395TznZ2d9eNPPfXUtHV84xvfoLGxcdKxdDrN5ZdfDtTSYhyrtrY2crkcAENDQ6e8PRGRs5FyHouIiIiInGGefWbTbHdBRGSKF154AYD9+/ezbt26aa8ZGBgAapvqTceyrGmPF4tFACqVyoztb9myhaeffpqenh7K5TLGmEk5ik92eyIiouCxiIiIiIiIiByD4eFhAHbv3s3u3btnvC6RSLB8+fLjqnsiyDvdtky/+tWv+PznPz8lj/IbcbT2RETkVQoei4jIWSeKIgAcx5nlnoiIiIi8eWQyGQDWrl3L//pf/+u0tPnCCy/w3ve+l2q1ypo1a/jCF77AkiVL6jOHly9fzsjIyGnpi4jI2UjBYxEROevc/oMf0tHezm//9odmuysiIiIibxoLFy4EYM+ePaetzdtuu41qtcrFF1/MP/zDP0x5+T9TWgoRETk5tGGeiIiIiIiIiAC1lBMw/QZ0V111FQDPPvss+/fvPy392bFjB1DbpO+1geNqtVrPeXyyHO3+RUTORgoei4iIiIiIiAgAHR0dABw8eJCNGzfWj0dRxPXXX8/8+fMJw5B169bVN8c70oEDB7jzzjtPen8effRRfN+vHx8YGOD666+nVCqdtLaObG+6+xcRORspeCwiIiIiIiJyFtm7dx87d+6a9tzVV1/NvHnzAHj3u9/NmjVrWLRoEXfccQeJRIIf//jHZDIZHn74Ybq7u1m7di2///u/z7p167jkkkuYP38+69evP2l9vfnmm0kmk7z44otceOGFfOlLX+Kzn/0sy5cv59FHH2Xx4sUnrS04+v2LiJyNFDwWEREREREROYv8v//3/3jooYemPZdKpbjjjjuYM2cOw8PDPPDAA+zdu5fu7m4ArrnmGn7961+zZs0aSqUS9913H9/97ne5++67efbZZ7n00ku5/fbbp60XIJ1OT9vuxPHXnl+9ejV/93d/x6JFi9i6dSu33norP/jBD1i4cCGPPPIIV1999bTlTrS917t/EZGzjWWMMbPdCRERkdPpu9/7vjbME5Ez2vXXf4if//zvZ7sbIvIWdc89P6VcLvOpT31yxmviOGbXrl0cPnyYZcuWUSwWp1wzMjLCK6+8QqlUolgssnjxYnK53LT1VatVPM+jUChMez6KIoaHhykWi9j21HlucRyzZ88e9u3bx7x58+rB3DAMKZVKU+o9Ge293v2LiJwN3NnugIiIiIiIiIicWWzbZtGiRSxatGjGaxobG7n44ouPqb50Oj3jLGAAx3Fobm4+an+6urro6uqadNx13WkDxCejvde7fxGRs4HSVoiIiIiIiIiIiIjIFAoei4iIiIiIiIiIiMgUSlshIiIiInIWMMbgV33iOCKVSU+b41NERERE5EgKHouIiIiIvMVVqx6H9/ew76VdBJ5Hc3sb2YY8qWyaVDZLOpMmk89hOwooi4iIiMirFDwWEREREXmL8spVBvoO07trLy8++QzbntmCMYaGpgK5QgPZxgYKrc0UW5uZv6yL9kXdZLMzbzAlIiIiImcXBY9FRERERN6CojBi/47dbHjwMbY9s4WBQ30EfoAxhqG+/vp1xhgyuQzzly/h2k98mEXnrcCyrDfUtjGm1ocoZrRUASCRcMmmU7y26jfaloiIiIicOgoei4iInCTlchV/rEQ6lyGdy852d0TkLFceK/HCExvZ9OiTlIZHiMcDugCxMVi2hWPbGGPwKh6Hdu9l+PAgvh+QSiVnrDeKY0oVjyiKcR2HhGvjOg6u6xDHMVU/ZGi0zPDIGDt7B9jd008YhDQ3NdBSzJPPpijkMmRTSRpyabKZFNlUQjmYRURERM5ACh6LiIi8QZ7n07t7D1ufeJb+3j6a5rTQPKeNbCFHrqmJxkIj+WKDAsoictoYY6iMjjF4sA+/Wp0UOAYwsSGXz3HOgiLZbJKqFzNv1QV0Llk0Y+DYD0IGhkvsPnCYF7bvp1zxyWZSFPNZmhrS5Buy+H7I3t4Btu07xM6ew+w+cJhS1YfYEAGphENjQ5aWQgPNDVkymRQXn9fNu962lJbG3Gl4MiIiIiJyPBQ8FhEROUGB59OzYw97X9nB9k0v8PKG5/AqHtl8jnQ+RzqXIV9sJF8s0LFoAUtXn0/HOfNxHOek9SGKYgxgWWBblpZ/i0iNgcAPCHwfXhM4htqhVNLm3BWdLFvaTmQcGpavJjO3ddrqgjBi94EBnnhuG5u27ubg4SH8IMKyIJlwSSVdXNcljCKGRysMlav4YYQfhMRRhDGGMI4xUUTFD+npH8EzMBbFDEQxqxYvUPBYRERE5Ayk4LGIiMgJ6uvp5fFf/n/seP5Fhvr68T0fYwzDg0OMDA0Dtdl/juNQbGsmCgKa57SSzb+xAEkcG6I4ouqH9PUPU6r65DMpGhuypBIuCdfFtsBxbC0DFzmbjQeNY2OwLYtCo4sfxJTLEZlsinkdBQqFDCaOSbgWtmVIJKb/eRD4Afv2H2Tzy3s41DdEHMdEcUwcx/hBSKliYYwhCOPauBcbXMB1XaLxcSg0BkNt1nO/57MvCKkYQ1+5SiXwTtNDEZFTyRzxskovtEVE3hoUPBYRETlBe7Zu55VntzDQe4g4jieds22bVMrFssAPIqIwBMsGjv5DKowi+gZGGRwtkUokyGVS5DNJspkUtm0zOFKmp2+Q3T2H2bbnIDsODVIdq5DOpGjIZyjk08xpaqS5IUdzIUdbcyPz2opk0zPnLxWRtx7Ltkhl07jjweCWpgTzz2mg4rkcOFChfU6OKy5bTGMxS//gGG4qAeUy6fIYbjY/pb7IQMmP8IMIg6GluZE4MnhBQBhGRGFEbAy+G2FiQxTHuOHkcTGOIvwoxgtCfBPjRRHGsihVfUoV/7Q8FxE5NeI4JvB8Bg71M3p4gFyhgYamAo7rYLu1lQm24+C4J2/1lYiInB4KHouIiJyAwPMZ7uvHr1QwrwkcG2NwEwmWLpnL0kVteGFMZu5CFl3+NlKZ1LT1RXHMvoODbN62j+df2svhoVEc26Yhl6Yxl6HQkMF2HA4NjLC75zC9Q6McGhylUqmCqZW3LItUOkkulyGfSuI6DovOaeejay7lwkWdp+OxiMgZJJlOkysUcByXhkKabHsbWTvL/HkBXfOb6VrYDI5DJpMg4Tok0wls+/UDO5lMmisvWkYy4TBWrtb+jXmMVCp4XoAfRFQ9n8APiKLaDOUwjgkjh/Jomb39Qxys+kSZFDgOA2Nl+kfLxLHBtjVTUeTNxBhDZazMyOAQe1/azguPb2Dg4GEam4sUWprJFvI0NDfR2FSgaW4rrfPaSWez+lsXEXkTUfBYRETkBBhjCIJg2lyiGHBtQ1trnret7gbLxm1ZQGreHKwZ8h3vOzjIoxtf5unnt3Oofxg/CPGDiIRbSz0xsfKzXA2o+gFBXGvXsWwMBjN+gV/1Ga34jHg+Q1isiiKuGjiPCxedkscgImewTD5LS8ccEqkkxlhkU3lyzQW6WrLMaUiTcGrpJJK5DJZtY6pDmMgHMketN5dOMb+9maaG2iagYRQRjOc3Lld8hsYqjI5VGKt4lMpVBobH6Osfplz1GKt6DI1WiCyw4hjjOAyVKvQNjRGEEamkfp6IvJl4lSpbn97EK89sYe8+jUkDAAAgAElEQVRL2+jbewDP80gkEySSSRzXxUm4pLNp5izo5KJr3s6qKy4mmZ7+ZfqJqFY9IgOObZFwXRxHKbtERE4mfTsTERE5AZZlYds2MQbbsWhpSpJwbQ71hziORXdXG+3tBfoHRsEY8qkitu+TSKSmzQE4MjRCT08fQ8NjJB0by0rgjOcJNcaAqaW/cGyLbCpBGMXExhCPXxNjiIzBGIg9jwEDo3FEKYoo+5XT+mxE5MyQSCbp6F5A9/JzSFPm3HlNpPJpKpHFWAANlsG1LeI4Jo5i3FQWyz62nwdx/OqLM9dxcB2HTCpJYy7DnObG8Q3yDEEYsn1fH088+wqlild/4WaNp/AxxtAzOMr+gRH8MFTwWORN5sCuvfzqZ//E/ld24lW9ehov3/PxvVfT0VjA4ME+co15FqxYSuvc1jeUEzmKYzwvYLhUYVdPP719Q7Q25ZnTUiCfTZPLpEjYkEwmSShVhojIG6JvZyIiIicgkUqSbcxjWzYN+QTzzingZDJkGiMSdszFqxcyb14L5YqHF0Rk4pjY9yFrYJofS76xCGKDbdm0tRXIZ1OUyh6eH1D1fDw/xA/DeoqKKIrrwZvIGEwc4wURYxWPkXKVynhcp+IF9I+WT+ejEZEzSFt7K2//rVWkvH7a2hpqKW68iEoI1RhSVkjaeOAmSTS2YaWzx1bxdKsuqL1Yc5zaGOcCqYRDMZ/BnWkmoDF4QUjv0BhjZY+GbPoE7lJEZoMxhp5tu+k/cIhqpTppszxjDIlkgkJjhlTSpVINSDcWmL98CQ2FhmkDx8YY4thQ8Xy27zvE3t4B0skkzYUcLQ1Zmoo5XMeht3+ErTsP1FJ9vbKH3f0jGD/E2BZuwqGYy9DR1kRHc4G5LY2c09nK25YvYE7T9O2KiMjRKXgsIiJygprnziGRSuFEIW5jI9VsMxctTNKWT9Ixt0AymSCXSRIZQzrjYlvx69aZSiVYuXgeXfNaCcIIzwsYq3jjeUU9RktVhkbLlEsVqn5AFEW1zaqMoewH9AwOc2i4RNSQhYRL2Q84PFjCDyOSmnkjclYxxpBM2CzobCATOwSejxVHNLoRvvHwSBEZi7HQoRSlaPETtJ7kwIplWdO+MKufB+LIcGhkjIFShY7WwkltX0ROncDzqYyNEYfhtOcdx2HxojlcenEXsbFItMyj7cILSaam38TX80Ne2NnDU8/v4IXt+xkaKRHHhkw6STZd2zzYcWyGRsv0Hh5muOpRqvqEfi2NWBTHmAqUyx4Hh0s8xz4CLM6Z38b6TIp3NzWcyschIvKWpeCxiIjICeroXkC+2EBloEpTKsO8cwrYToLOtjwpe3wG3sQScL+C5Y0BLUet07Ftspk0zYU8tmXVZuGMz8SJ45iK51P1QypeSKlSCyRv2rqboaFRgjCi7AXExtRyiQKjZY89A8NUqj7J/NHzmIrIW4cxhtD38QKDk52DF41hWaM4VonIM6Rsi7TrYFlQMRmq6XbI5malr5Zt4QcRFS+YlfZF5MRFcQzUZhynkjaOY1GpRFi2TUMuSUtzjqam2neaZGuWTC6DbU+/EqH30AAbNu/k2Rd3MTJWwQ9CgjCiVKliWRaWZRHFMUEQEUQxYRSRsiwc160Fj41hYu6zV/U4UPUZMhDmM/SPVU/PAxEReQtS8FhEROQE5RrzrLr8QkZ2b2NpVxvzOpo4MDDGobGI5oxNNlGbVReEIW5DG26u6agz8OpMXPsdZo0HoC2L2opvh1QyMenSctVj/8FBRkZLRxx9NZfoYKnCnr4hKp5PQcFjkbOG7/lE1SpuMkXcOBffNGF7ZfDGcINRTBjg5gu4rkvKdmkqtmM1nIZZedMtVcfgRSHhDKkwROTM5CYSJFNJDJBMWHR2ZMhkk+zrjbDiiHNXdHDOwlaGhksEQUQx3YhbKeOks1jTBJDHqj6Dw2NUKj7pZIJsJoXnBxgDURSBMfgY7KSLG8ckI5soNvWoRmwMYVxL6xVGESOxoRrHVKKIsar2fxAROVEKHouIiJygRMJl5coFOB2Qz9R+BBUzDh6G0QDKgSFpPBzLEDpZkqkslnVydwDPzLD0E2ohZGMM/aUK+w4P096i5eAiZ4Nq1SOoeMRhRBRFRFEMONjpIiQbwYqwwwpOUzN2Og8YcNxpgzmnhYGU65JwZ6l9ETkhtmNTaGnGcRPkcinaFjRh5Qqc3xJDFHLJ286hubWRatWn5AU0ZFLY9swptGJjERuD7dh0L5xLZ1uRkXKVsbEKI2NVRssVPC/AACaOCcOonmfZjyJiY6hWAw4Nj7H70CDlXBosi7Lnc3C4NGO7IiJydAoei4iInKAwjMhkUuScJqygShwGpGxDgoDQsjCWTRgnGY1ciLNkjcXMod5Tp+z59AyMzkLLInK6RV6VsOqDqaW6McZg2RZgEYcRAL7tkkgXqYYubmyRPspLqNPBimMSjkPyKEElETkztS3oJJ3NEIxWiO0scbaJc5fk6WrOkEklsC2LdMKl2AC2CyYYA1M8ap3pZIJF8+Zw3tJ5OLZNFMdUvYCK5zNarnJ4sMShgRFGRsuUylWqvk+lXCWIYoajCj0Dw4xWPOyETZxK4QUhA4MlylWfXCZ1mp6MiMhbh4LHIiIiJyDyqgR+iN04hyDM4VSGsauD2JaNFfq4bgLXsYntBKl0E1b73FpOvtPMAoIoYriiXH8ib3XGGLwI4iNm4x2ZWzS2LExsMHFMFFn0jQyTD2LmthVqG9vNEsu2aMpnKOSys9YHETkxbfPa6eiez+DugAVNeRYvKTBUjQmsBEkDFgbLsmovs8IAx7yaI/loImOYyGTj2Da5TIpcJkVrsYEFc5pruY8jg+cHjJQqPPz0Vnp7+4njyWOfMYbhssfO/kEFj0VETpCCxyIiIsepWvUISrVgbJxI47sp7HSRyG8nY0q41VGsbB43V4A4JpXOYeWbTv2S8BliP1FsMLMYGBKR08P3AyLPByCO4ynnbdvGWAZjWxggZSIi38PzAtLpY599HBtDEEaEUYxjW8cUeJ4pnbHtusxrbmTlvDaa8grqiLzZuAmXiy5bRbkzxYK5WYoNWSyrQskLCWKXlANJE2CZELtxLomGFjiWVQZHyYHuug4uDikgn0lSyKfJZ9LY9vRjUdUL6B0ao3+kRFvTacjtLiLyFqPgsYiIyDEyxuD7AWHVI45joijCxHFtJp9jQzJD1cqSyLaQTLpYjU3YzuwuwzYG0gmXbCrx+heLyJubMcTj49LUU6aWwsKqBXuNMTQ2FcCyjmEOYO3d1MTrr5GxMs+/spdz5s+hKZcmm0mRTiVwjvKCLDYGc0RLxrawHYeFbUVuuPI8/tlFS8nOcvoMETl+tmUxr7NIuqETl4jIGBrcmNCK8GKoxg6eibFCQxSmaLeTJE7yC233KN+1JvZ/GCpV2dk3xIpz2k9q2yIiZwMFj0VERI5RHEVE1SomNvVZfZZtY9kQR7VlmMZAmHCJApvqWIViIT+rfbYw2JZFY0oz+kTeykwUYYKg9nmaGXvGGOIoxnZeDfBa1Da8mmGy3iSWbZFIutiWhe8HPPfibl7c0UNjLk1zY57mlkbmthSYU8yRz6RxnKOvtHAsi+Xz53DT+y7lhitXsaC18LplROTMM1aqEJHAyjVjghJuUMYkEthhSCrlggW+SXE4yhAkmmnF5rS/zrYgimP6tf+DiMgJUfBYRETkGBhjCIKQMDLEYQhQn8E38XkiOBPHMZWKR1j2yGZSJJOzN+vXcRxa8hkWtDXNWh9E5NSLjCGMzUzZa2qMwcS1DfTiKMILI5yEi+u6cJRZv6WKx/Mv7+Wpzds50D+E4zhYtoXv+RwsVznUN4S90yKTSdOQz9DcmKNtThOdLQUK+TSeH9ReuB0R087ZNisKeRY25DBxzEjJI59NcWjQZ8uuUaI4prPN4Zy5RYo5rZwQOdPEcUxYKWNFMak58wkjD6c6QlQZxPZLGL+C5SZJJhNkbJfGbBG7cx72aVlhYE35X14YMhKFp6FtEZG3HgWPRUREjoExhsAPII6nndU3EUieCCanEy4RUPGC4woeR8ZQrvpU/IB0wsE5hrQXBjDx1D45jsP8tiJXLFlAR1PumPsgIm8OcRyz5+AAT23ZRT6V4MLudnKvSVETx3F9XDLGjG9eZQMWkYkgjKhUPexkYtJYZYwhjGJ27O/jyee2s+nFXew+0E/VC2jMpkgmHFKpRC2n+vj4UypVKJUq9PUPs2t/H9lsmsZsimpsGB0tTVQMQMKyGOwf5v5HnmXD89uZ09JIV2cbK7o6aMgk6ekPeGFnQByVeNvS4ql/mCJyzKIoxqtWCSsBBgijCIxDmGnBJJtIWD6JsIyTTGMXmgGwHBc7NTubYhrAsWzSCb2IEhE5EQoei4iIHAsDJoyIomjKqSM3ppqYgZxMJWv5jo8xrV9yfEpeqVJlw5YdDHshncUczcU8jfkMqURtufiMfZtSYYL5zY185B0X8Kl3r6Yxlzm2jojIm8bAcIlHnnqJx599mbdfsBizsBWmWRBef+FlWURxjGXb4+krDFFsGB2r4qQmr5LwgpAt2/bx0BMvsHXXAfqHRql6IbYFXhhheT5O6OBYtbosxyKVTWGimNgYKlWPcqXKwKBNFMfjqX3q3cBxLCoVnz29hznYP8y2PS6/2bKLz934Li5euZiuzoiRUkAxrzzIImcSE8eE1SqxHxLH8aTvQBN/5wFJTDpDwnUwdopUKnlMG2ueMsbgOjb5pMIfIiInQqOniIjIMQgrJSxeDQ6/VhxGWI79avqKOMa2bayj7BYO43lIY0OccLEdBxsYGhrjscefw3VsCvkcLU2NdHQ00zW3iZZinkwqiT0xy9li0iZUUItXLyjkWX/t5fzLqy5iXksBy5qYSVjLy2xZ4NjWjDuTi8iZb3C0zKatuzHGcG5XB+mEW98YD3h1xnEcg2XhuA6+5xOaADeRwHFdgqrH0OAY2WyKxoZXZwUGYcTeA/3s2HcIzw/IpBIkHAcMRCZmrOxj2xYJx8a2LVzXJeE62LaFY9s4Sbv27syyqHo+URwTRrV+5NMpmvNZUgkH13YwxtBzeJjeoVFuGLyYbMohn0nQ0ZyehacqIkcTxwY/CGt51sfHGnt8s0wT1zbGNFFMGMZUgpjIG6WzvYXZjB1bQMp1mFNUCi8RkROh4LGIiMgMwjBitFzFDyISmCn/p/naILKJYrBtMBB4PlEYkohjomx62vQTQRjRP1zipZ09/GrDVjbvOEAcRWRSSYrpJGEYUalU2Vep0nPwMJuTCXLZNK1NDbS1FmltzJLNpilXvNpS8InJhcBcxyYYHGPLK/voHxihtamRpJtge0+V3kGfhnxMZ1MD53UXTs3DE5FTz7JIJRMMDI/ywq4DBJ5HQzaF7dikXIdCLo1t27U8x07thZPruoRBQOzUXnARGyrlCv3DJVpbCrjjY5UF9ZdLloEoNiQTDq5tYyyL2NSC0kEYEkQxFb9am93nOiRch6TrYFsWiWSCih+w+9Agrm2RTCTobC2STSbIpBJYlsWBwRF2HhwgDKNJM5RF5MxijKFcrkAU11diHTmj2HJqn+PxY3GlihfB2FiGxsZjT59ljvhkjHljs5bHx8n5LY0snttw4vWIiJzFFDwWERGZRhjF7D04wKMbXmas4rFm9WLmFKf+6DgygBwbgwNYtgVxbflmNYwxY1WKhdykMuWqz7Y9B/nN5h1sfmkvew8OUPUC0imXVMLFdR3chItxJja3iql6Pp4fMDQyxu79fWRSCdK5LH2Hh6YEsiM/ZOOWHezY00uhIcu8uc0sO6edC5YtxrItRkoB+/uqCh6LvInlMikuWNVNw/5GNr28j8c3ba+nt2kt5nj3Zedy/jlz6tdb47OPLWt8hqBlsFyH0MCh/mHmtbdQHJ99bNsWrm2TTiWpVAP6+4exbIvWhiwJx8ECHNsmlc3UAj2mtgrC8wPKVZ9yxcd1baxylbGqj4ljEm6SpOtgJS3ymSRhGLO9t589fUNEcUwy4Wo1hMiZLjaTUlVMOPJ7yESwN5vLkrMsjvWVkD0eNg7CiJ6+QZqaGmjKpkinU7iu/eqqqxlEr+2XZZNNJnjbknnccNl5tBbyx9gTERE5koLHIiIi06h6Ps9u3cPjz7zMeUvnk7KPfr1l25goJAxDHKe20V0cxYyVKpS84DXBY9h3cICHntzC5m37GRkrU/UDLKs2u69c9fGCsBZkGQ/2OInabD5DbRMr3w/xg5CB4bHakvQjZJMJbGB0rIrnBfQPjbF190H29Q/xvivOY05LFs+PeZ2MGiJyhku6DrmESz6XIbmgnYQNKcemb2CEHbsOsGVbD4vnNpF2bUwUY+xaah3LtrHGxzTbAtdx2DM4RrlcpZDPEBtD1Q/BcZg7t4WWliKtrUXK1Wot/U0Q4Vf9+kailm3hOi6WZZHNpGjMZ4jCGM/3xxdFWICFGU/nk0w4jFZ9dvQOcGhwFINhbjHPOy9axoquztnNjSoiM4qDAKJo2uAxjOc8tmppLIwx2LaN47rHnLIiOb5RsB8EvLhtHwf6R2jKp2kuNNBczNNUyFPMp8mmk/VVEkeTyaS4etUifvea1ay5cAnplDbMExE5EQoei4iITMMLQvYe6MfzAy5e2U02kyaO43o+0Um5RKGWrziyCDwfO52qbZYXxZQqFcqBYVFXxxG1G8bKVQ4PjhLHhkwyQSrhYiJDEEd4fkjsQ8WycF0bx7YnLQF3bBvHtbBtGz+KGBkp4QcRsTHkMykaUkny6SSJ8eDz4ZES23r6yGSTYEE25ZJNzcJDFZGTyrLGX1wBtmPjODZtTXmaG3P09Q9zsH+IsueRdmsbZk6MXbZtHxH8sUjYMDo8xnC5StEL6BsaZeeBAXoGS7ipJG4K5qRThEFIFMcEQUDoBZQ8n8AL8H2fKIqJo9pKiSisLWd3HIfYGBpzGZoac1gYyp7P/r5hdh8aYGC0gm1bzG1u5P2Xr+LD77uUxQvmKHgscoby/ADGZ/9Ot/+DMXEt58R48DgMAuI4ft2gQxhF9A2M8sKO/ezvGySMYpKOw0D/MIcPD+LaB0klE+TyWZobsxQbc7QU8xQLeQq5NKmkSxjHU3YPnp9J8c7F8zi3sxUAP4ywsNl5oMRwKSSfM8wp5Ggt6EuRiMjRKHgsIiIyDddxaGpqwHZsfvHos1zQNZe2Yp5kwiGZcGhvytOQy04qk0glAWqBk/Hgh+V7DI4FDI6UKDZk60GRhFObSRyHEaWKj2VbZFMJkrZLPlsL9Ph+gB9GBGFEuTq+OZXn4zo2rm2TSNRm+m070E9gDI3pFJ0tRdKuU7vGsTkwMMLLPYfxgxCM4XUmUIvIm4hj27gJlyg2tdQ2UUzZD2lKu+RyGQZHxhgpVWnKpqcEZCdmBloWZFIJTBRxqH8E3w/Z3TdE38AIftUn78RYGGLHInBcAmNhsmlMFJGLIuIwolrx8PwAz/MJ/QjP94ljgxcE9I+WSboObYU8zcU8OA49A3s4PFLCdV26O9u47u2r+O1rVrNycSeZ8XFURM4MpYrH1l299A2OsqKzmeZ8ZtL5175Uf3X/BYtwfJayZVlUKlUymambYI6Wq2zetp8Nz+/guZf3cHBghIRjk8w6ZFJJIgxxGBNEMf39wxw+PISbcMikUzTkMhRyafJNBQ4dGsDEE9Hj2n9zxvDKy3uojJRoa2qke34bHa1FbDvL/sM+QW+EbZX58Lvmn6rHJyLylqDgsYiIyDRc1+acea287cJlHDw4wOMv7sG2IAxj4jDk3CUL+PBVq3jtokk3kSCKQjBguw4kU4xVShwaGKUhlx5fZmlh2RaZdJJCIU8lCBmpeDiOTdq1iMMAgITr1gPElmURRREVPyCKYqIoxA9DImNIJxxytkPKdXEci3QyQRTF7OgdYF//MHEc05hL095a1Iw+kbcQx7FpSCdwjsgpWg5Ccq5NOpngkBcwVPZZaNtEQUDCsmqbeo4zxmBiQybhMKeYpnffPsbSCapBQEMcsSAb0ZKMGU/jTk/ZYVclgWcsLMch5TiQhFQqRWxqeVDDIKRa8ahWPYZGS/gDo3hBSC6VpBDVgtVeXFvOvmRBGx/7Z1fwwasvYmF7Cwn39Zehi8jp4wchW3ce4OcPP0MYxywsXEghk5z2u0RtJrJFZCKs8RQ1jlPbsHM0MJSHy8x7TfC4b2CEXz37Ck9s2sbOfX0MjpaxAJIufhjWv/9YloXt2jgJhziMAcPoWJmRkRI9toXrHqRUqU56QW4BcWTYtf8wPQeHyKQTFAo5Fi9s5+Z/+T7aWmL6h33K1ejUPUARkbcIBY9FRESmYVsWifF0EcWWIi2tRfIplygI2fLyXja/vIf3vG0xrQ3p2kZRsantMm7VUlhMSFngBxF9AyN0z2slMBHDpQqDY1Uy+TwdbpKW1iJjpTJxbAiCkKDqE4QRQRgyERGa+PHUkMuAMURhTGxiotjQ0VwkimppK4yBsuezs3eAvpEScRwzt6mBq962jBvfcwmOgjMibxmuZZFKJIiOWD5erQZEmSSFYp7Szh56B8dYeY7BMoYgDHASta//cRzjVapUqx6ObdM9t5nefbs4zx2kpbEWgrGAvgr0BCmKScOSvE85dthXtcbzGNfYjj0etHFIJhNkcxlMbGjHMK+9lYHh0VqOZMZXtDsWyxbM4YsfeS+/fc3F5GYIRonI7PKDiK07eti1v4/3XrmK5ny6nvbmyLQVE59tp3Yu8H2SyWQtrY6J8MZGGfUj5rU3T6r//2fvzqOkvO8737+ftfbqruqN7qbZESAQQou1IiRkS7LkfZmxncRJnMSWc27OmSQn58ZOJomTycTJZJLMnbmTeIvtm8V2Fjl2xpYlZO1YtixrBWQkhNgbeq3qrq712e4fBYgWSAIEVC+f1zmco366+qlvl+ii+lO/5/MbKU6x7YV9HBoqYJiQTrjH92Oo1hpUax4x28I0m/s/2I6NbRiYpnXC1RMGnudjGQZ+0KyusE2LrmyShGtjmSamaTBVrfPykXGOTEzxmz97K30dCfo6pq+iFhGRU1N4LCIickoGpmURYkAUEdIMhbvb04wWSjz70z2MFkt0pGMYGERHL5E8MQCJoghMEzP0GS2UKJYqlCrNX14ODRXwwgjHdXBch3g8RkREGEZEnkep4eFX69RrHvVGA98PiIBGvXH8/H7YjGJymSSOY+N5Pi8fHmXXoWGK5RqWZbFoQQe3XLmaD99+DetXDmCZKq4QmSsM08S2TaYVfQYBURTRkU4Qs0yKhUkC3yfhOHieR+D5WI7d3EAvinAcG9u2sRwH/F68xhDjXjPoNYC6aVMLDXaUXGoBTPomEQYmEXErIm4eu9uQamTiRwbh0asrDAwy7RlicZfSRIkgiHDDkGvWLed9mzbwtqsvJqngWGTGiojwjtZO1OoeB8dKZKoelmViGQapuINt20efgqKjz0kWjXqA7wfYjg0094MYnahSrTVIxE+opjn6prdtmgRB88op2zSbmwOHzc8FfoAXhkSeD5U6pmkQcx2soxVe9tFQ+eBogbrXXJXc2ZYm4djNOjDHplL3ODBa4Mj4JG1ZBcYiImdK4bGIiMgpmAY4lonBsT4/qDZ8fM8nGY9RqTU4Mj7JRf0dJwUfxzfTiyLirk02bjM8OcWuPYc5XKowMlqEMCJnB1hmM/SpWSZV38C3TXBsnGQC2iICz6darVOrN/BqHrVGnXrDp97wODw+Sa1eZ6ArR1cuQyIVY6xUYXSygmPbLO7t4L2bNvChW67ioiULsC0FxyJziWWZuI5NzLaoHa2g8CKo+CHJmEsmlWCsVGGq1iDhNl/2B2GAhU1Ec/VxGEYQhiSpYyYthhsZBks1qn7zLbEwAj80KAUW9bD5VlnKCumN+QzEPdqdkIiIWmgwXrcYajgMezbV4Gi/O5DLpVna00617mOYJsv6O9mwahG5bPI1vzcRaT3bMhno7WTlioW8dHCEXXsHiTk2pmEQd20uXt7P9WsXT/sa07JwYy6BHzSvyjINItNgqlxjaHySgZ481tHXI7bd3P/Bsk2mJutM1Rrk00mSMQfHbD6HWK7TrMU52q0chhHVerNX3TKNo+cymJiqgmmSjrm0pxLEHItkzGFkosze4QLjpQpBGGFaFnq7SkTkzCg8FhEROQXDMEjFXWKORenoMT8MqQYhMdfGtCxGJqrUQogZIUYYYh2tqzi2eUzg+URhSFc2ycTUEKMHdpO0DRbHIWMGdMZCHBMs02C0Bi+UYxypG2AYzUvADQMz5uLEXLJHZ6iVq9QaHqWpClXPZzgICIIIzwuxzQjsZsfgsv5Ofu72a/jAW69k0YK8VhyLzEGObRF3bVzXpu4Fx6+AqNQaGK5NJp1gfLJCcapGb0cbYRASHdtcr1Kh0Wjg+yERHomwQNYrYxkhbsJkwjOoBlALDBqGiWk0r35IWSE9sYBF8TopuxnkhGFE3TAxXQCDSmhSDyxcy6S/M8PqpX3ks8lmcGMaZFMJknFtjCcy05mGSTYVpyvfhuO6hGFI3IRKtc6eA8OMTFRZt6yXjHP09Y/ZrJEwTBPzaNJgGAYJy6QaRhwZLdLX2XY8PA7CiLa2DAOY5NoyjJfLGGEEEXh1r9mj7vtggG3bx6sqkqkYRhhRb/iEQUAjCGlLJgnDENMwcR2LVMJl/0iRvUMFpqp1HMtkUXeed19/KabeTBcROSMKj0VERE7BNAxsyyQ88WpwP8T3A7LZFI7rcnBonHLdI55wCXy/+UvL0V9svHqDWq0OQGc+i1ev0N4YYSAVYB1d8lL2DfZXbXws4mZAux0w3rBoHL3PE7a1as5hGCTSSeJRRHsuy4LuDgqlKWpT1eYKH8B1HNYsXsAn338T79l8OZ3t6QvzgIlIS8RjDq5tYZ6waV613ty0M+Y6HBkuMFqcIlrUjWlbNOoNgmoV32uAYdAolzAa41ixOs3r0vwAACAASURBVA4+rgVtCZMwYRJEzdr1mh8SRAY+BjEjJO0Y2IQUfYvBqk3ZN6hGJoWGQzkwmAoMYrbJ8gU5LluzmI72DLb61kVmn+b72Rg0w1vLNGhLugz05KnXPXbvO8xYoURmQQ7C5tUPkdEMkI+9Hmqex8AOAoZGJ2n4ATXP5+BIkV0HRqkbJqlMilQmRXslQxhF1D0fr1an1vCoVusEQYjX8AhoXr1wjG1bRJaJA6ST8Wbfsh8wWa6xe3CUAyNFKg2fhGuzdmkfH771Ku644VJcRzGIiMiZ0LOmiIjIqRjNzVkss7lR3bHVxH4YkU269HVkGS2UqFZqGMlYc8OWeoPYCTuJW5aJZTU3denuyFGfDNhdLeEFIaYBQWQw6ZuMNhxqoUPZN/AjA8eIaLMD8m7zdl4QUQ5MpgKTamhxbF9wJ+bQFqVoT8QoV2r4YcS165Zx/SXLueXatbSl1esnMtfFHIdkIkahVD1+LIoiyrUG1SCi4QUcGZ2gVquTTCbwPZ/J8SKJVJLQ9zErw6So4cZNTOPopeSGgXHCyrxs7IS3ssJm13LJd3l60mZP2WbKbz4/2kcvH8/EbNYv7+eqdUsxjz6Hisjscyw0jgyTIAgIAijXDXKpOLm2FNWGz+DYBANdWSxj+mreYxv9hmGIadskHZOxiSkOHBlnfKrKvqFxJktVrDDAOVrh5aRiBCEkDAOCJFU/IPI86vVmiFxveAR+SL3RIAxCgjBkqlan4Qd0tqXJphJgGOwbKfDykTEafkgum+KKVYv4wObLuW3jehbks6f4TkVE5PUoPBYRETkFyzSIOTZxx8K0zOMre+tegB8E9PXkeOb5vYxNVujraMM0TIKwGetGYYjnec1N7sKQpBWSi6YYNyOGfJfxekgjhDBshsXV0KQaGLhmRLsT0BfzGEj4dLk+BtCIYLJhMFx32V93GPVsggjsKKSrM8vC7nbqDY8Ig+58hjVLe0kn46/7/YnI3OA4FrlknEPR9OPG0U7SgIjBwhQT5RqpVJJYPEZ7Zx7TNKmPj5FO2GTdFFbMJsDCMSEyTEInzvHrzo8Jm1U8hu0wUk/hN3zSZg2z4dPwj23UF+fyFf2sXLLg+KXpIjI7GYZB3LFxT/hZ9vyQSt3DsS3CMOLI+BR+CKYZEYXhtEqIKGoesw3oyMQYnRrn5d17qPkBQbVO3gjJZwLiVnOviYmGwaGqRTGwwbJIWBbEXBLJkHSm+for9EOq1Rq1ukelUmWsVGGsVCZmW8Qdm1giRs0P8PyQbDrBpg0r+dCtV7Fxw0o62lKteBhFRGY9hcciIiKnYBgGrmPhxJo7hR/T8AOKlTod7Rn8IGBofJK1Sxfg2BZBI8D3PDzPo1Gr0vBDonqdhFUi3hhjAZBN2pTiJpOeQS2ASmBSC5qXm7tGRE88ZGGsQdqOqARQb4QEGGC4pKyIhA2m19zMb6CrnfWrFjHQneNYbmSahvqNReaRZMylN5/hxYPDxzeUgmZoY9sWrmMzOlFmqFhmQWc7hmHguA61aq0ZFi9YiZPLYMZjmIYBRnMzKQuITItXnv8ijGNvkJk2CyODjrrPeKlMYaLCkfFJojBk3Yp++rvadVm4yBxgGhCzLUzrlddBQRhS8wISyQSm63BouEDJC8nHLALPwz76sx9FEb7nUavWCQKfrvYM5akSmfoQA2kDK9V8ngmjiKGGhWlaLHB9bMOlMmXRiF65T8M0cVwTBweAZDpB4AcEQUhHRzvDhQkMP8QwDcIwwjCbvcfvuHYdd35wM+uW95OIOboKQkTkLOlVnYiIyGtwLIuE4+BYBoHfPOYHIeWaT9wE27IYHJmgUm0QzyYxbYtKqdzsCDQtonqFemEQOxPgHq37jJk+HaYJRxslvDAkiiIakYlBRNw0MAwoNEx2lR2KnkUtNJjwbKqhQS00SDoWy3vzXLFmEZ35ttY8OCIyIzi2xUBPjosX9TA4Nkmp1rycu+4HOI5DMpUkCAIm6x6mZYFlQhhiNkxy+XbaO9pwXRfDOrNO4gQQi7mkkzF6O9pYvrALw2j2jjrqNxaZIwws+1VvSIcRBAGZZIyOdJwjI0Vq5Qpmoo3QMPAbHk7MJYqam3MaBriuS8wy6V/QjTnp4RrNzTmbpzMJMTlYtamFNiXP5MQLKeLH7j4KaYQG4dE6DNuxsR1wYw7Z9gylwgRTU1WCKCLXluJj79rIJ953I0sXdhHTm1kiIm+KnkVFREReg2WZpJMxDKavVPGDgKIX4rgOI8UpxifLdLancRyHulkjCkIs28asj9Nh1UmY5vFgxgCwXYyj3YDu0XO6AGEAhkElctleMtldNpj0m6t8rKOrZTrScdYs6mHtyn4yqqYQESCTinP56gH6x0uMFacoTNWYqtSYqjcwiTCjiN6eDtLt2eaTUASpbBoDA+tNhCqmYeA6Nq5jk0rEzt03JCIzgmEYOLZNzLGxLJMgCAmBShCRtSz6ujvY9sI+JspVevMZwMD3fZxY89VNBMf3jHCBfMxgLNbOU+Mmk/UAw4AoaubRU75FJTTxwgjTgLwTMBD36It7WIZBPYRJz2S4YTPi2ZT9ZshsAk4UsnJxD5VKHT+Cazas5Op1y7hocU/LHjsRkblE4bGIiMhrsC2LfCpBRHQ8cDn+OdMkkXApTFUZmSizLAixLZN0NkMQBJRLU9jxFJl8Bjthg+WAYWAaBqHpEJnW0UvCm4zQhzAkMi28KEY+BUG2QnGqxmSlRrVWp7s9zbplvSzr7yIRd08eWETmJcMwyCTjZJJxVizsAmB8skK5VqdcqZOMuwwsyDdrKY7T6mAReX2maRBzbeJuc/PfIGiuFvb9gKlqnc5cmobnMzhWYvnCbuK2heeFzc3sAp9apYIfhBhBQMxukKyNYAQ+UQySBpQ8Ay80qEcmrhkBATEnOh4c98R8YmZIEEQEGGRMi6QRgWHQCE2CCNoSLssGFrKsr5MgDImi5htqne3p1j54IiJziMJjERGR1+A4Ft35DF2ZBEeKEUHY/KUpIiIKI9LJOEdGJjgyXqLW8EgnYs2dxYOQEINk90KSuQxWKkmzy8IAjOORTXRCkGNEx5Jpg3YMMlFEqVJnslxlfKJMpdZgcW8HCzqy6hIVkZO8usuzoy2lzaFE5E2zLQvXdbBMA+/oMS8ImKw2cF0H2zYZHClSb3gkUwmMIKBWqRABYRDg1xvUJsZoT9RwqeAC6ZjJorhJIzTww4hGCF4IXmRgGhFZOyJjRYREHKo5lBoG9chgMnCY8k0KR1cdd2USXLK8j2UDPWRSuhpLROR80W+fIiIir8E0DDrb01yxZhG7D44xNjlFpeFTb/hU6x6ZtizFiQoBBpbjYCcTEEWYlkUsHiOTb8Oy7dfcoOW1tm2xjv7JZy1y2SSLFuSPz6PNXkRERORCsS2TVNydthlvFEGt4VMJI9xYjJHxSYqTZfKZJI7rMDFVIQp87FiMaGKYRK1APN6sA4PmaxzTNmm+vWW8stEnBscu9goMm+cnTbYXXYqegRdGYBztQzYMFndmuXLNEvq727HVsy4icl4pPBYREXkdhmGwYmE3HW1pChNliqUqk5UqhXKNesOnL5dm7fI+8p054jHnnN+30fyPc3peERERkdNhmgaZeOxVtTevfC6ddBmeqDAyUWFxb4RtWbTl2vB9D9/ziBke7W0Wrg3YDmBgGRG+k8CwT67givwGkWkxHqY4XDHxYnXAxwyjZo1YEHLJok4uW72EznzmvH//IiKi8FhEROS05DJJcpkkANW6R63hUW94EEEumyTmntvgWERERKTVHMuiqz1FzLGoWCZBeLRm6+hq4VQqwfDIBEcKJeoNHzvhYlomFjaVSg2jrQ8nl8bKxDFMGwwTDPNoEGEQma9EEkbYLMaIDJM8Ftf7EeOlCmPFMsOFEsVSmRULu1i5qIdcVrU8IiIXisJjERGRM5SIOSTO8SpjERERkZnGskw62tNcvLiblw6NM1Wr4wUhfhDieT7ZTIrhsRKlSh0vDDHtZsQQhiGxeJx0WyepdALLjZ3GvSVeuV8gBiQSMbpzGZb0deD7AZlUnFTidM4lIiLnisJjERERERERETmluOuwbnk/He0ZRgslilPV5qa+1TqphEsUhPT2dJDNZUmlm1dpRWGSKIqwXQfzhL7kM+XaFq5tKTAWEWkhhcciIiIiIiIi8pqScZclvXkW9eQIw5CpaoNSpUa5Vsdbs4iFPXly2RSmqX0aRETmGoXHIiIiIiIiIvK6LNPEMgEsYq5DR5t6h0VE5oOzv35ERERERETmpJ8erjBe9lo9hoiIiIi0mMJjEREREZEZ5p/+6Wstud+GH/EPPzrCn9y9l39+YrglM4iIiIjIzKHaChERERGRGSaZTF7w+9w9XOXzjwwyWKxz9dIsH712wQWfQURERERmFoXHIiIiIiLzWBBGfPuZUb719AiZuM1v3DLAFYszrR5LRERERGYAhcciIjLv9Pf1kcvlWjrDo7uKPHewzG1r86zoTrR0FhGZvw6M1/n8w4fYO1bj6qVZPraxl3TMavVYIiIiIjJDKDwWEZF55z3veXerR6BQ8XlyX4kf7p5geVeCW9fmuXpZFts0Wj2aiMwDQRhx97Yx7npyhJhj8qs39XP9irZWjyUiIiIiM4zCYxERkRZ496WdvG1NnkdfLHLPjjH+5qFDfO3xITZd1M4tF+fIp5xWjygic9ShYp3PPTTIntEqGwbS/PINfeSS+rVARERERE6mV4kiIiItknRNbluX59a1eZ4+UGLLjnG+8+wo39s2xhWLM7x9XZ6VPRd+0ywRmZuiCLbsGOfrTwzhWga/tLGXm1e3tsJHROavkZJHV0ZvlouIzHRGFEVRq4cQERGRpn1jNe7/aYGtL03Q8EOWdsa5bW0H1y7PYqnSQkTO0kjJ4/MPH2LnkQqX9Kf5+KZeXeEgMo/V63XCMCSRaM2+C9sOTfHf7z3Af3rrQi7XBp0iIjOawmMREZEZqNIIePTFCe7ePsbYlEdbwuata3K87eI82bg2sxKR0xMBD+4s8LXHhwgj+NCV3dy6Lo/eihKRVqk0Qj79zd2YBnz2/cuJO2arRxIRkdeh8FhERGQGiyKOV1psP1TGtgyuWJTh9ks6WNHdmtVCIjI7jE55fOGRQZ4fLHNRT5I7b+yjJ+u2eiwRmee+8Mggj+4q8jt3LGZNb6rV44iIyBtQeCwiIjJL7B2t8cDOAltfKtLwI1VaiMhrenzPJF/eehgvCHnfZV28c30nhp4mRKTFth8q82ff28eta/N89NoFrR5HREROg8JjERGRWWay6vPwi0W+/3yBsbJHe9Lm5tU5brk4T0aVFiLz2kTV52+3HuapfSVWdCe488Z+etu02lhEWq/SCPn0XbsxTdVViIjMJgqPRUREZik/jHhyX4l7t4/z4lAF2zK4ZmmWO9Z3sCgfb/V4InKBPb5nkq9sPUzVC3nPhk7ee1kXuihBRGaKzz18iB+8NMHv3LGENb3JVo8jIiKnSeGxiIjIHLBntMaDOws8uquIF0Rc1JPktnV5rlycUaWFyBw3WfX5yg+O8MTeSRbl49x5Yx+LO/QGkojMHE/vL/EXWw5w+7oOfvaanlaPIyIiZ0DhsYiIyBwyUfV55MUiW54fp1D26co43Lw6x+bVOdIxVVqIzDXPHJjiS48OUqoF3HFJBx+4ogtbbxiJyAxSaQR86q6XsU2Dz35gGTFbdRUiIrOJwmMREZE56FilxT3bxtg1XMWxDK5emuWdl3ayMBdr9Xgi8iZVGgHf+PEwD+wssDAX484b+1jamWj1WCIiJ/mbhw7x2O4J/vM7lrBqgeoqRERmG4XHIiIic9ye0Rr3bh/jhy9PEoSvVFq8ZUlWfagis9BzB6f40qOHKVQ8br04z4ev6sGx9MMsIjPPU/tL/OWWA7zjkg4+crXqKkREZiOFxyIiIvNEseLzwM4C9z0/TqkW0JN1uWlVOzevzpFSpYXIjFf1Qr7++BAP7izQlXH5xI19rNYqPhGZoabqAb/9r7tJuib/9X3LcW29ySUiMhspPBYREZlnvCDi8ZcnuXvbGPvHa8Qdk+uWt3Hbujz97aq0EJmJXjhS4QuPDDI82WDz6hw/e02PekNFZEb73w8e4kcvq65CRGS2U3gsIiIyj51YaRGGEWv7U2xenVOlhcgM0fAj/u3pEb7z3CgdKYdPbOrj4r5Uq8cSEXldT+4r8Vf3HeBdl3byobd0t3ocERF5ExQei4iICIWKz4M7C2zZMc5U/ZVKi7euyZF0VWkh0gq7hqt8/uFDHJlosHFFG794fS9xR6uNRWRmK9UCPnXXblIxi//6vmXqZBcRmeUUHouIiMhxxyotvrttlAPj9eOVFm9fl6dPlRYiF4QXRHzzqRG++9wombjNL9/Qy+WLMq0eS0TktPyvBw7yk70lfv9dS1jelWj1OCIi8iYpPBYREZFTeuFIhS07xvnJvhJhFLG2L8Wta/NctiiD1hCJnB/7x2t87qFB9o/XuHpplo9t7CWtDS1FZJY4Vlfx7g2d/McrVVchIjIXKDwWERGR1zVcavDgziIP7iwwVQ9Y0OZyy5o8N61u14ZdIudIEEbcvW2Mu54cIRmz+Nj1C3jLkmyrxxIROW2lWsBv37WbtOoqRETmFIXHIiIiclpqXshjuyfYsmOcg4U6Ccdk00XtvH1dB10Zp9XjicxaBwt1PvfwIfaO1rhqaZZfvL6XbFyrjUVkdvmf9x/kyX0l/uBdS1imugoRkTlD4bGIiIicsWOVFk/snSQCVVqInIXjq42fGsG1TD58VTc3r861eiwRkTP2w90T/O8HD/Hey7r44BVdrR5HRETOIYXHIiIictaGJhs89EKRB3YWKNcDettc3rYmz+bV7biqtBB5TUOTDb7wyCAvHKmwfmGaj9/QRy5lt3osEZEzNlkL+NRdu8nELP5YdRUiInOOwmMRERF5045VWtyzfZzBYp2ka3LDynZuv6SDzrQqLUSOiYAHdxb4xx8NYRrwkat72Lw6pxX7IjJr/T/3H+SpfSU+8+4lLO1UXYWIyFyj8FhERETOmSiCHYNl7t0xzjP7S2DAhoEMt63Ns64/1erxRFpqpOTxxUcGef5wmVULknxiUx89WbfVY4mInLUfvDTB3zx0iPdf3sX7L1ddhYjIXKTwWERERM6LIxMN7nt+nIdfLFLzQpZ0xLl5TY6NK9pxba2zlPnj2Grjrz0+RBhFvO+yLt65vhNDPwYiMosVKz6fums3+ZTDH713KbapJzURkblI4bGIiIicV1Uv5IcnVFpkEzY3XtTO2y7O0ZFSpYXMbcWKz99uPczT+0us7E5w5439LGjTamMRmf3+x/cP8PT+KT7z7qUs7Yy3ehwRETlPFB6LiIjIBfHqSgvDgEtVaSFz2ON7JvnK1sPU/ZD3X97FO9Z3ooV5IjIXbN01wecePsQHr+jivZeprkJEZC5TeCwiIiIX3LFKi4deKFL3Q5Z0xrl5dY4bVrZrl3aZ9SaqPl/eepgn95VYlI/zyZv6WJTXqjwRmRsKFZ9P37WbjrTDH71nKZbeFRMRmdMUHouIiEjLVBohj75Y5J4dY4yUPNoSNpsuaueWi3PkVWkhs9Djeyb56g8OU2mE3HFJBx+8okvBiojMKX913wGePTDFf3nvMgbysVaPIyIi55nCYxEREWm5KIKnD5TYsmOcHYfKWKbBFYszvH1dnpU9yVaPJ/KGKo2Av3vsCFtfmmBhLsYnb+xniTpARWSOeeTFIl94ZJD/eGU3797Q2epxRETkAlB4LCIiIjPKvrEa9/+0wNaXJmj4IUs749y2toNrl2e1glNmpGcPTPGlRweZrAXccUkH77+8S/UrIjLnFCo+n7prN11phz9UXYWIyLyh8FhERERmpEoj4NEXJ7h7+xhjU69UWty6Nk8uabd6PBEqjZBv/HiIB3YW6Mm6fGJTH6sWaKW8iMxNf37vfnYMlvnj9y5jYU51FSIi84XCYxEREZnRTqy02H6ojH200uL2SzpY0Z1o9XgyT20/VOaLjwwyXvbYvDrHz17TQ8w2Wz2WiMh58dALRb706CAfeks377pUdRUiIvOJwmMRERGZNfaO1nhgZ4GtLxVp+JEqLeSCa/gh//TEMFt2jNOZcfjEpj7W9KZaPZaIyHlTKPv89l276W13+YN3LUX/3IqIzC8Kj0VERGTWmaz6PPxike8/X2Cs7NGetLl5dY5bLs6TiVutHk/mqF1DFT7/yCBDEw02r87xM1f3EHe02lhE5q4I+PN79vP8YdVViIjMVwqPRUREZNbyw4gn95W4d/s4Lw5VsC2Da5ZmuWN9B4vy8VaPJ3OEF0R886kRvvPcKG0Jm1/e2MtlizKtHktE5Lx7YGeBL289zEeu7uEdl3S0ehwREWkBhcciIiIyJ+wZrfHgzgKP7iriBREX9SS5bV2eKxdnVGkhZ233cJXPPzLIYLHO1UuzfGxjL+mYVreLyNw3OuXxqbt2szAX4/dVVyEiMm8pPBYREZE5ZaLq88iLRbY8P06h7JNL2mxenePWtXmFfnLagjDi28+M8q2nR8jEbX5pYy9XLNZqYxGZHyLgv31vPzuPlPnj9y2jv111FSIi85XCYxEREZmTjlVa3LNtjF3DVRzL4OqlWd55aac6G+V1HRiv8/mHD7F3rMbVS7P84vW96tIWkXnl+88X+Opjh/nZa3q4fZ3qKkRE5jOFxyIiIjLn7Rmtce/2MX748iRB+EqlxVuWZHUZrhwXhBF3bxvjridHcG2Tn79uARtXtLV6LBGRC2qk5PHpb+5mIBfj91RXISIy7yk8FhERkXmjWPF5YGeB+54fp1QL6M64bF7dzs2rc6RUaTGvHSrW+dxDg+wZrXLpQJpfuaGPXNJu9VgiIhdUBPzZ9/bx4lCVP3nfMha0ua0eSUREWkzhsYiIiMw7XhDx+MuT3L1tjP3jNeKOyXXL27h1bV6VFvNMFMGDLxT4hx8NYZvw4at6uHl1rtVjiYi0xJYd4/zdD4/w0WsXcNvafKvHERGRGUDhsYiIiMxrJ1ZahGHE2v4Um1fnVGkxD4yUPL7wyCF+erjCuv4UH9/UR0fKafVYIiItcayuYlE+zu+9cwmG/g0UEREUHouIiIgAUKj4PLizwJYd40zVA3qyLjetaueta3IkXVVazCUR8ODOAl97fIgwgg9d2c2t6/IoJxGR+SqK4E/u3svukRqfff8yerKqqxARkSaFxyIiIiInOFZp8d1toxwYrx+vtHj7ujx97aq0mO1Gpzy++MggOwbLrOxJcuemPnV6isi8d8/2cf7hR0f4hesWcMvFqqsQEZFXKDwWEREReQ0vHKmwZcc4P9lXIowi1valuHVtnssWZbRKdRZ6fM8kX956mIYf8v7Lu3jn+k5dli0i895wqcHvfPNllnUm+PQ7FuvfNxERmUbhsYiIiMgbGC41eHBnkQd3FpiqByxoc7llTZ6bVrcTs81WjydvYKLq87dbD/PUvhLLuxPcualPq8hFRGjWVfzxd/eyd7TGn6iuQkRETkHhsYiIiMhpqnkhj+2eYMuOcQ4W6iQck00XtfP2dR10ZbTR2kz0+J5JvrL1MFUv5D0bOnnvZV3aCFFE5Ki7t43xtceH+Nj1vbx1Ta7V44iIyAyk8FhERETkLByrtHhi7yQRqNJihpmsBXxl62Ge2DvJQD7GnTf2s6Qj3uqxRERmjMMTDX7333azojvJp+9QXYWIiJyawmMRERGRN2FossFDLxR5YGeBcj2gt83lbWvybF7djqtKi5Z45sAUX3p0kFIt4I5LOvjAFV3YWm4sInLciXUVn/3AMrozqqsQEZFTU3gsIiIicg4cq7S4Z/s4g8U6SdfkhpXt3H5JB51pVVpcCJVGyDd+PMQDOwv0t8f45E19LO1MtHosEZEZ5zvPjfGNHw/xyxt72bxadRUiIvLaFB6LiIiInENRBDsGy9y7Y5xn9pfAgA0DGW5bm2ddf6rV481Zzx2c4kuPHqZQ8di8KsfPXdOjld8iIqcwWKzzn7/1Miu7k3xKdRUiIvIGFB6LiIjIWYv8OjQqRL4HYfDKJwwDs23B9BsHHmFp9Kzux0h3YNjTL6kNJ440k9ozPVc8gxFPTz9XeRy8+pkPZscw0/lph6J6mag6CcDYlMfjL0/y5P4SDT+kty3GW5Zm2DCQwbFO/nXdbO+dfuCcP2ZDEIVnfq54GiOemX6ucgG82pkP9gaP2Zmqp3r4+uNDPLizQGfG4c6NPVyUKp/VuU75mE0OQXhuHrOoUiBqnM1j5mKmO6af6008Zif/PfMJSyOv/0VODMNyMGJpMBQ1icxWYQR/+H/2MFio86cfWE6HrowREZE3YLd6ABEREZkloohg/ADByB7C8f2EkyNEjcqpb2uapN75O9MOhaVRqo/87VnddXzjL2DlB6Ydq/3g74j8xhmfy119I85FN0w71thxH8GRXWd8LqtzCfHrfm7aMf/gdho77gMgCWwGNmdPuMF+8PeD/+qTGQapd/3utEPh1NjZP2bXfxSrY/G0Y7XH/o7oLEJyZ9Um3FWbph1r7Pg+wZEXzvhcVsdi4td/dNox/9AOGtu3nPG5AP6g9iGGJj02r87xM1f34FZHqT50lo/ZdT+H1blk2rHaY/9A1Kie8bmci27AXX3jtGONHffjH955xuey8gPEN/7CtGP+4PM0tt17xucCmj+b5iurssNK4fT/npkWZiqP2d6L1bkEq2cFhps8qzlE5ML7znOj7B6u8vFNfQqORUTktCg8FhERkdcV1ct4e36Cf+DZs17pKHK+BGHEp+5YzNq+ZiVIeOY5r5yJMCAsjRCWRvAPPIfZ3kti0y+3eioROQ2DxTr/9tQI6/pTbLqovdXjiIjILKHwWERERE4t9GnsfBhvz08g8Fo9zZwXRfDAzgIbV7Tj2qoFOF1//N5lpOJ6SdsqUkVbKAAAIABJREFUdv/aVo8gIqchCCM+9/AgjmXw8U196jkWEZHTpl1ERERE5NQMk2D4ZQXHF9CXtx7mN/5pF//0xDDjZT3upyMVs1o9wvxlGNj96046HNWm9LwhMsP8n2fHeHmkykevXUBHSnUVIiJy+rRMQ0RERE7NMHHX305t61dP/WnbbW4wlshiWA5Yr2w0ZpxiQy0jlsRefPnZjRJLnXTMHriU6MRN+k6T2dZ70jGrazlGLHOKW7/BuV61iRmAme0+u+/TgN/cMMCWHeN859lRvrdtjE2LTN7ZvZ62xJm/ZDvV92MPXEoUnNS2/IasUz1m3ctO+f/ljbx6szx448dsqh7w/GCZqXpAd8Zl1YLkKxsOvurvmuEmzv7vWfxUj9n65oaQZ8h69aZ0gNW1DM6iH9hM5U4+luk66+/zpMfMib/+uaIQ/DpRo0ZYHieqTgDN7+fVm08ShtSe+BfwG8Su+g+YqZP/f4vIhXWoWOfbz4ywYSDNDStVVyEiImfGiKKz2KZcRERE5o36M9/B3/8MAEYyhzNwCVbPSsy2BSeFUHJu7Burcf9PC2x9aYKGH7K0M85tazu4dnkWy5w/j3kQRty9bYy7nhwh6Zp87Ppe3rI0+8ZfKOdVVC8TjO7FiGewOhZN+1xjx314ux8HwHCTxK/5MGZ7XyvGFBGaz6Of+fe9DE02+NMPLCOvVcciInKGFB6LiIgIRBHeyz/GWXIFWNNXuUaNCrUf/zPOsquxe1crML6AKo2AR1+c4O7tY4xNebQlbDZd1M6ta/PkknP7ArKDhTqff/gQe0ZrbBhI8ys39NE+x7/n2S44sovaj/9p2jHDiRG/7ucx23paNJXI/PbNp0b45lMj/OpN/Vy/oq3V44iIyCyk8FhERERobN+C9/KPsfIDxK7+EIYTb/VIcoIogqcPlNiyY5zth8rYpsEVizPcfkkHK7oTrR7vnAoj+O5zo9z11AiuZfDhq3q4efXJtQ0y81Qf/Sph4eBJx41YmsSmX8JIaNW4yIW0f7zG739rD+sXpvnNWwdaPY6IiMxSCo9FRETmOX/wp9R/ctfxj81sN/FrfubkLlOZEfaO1nhgZ4GtLxVp+NGcqrQYmmzwhUcGeeFIhfUL0/zKDb26xHoWifwG9af+jeDIrpM+Z+UHiF//UTC0X7fIhdCsq9jD0KTHn31gObmUrtwQEZGzo/BYRERkHovqZaoP/A2RV5t23GxbQOLGX2nRVHI6Jqs+D79Y5PvPFxgre7QnbW5eneOWi/Nk4larxzsjEfDgzgL/+KMhTAM+cnUPm1fnmN1R+DwVhdSf+jb+oR0nfcpdsxln5fUtGEpk/rnryRH+7ekR/q/N/Vy7XHUVIiJy9hQei4iIzGP1p/8d/8Bz0w+aFvHrfg4rr0tcZwM/jHhyX4l7t4/z4lAF2zK4ZmmWO9Z3sCg/8+tHRkoeX3xkkOcPl1m1IMknNvXRk3VbPZa8GWFI7fGvE4zsmX7cckje/EmMhIIskfNp31iN3//2Hi4dSPObt+jfchEReXMUHouIiMxTYWmU6kOfbxbqnsBddyvOsqtaNJW8GXtGazy4s8Cju4p4QcRFPUluW5fnysWZGVdpcWy18dceHyKMIt53WRfvXN+p/RjniKhRofrQF4lqpWnH7UUbiG14Z4umEpn7/DDi97+1h/Gyx599cDltCdVViIjIm6PwWEREZJ461apjM7eQxMZfQAne7DZR9XnkxSJbnh+nUPbJJW02r85x69o86VjrKy2KFZ+/3XqYp/eXWNGd4M4b++lt02rjuebVfeoAmCbJt/6aNs8TOQe8IOLRXcVpNT//+uQw33p6lF+7eSHXLNPPmYiIvHkKj0VEROahyKtRufd/QOhPO5644WOYuf4WTSXn2rFKi3u2jbFruIpjGVy9NMs71ncykI+dt/v1ggjHOvUbEI/uKvL3PxzCC0I+eEU3t1/SwQxbFC3nUG3r/0cwfmDaMXf1jTgX3dCiiUTmjsFinf/7X3cfr/ypeiF/8O09bBhI8xuqqxARkXNE4bGIiMg85O97mvqz3512zOpcTPy6j7ZoIjnfXjhSYcuOcX6yr0QYRqztT3Hb2jwbBjJvuNA8CKPTrr2Yqgf8xZYDfPr2xbj2K18zWW2uNn5yX4lF+Th33tjH4o6Z38ksb04w9BK1x78x7ZiZ7iBx86+2aCKRueO5g1P8t3v2A5BwTNJxi7oX8qcfXEF2lm2cKiIiM5cKkEREROahYOTlk47Ziza0YBK5UFYtSLJqQZJixeeBnQXue36cv9hygO6My+bV7WxenXvNSov/ef9BPnhF92mtVr7ryRF2DVW468lhPnJ1DwCP75nkqz84TKUR8q5LO/nAFV3YWm48L1jdyzHimWndx+HUGFGliJFsb+FkIrPfSMk7/t9VL6TqhSztjOMFIaDwWEREzg3rM5/5zGdaPYSIiIhcWI3n7oHglV86MUxil70Lw9T7ynNd3DFZ05vitrUd9LbF2DNa47HdE3z/pwVGpzy6Mi7ZEzZYOlSs8/c/PMKzB6e4bnkbMcd8zXMfnmjwxUcHiSJ4aaTK4o4433xqhG8+NUJP1uW3blvExhVtmOrUnj8Mg6hcICwennbYzPZgti1o0VAic8OP90zy4lB12rFipdl535awdXWHiIicE/oNUUREZJ6JalNEjcq0Y2bbAgz7/HXgyszjWAYbV7axcWUbe0Zr3Lt9jIdfLPLgzgJr+1NsXp3jLUuy3Lt9nIjmCre/+v5BfueOxa/ZZ/z1Hw8RhM1GtCiCv7rvAKYB77q0k/df3vWaXydzm9W7iigMMDOdmOlOjHQeU6uORd60kSnvlMcrjZCvPnaYbMJmw0D6Ak8lIiJzjcJjERGReSYsj510zMx2t2ASmSmWdsb55E39fOCKbr7/03EeeqHI9vsP0tvmMlZ+ZVPFXUMVvvToIJ+8qZ9Xx8DPHy7z1L4Sr3b1siwfeov+fs1nVtcyrK5lrR5DZM4Znjx1eHzZogw/f+0CujLOBZ5IRETmIoXHIiIi80xUr5x0zEy2tWASmWm6Mg4fuaqHD1zexdaXJvjW06M0/HDabX7w0gR97THes6Hz+LEogq/9aOiU5/zR7kluvKjMuv7UeZ1dRGS+GZ1qTPt4aWeCn7umh1ULki2aSERE5qLXLq0TERGRuclvnHxMlRVyAtc2uWlVjtfa0+5ffzLMj/dMHv/40V1F9o7VTnnbCPj8I4co14PzMKmIyPxU80JKtebzai5l80sbe/mj9yxVcCwiIuecVh6LiIjMN+EpQjxTu7LLdD/ZO8noa/RpRsDnHj5ER8phYT7Gvzw5fNJtLNOgM+3QlXHozrgcnmiwojtxnqcWEZkfRkoerm1y29o879nQSfx1NjMVERF5M4woiqJWDyEiIiIXjr/3KerP3T3tmLv+dpwlV7RoojNXa/g8sfMgj+3Yz/7hCYYLUxSnagRh+MZfLKelc/Fa3FT2pONRGBKGAVHo4zdqVIsjxLN5gkadwKvjN2r4jRqB16AZM8v5EHcdOrJJOtuSrFvazcZ1i7looAtjhu5JWH3oi0QnXPVgJjLEr//5Fk4k58tUtcHW7ft4bPs+9h4pMjpZoVY/9RtRcvYsx4UIglNdTSRnLR5z6MwmWdzTznVrF3HD+iWkE26rxxIRaSmFxyIiIvPMbA6PS9U6X7//Ob756PM0PB/HcbFiKUzbwbR0QdW5ZMcSRGFERAhhSBSFRArnZ5Qg8Ai9Ol51ijAM6evM8Ct3vIUbL10640Lkyvf+nMirH//YSLaTfNuvtXAiOdf8IOSuR3bwD/c9S7lWx43HsWMZTFubtsnsEgQeQXWKRr1KKh7jZ9+2ng/euA7b0upuEZmf9FuWiIiIzAoPPbOHv/iXH1CpeSTbu2hr68JJpoEZlpKJXGBhGFCfKjI2fpg/+rsHWLWoi8/8ws305NKtHk3miclynT/46v089/Jh4pk83X2rsePq3pXZzatXmBo5yBe/+wQ/ev4Af/ixt9KWird6LBGRC05vnYmIiMiMFkXwlXue4r/8/QP4Zpyu5etp612Gk8yg4FgETNMike2gY/E6cgsvYvdgkTv/8tts2zPU6tFkHqjWPX79r7/Ltr3D5PpXkVu4SsGxzAlOLElu4UW0969ix74Rfv3//S4VVbCIyDyk8FhERERmtC9/7yf8/ZanSbT3kF+0BtvVpmsip2TQDJGXrqceWfzWX3+PnftHWj2VzHGf/foj7DtSJL9wNfFsvtXjiJxziWye3KI1HBiZ5LP/+HCrxxERueAUHouIiMiM9fCze/ja/c+SzvfS3rsMY6YVuYrMQJbjklt0MYbj8Lt/ex+jE5VWjyRz1E9eOMTW5/aS7Vlyyg02ReYKN5Eh072YH2zfxxM7D7Z6HBGRC0rhsYiIiMxIxakaf/aNR4kl28kuWNzqcURmFdO0aV+4mslqg7/+9o9aPY7MUV+552nceJJUvqfVo4icd6l8D7F4kq/c+3SrRxERuaAUHouIiMiM9Pf3PU294dPWtxR1G4ucOdtNkMr38/Cze9ixV/3Hcm6NTlTYuX+IRHs3eo6W+cEg1t7NC/uHGS6WWz2MiMgFo/BYREREZpzJcp1//8FOkrkeLEc7m4ucrVRHL7bj8rX7n2v1KDLHPLVrkCiCWDrX6lFELphEJkcUNf/+i4jMFwqPRUREZMb54fP7CcKQZLsuhRZ5MwzDJJbt4omdh6jUvVaPI3PIcGEKwzCwnVirRxG5YCwnhmkaDBemWj2KiMgFo/BYREREZpzHduzHicVx4slWjyIy68UzOfwg4MkXDrV6FJlDJso1LNsGbWQq84qBZTkUp2qtHkRE5IJReCwiIjLfWBaGE5/+x7RaPdU0uwfHceKZVo8hMie48TSGYbL3SKHVo8gcEkYRhoJjmY8MCMOo1VOIiFwwdqsHEBERkQvLHrgUe+DSVo/xusYnq9hZhcci54Rh4LgOo5OVVk8iIiIiIrOMVh6LiIjIjNLwA2oND9PSe9wi54phOhRK1VaPISIiIiKzjH4rExERkRklCEIAXQ4tci4ZELTwMmt74FKiwH9lHDfRsllERERE5PQpPBYRERERkfPKXXdrq0cQERERkbOg8FhERGSeiWolwtLotGNmugMjkW3RRCIiIiIiIjITKTwWERGZZ4Iju6g/d/e0Y+7623GWXNGiiURERERERGQm0oZ5IiIiIiIiIiIiInISrTwWEREREZHzqrF9y0kb5rlrNrdwIhERERE5HQqPRURERETkvPIPPEvk1Y9/bCTbFR6LyJvy6TsW05l2+OuHDrF7uNrqcURE5iyFxyIiIiIiIjLrOJbBZYsyXNKfIp9yABiZ8vjpYJmn9pfwguikr0nFLDauaGN1b5L2hE3VCzkwXueJvZO89KoAsr89xsaVbZiGwdBkg0deLOKHJ5/zVOKOyS0X58nELRp+yN3bxqg0wmm3WdIR55rlbZjGa5/n8T2TCkZfw+KOOOmYRXtCsYaIyPmkZ1kRERERERGZVTYMpPnF63vpTDsnfe5ta3JMVH2++tgRntgzefz4qgVJ/tPbBsjGrWm3X78wzTvWd/DdbWN8/fGh48ffe1kn1y5vO/5xd9blGz8e4nT84nW9bFz5yteOlDwefrE47TbvvLSTa5ZlX/c8QRjN+vDYsQwW5eMUKz5jZa/V44iIyBlSeCwiIiIiIiKzxvUr2rjzxn5MAyZrAQ+9UGDPSA0/jFjQ5rJpZTsD+Rgfv6H3eHiciln8xi0DpGMWg8U6//b0KIcKdbIJi4t7U9y0Oseyzvi0+7GPLgmerAVk4xabV7XzzaeGafivv/o4l7S5dnkWP4yoeSHpmIVtnby8+NihvWM1tu4qnvR5gG0Hy2f68Mw41y1v4+Ob+jhUrPPb/7q71eOIiMgZUngsIiIiIiIis8KCNpdf3tiHacDu4Sp/fu9+purBtNt8b9sY1y1v4/ZLOo4fu3Z5lnTMouFHfPbufRQqr2zguP1QmX9/dpS+9tgp7/OZ/SUuX5whHbO4ammWrbsmXnfGm9fksEyDH+6eYFlXgnTMet3bH5locM/28Tf61mct42hIbhqv088hIiIzltnqAUREREREREROx3+4shvXNqg0Qv7yvgMnBcfHPLZ7gt/71svHP+4/GgwPTtSnBcfH1LyQl0dOXQ/hhxE/OBoYv3V17nXns0yDzauat7n/p4U3/obOI9c26co4uPaZhbbpmEV3xiX1BqH3qzmWQVfGOb5i+2wlXZPujEsmfmb3LyIi54dWHouIiIiIiMiM15awuXJxBoD7nh9nonpyCPxaGkc3z+tKO7i2ScMP3+ArpnvwhQK3rcuzsifJwlyMg4X6KW935ZIM7UmbQ8U6O49Uzug+3ozPvn852YTFr39jFz1Zl5+5uodL+tMYRrM3+cl9Jf7uh0coniI4h+YGf+9Y38ENK9un9UgPTTZ46IUi39s2dtJmgX/y/mW0Jx1+659f4rJFaX7+2gWkYhY1L+TT39zNpQvTvGdD1/Hwujvj8L8+chEAERFf3nqYZw78/+zdeXhd9X3v+8+eB0lbe8uaLQvLk4wx2MZ4xGBjmyEJDiUkgZSQpjRpb5tQcnuT9JwO59yem962T+856dP0PO3T9p7bDC0mMVOAQEgIhgDGMh4wssGj5EG2tqStYUtb2tNa6/4hW7aQZEtG2kvD+/U8fozX1l7rq22jvddnfdf31yNJKinw6J6ls3RzdYFKCi4dv60no58fatfL78c0uqUKAQDjjc5jAAAAAMCkd31FUK4LXa27T8av8tWDHWrqnx2c53PpG1ur5HOP7VT4bEdKJy50Jm++QvfxnUuKJOW+6ziS51ZhwK318wv1nfvn6aaqfDXH02rtzsjldGh1TUh/9qm5CnqHft/hoFt/cV+N7l9RouJ8j852pPTB+YTaExmVhbx6cFWpvv2J6iEdxUV5HoX8Lm1cFNbvb5qtPJ9LlvqD6KDXJY/LqXy/S35P/zGdTofy/S7l+10q8LsH5kDn+1z6q8/M1903FKnA79Kxlj4dPNujWCKj4nyPHl5Tps/eUjrhryEAYHh0HgMAAAAAJr2a4oAkKWNYOtuRHNNzD57t0Z6GuFbVhHRTVb7+9nPztWNvq9463iXDHF1P684jnZpfEtCGhYXavic6ZOG8qohPi8uDSmfNERfAm2hfub1S5ztT+p+vNelUrP81Wl0T0tc3V6m80Ktty4r15J6WQc/5vY2Vmh32KZbI6LuvnFHjhec5JN22KKyv3lapJRV5+o0VJdqxt+Wjh9RDq0vV2p3RP7x2Vo1tSV03y6+mjpROxZJ6qT6mTbVhfeW2SjV3pfWtnxwf8nyX06FoPK2X6mPafTKuzIUucZfToS+vL9cdiyO6Z2mRnt3fOvAYACB36DwGAAAAPqb//Mnr9N8/v0DzSwN2lwJMW6FA/wzc7mRWo8x7B/nH18/preP9s4uL8jz63dsr9d0HF2jz4shAR/OV7DrRpWTGVNDr0pqawiGPX+w63nUyrt706Mdi1BT79eiGiiG/vry+QgHP2E7Zz3Wm9BfPNw4Ex5JU1xDXW8f7w+wNC8O6/DudXxrQjbPzJUn/+sb5geBYkixJbxzt1GtH+ruo77ohIo9r6OuUMSz9zcundKKlT4Zp6WRr35ARF1fS1ZfVnz5zUm8e6xoUDhumpaf3tUqSfG7nwNxqAEBu0XkMAAAwBnOKfFo/v1CWpH2nunW8ZfgFliRp2Zx83TQ7X/vPdKv+wi3Tl8vzubRhQaEWVwQVDrjVlzF1pj2lPY3xIfudHfZpw8JCOR39HVpvHO0c9cm53+PUnUv6bwdOZ0397P3YkGBj7iy/1s4v1JXyk90NcZ24wvc7k103y698n0vhAB+vgYnivzBq4lq7T9NZU/+4s0m/Ptapz91SqvklARXlefTohgptqg3re786q9buzIjPT2ZM7W6Ia+OisDZfH9GvL+suDnicunVBf6D8y8NjG1lRFvKqLOQd9rFXP2zXmfbh5ysPZ8e7rUoMs4jgnsZu3bYwrEjQreICz8D3ubK6f4Z0c1da7zf1DLvP1492avPiiIJel+bO8uvYR94Hnt7Xquau9KhrHIuO3qwyhiWPy6HgGBfwAwCMDz7dAgAww7gqFysQrhi0zREc2kGF4X16WYnWzQ9Jku65YZb+5JkTI540r50X0m0Lw/K4HUPC49ryoB7fOkehj6wmf1NVvj510yy9+H5MT+yODmz/jRXFWjf/0t9Tacir7XVRjcaX11dow8JLz23tzuj1o4Nvqb53WbHWzgtdcT+GaU358Njjcqi6yK/O3qxiiZFDIgCTT1+m/6LXWLtxP6q+KaH6pgbdUJmnh1aXqabYr3klAX37nuv0p8+cGDKO4nI7P+zQxkVhLSwNaE6RbyDY3bAwLL/HqYa2pBraxvZz8lhLn145FBuy3TClphEW5huJaQ1f+/nOS/spzr8UHlcV9XfznrnCGJCzl4XXpSHvkPA4Gh+/4Lgq4lNNcUCRoFtet1MOhwYuao6iORwAMAEIjwEAmGEc3qAc3qDdZUxZl6+x5HU79PCaMv33V86MaR95Ppf+9zvnKN/n0rnOlJ7Z36amjpRCAZeWVORp0+KI5hX7P3Lc/rPmeNJQyO/SHbVhPb2v5YohhyRFgm6tmx9S1rSUzJjK97kGFim63MVNjbHkiLM63z87tHt6qlk/v1Bfvb1STZ0p/fGOE3aXA2AM4sn+jtqCgFsBj3MgTL5Wh84l9F+eO6kvrSvXnUuKVFHo1V1LivTCwaFB7kXHWvp0tiOlqohPmxdH9P23myVJdy7pX0Tv1Q/ax1xHrCejXSfGtgDgWF3ejexxXXojy/P2X8Ds6hvarXxRKmsOdP+OdaHB0VpQGtCjGypUXeS/+hcDAHKK8BgAAOAaHGnuVW15UCuqC7SkIk+Hz48+WF03P6R8n0vprKW/+tkpdfRmBx6rb0rop++1qXKE2Y4HTnfr5usKlO9zaXVNSG8e67risTZf3z/Lc9eJLs0rCSj/Krf9Nnel9XL92MOPqcIx0MFGC1suOQJhyXOpO9EZKLCxGkxVFzt6Heq/e+PAmeHHLIyFZUk/eLtZN87OV3mhV4vKg9IVwmNJev1Ipx5eW6ZbF4T1RF2LFpQGVBn2qS9jTngIfK3yLvvZn7wsdL84AuRK7w0+t3Ng1nFfZuSQ+VpVhn36k0/Oldft0KFzCb1yqF3ReHpgvNL/87n58k5QaA0AuDrCYwAAgGvwYXOvHA5pUVlQX1hTpv/y7EmNdgrnxUV/znWlBgXHFyUzpk62Dn/bc9a09NaxLt29tEhbFkeuGB67nA7dUXuxG65D80rsW8zN63aqMOBSV1/2qt3Sl8v3uRT0upRIG8PO8bwSj8uhcNCtjkR2TIs3XS7odSrf51ZfxlB3cvxDk5kisOmrdpeAaeDwucRAB+wdiyPjEh5L/QvDtScyKi/0jurC0pvHO/Xg6lIFvU6tnRfSiur+BefePNapVPbjdUNPlMsvSF4+ZuLi+J6KwuFnLktSRfjSY2fHOEZjNO66oUhet0MnWvv0Ny+dGrIY4rX99AYAjBfCYwAAgGvgdEhP7mnRn987VzXFfq1fUKi3jl+5C/ii9IVOr5J8j7xup9JjDBteO9Khu5cWaWFZUFUR34gn87fMLVA46FZTZ0ofNveO6Rgfx199Zr5CAZe+sf2YykJe/eaaMt04O18OR//c5L2nuvWDXc3qHCY4l/oX+PvUTbN028KwivM9A9uj8bR2HunUS+/Hhg2D/+/PzFM46NE3f3xcK6rz9aV15crzuZTMmPrlBx26dX6hvO7+YKi0wKPvfWGRJMmSpf/15vmBIKqkwKN7ls7SzdUFKim4dPy2nox+fqhdL78fI8wAbNCdNLTrRJduXxTWyusKtLompLqG4Tt9XU6HNiwoHJjvHgm6h71YJ/V31lbP6h+X0NR59XC0O2lo76lurakJ6d6bZg0sdvfqB2NbKG8i3LmkSAfO9Mj4yM/I9Rdm5kfjaXX1XXodjjT3auOisK6b5Vd1kV+n24fOPt56fZGk/vEa1xIeGxfe4oLe4buHy0L9P2dPtvYNCY69bgd3igCAzbj3AwCAGSbbuE+Jn35n0K9M4167y5pynA6HjjT3at+pbknS524pHbit92oOXVg8L8/n0je2Vo15huTZjpROXOhM3rw4MuLX3bmk/4Q/14FGJM+twoBb6+cX6jv3z9NNVflqjqfV2p2Ry+nQ6pqQ/uxTc4cNEsJBt/7ivhrdv6JExfkene1I6YPzCbUnMioLefXgqlJ9+xPVAzOgL1eU51HI79LGRWH9/qbZyvO5ZKk/jA4H3Mr3u+S/sNCW0+lQvt+lfL9LBX73wBzofJ9Lf/WZ+br7hiIV+F061tKng2d7FEtkVJzv0cNryvTZW0on9PUDMLLte1oUvxB+fu2O2frMzSUKBS71RHlcDq2bX6i/vH+evnp7pTwuh1xOh/7+C4v0tTuqVFM8+A6MwoBbX7tjtvJ9LhmmpV8fHX7m+0ft/LD/6yrDPrmc/e8HE9GVO1ZLZ+fpW3dXD1qMdXVNSKtr+hdE/dWHg98Pdp+MD8yS/urtlSoMDO4vWzMvpNsuLLj6/HttGmE9viu6eKGwMOAeNNP4YiZ88fHrK/Lkuuxne77PpW/eXT3q91YAwMSg8xgAAOBaXDiX3b6nRcvm5Ks436O7b7jyQksXHTzboz0Nca2qCemmqnz97efma8feVr11vGtIt9hIdh7p1PySgDYsLNT2PdEhoyCqIj4tLg8qnTVHXABvon3l9kqd70zpf77WpFOx/m621TUhfX1zlcoLvdq2rFhP7mkZ9Jzf21ip2WGfYomMvvvKGTVeeJ5D0m2LwvrqbZVaUpGn31hRoh17Wz56SEnSQ6tL1dqd0T+8dlaNbUldN8uv07Gk/un1Jm2qDesrt1WquSsLvffZAAAgAElEQVStb/3k+JDnupwOReNpvVQf0+6T8YF5oC6nQ19eX647Fkd0z9IiPbu/deAxALkT78vqr186rT/+RLUKA2595uYS3b+iRJ19WWUNS5E898DFpQ/OJwb+P+3qy2rd/JDWzQ+pO2mopTstr8upirB34Ot/9E501AFwfVOPWrszA3cnTIauY0lqbEtq6ew8/Y8HF+p4S5+CXufAyKKTrX165dDgmfaprKl/fr1J37hzjmqK/frugwv1YXNCiZSp2RHvQNj79omua/4ej0Z71Zs2FfQ69Wf3ztWJ1l6VFnj13IE2vXG0Uz8/1K518wtVFfHpL++fpwNneuT39I8E8bmdaulOq7Rg5LEaAICJRXgMAABwDS72QZ3rTOm1I53aen1En15eop1HOtUzitm8//j6OaUNS7cuKFRRnke/e3ulPruyRM/ub9PrRzuvGiLvOtGlh9eUKeh1aU1NoX79kYD4YtfxrpPxgUWHRqOm2K9HN1QM2W6a0pN7ourLjH5f5zpT+m/PNw6aVVzXENdbxzt128KwNiwM68d7WgZGQMwvDejG2f2zQ//1jfMDwbHUP/PyjaOdWlAa0ObFEd11Q0TPHRg+wM0Ylv7m5VNq7uqf6znS/OjhdPVl9afPnByy3TAtPb2vVXcsjsjndmp22DeoPlyZ0XxElnnp347D5ZGrbIGNFWEqO92e1B/vOKFty4u1fl6hInluRYL9p7am1T+KYeeRTr11/NLPxb94vkH3LS/RLXMLVOB3qcDfH6hako5Fe/XUvlbVNw1e+PTiiKHh5hhbkl77sEOfX1Wqrr6s9jQOPz4jc4V9XNz/WEcXXckz+1tVGHDrwVWlWjo7T1L/rPy3j3fpR+9Eh/2ZeeBMj77zQqMeWl2m2rKgbqrKH3istTujFw+26dUPOoaM67m4r6tdSEtlTf39q2f0extnKxJ068bZ+TJMS23d/fOWG9uS+rtfnNEX15arKuJTVaR/PvPxlj79YFez7lpSpNIC75DjjPb4AICPh/AYAADgY3p6X6s2LChU0OvU/StK9MN3mq/6nHTW1D/ubNKvj3Xqc7eUan5JQEV5Hj26oUKbasP63q/OqvXCifVwkhlTuxvi2rgorM3XRwaFxwGPU7cu6L/N+JeHx9YpVhbyDszv/KhXP2zXmfbR35a9493WYRe529PYrdsWhhUJulVc4Bn4PldWF0iSmrvSer9p+IWwXj/aqc2LIwp6XZo7y69jLUOD4af3tQ4Ex+Opozc7sFhX0Oe6+hMwILX/p7Iyl/7tOIJhBcu+bmNFmOp6Uoae2B3VE7ujAyNrkllT7YnMsItytnZn9K+/Pqf/902ptMCrkN+lrNk/A7g3PfwFv396vUnff7tZfSM8/tP32vTLDzqUypojXvD702dOyutyDHvhbWD/mfFdjPNXH3bo18c6VRXp7xpu7kpd9cLf8ZY+feeFRuX5XCot8MjldKizN6u2npHfh/7oyWPyuByjukBZ35TQN7Yf0+ywTx6XQ+e7Br/uB8706L0zxxXJ86gor3+h04uL+f3Lr8/pB7vODznOWI4PALh2hMcAAAAfU7wvq+ffa9PnbinV1iURvXK4fdBq9ldS35RQfVODbqjM00Ory1RT7Ne8koC+fc91+tNnTgwbgly088MObVwU1sLSgOYU+QaC3Q0Lw/J7nGpoS6qhbfRdt5J0rKVPrxwaOnrDMKWmMc7zNEcYjnn+sgWpivMvhcdVRf3dZmc6Ru7oPXtZeF0a8g4bHo/2tb+aqohPNcUBRYJued1OORz9CyVKl34HYL/2REbtiZFDzstZVv/PiOjwjcJDvnakYPmiqz1umJb6RgiWR7P/a5UxrDH//JekRMpQwyjunrl4jLF0/RqmNeyCfBdZGv7v0jAt9aaHv8uErmMAmHiExwAAAOPgpfqYtlwfUVGeR5+/pVTf+9XZMT3/0LmE/stzJ/WldeW6c0mRKgq9umvJlWcoH2vp09mOlKoiPm1eHNH33+7veL5zSf8ieq9+0D7ic0cS68lo14lRpCofw+XdyB7XpUXz8rz93bxdfSMHF6msOdD9O9aFBkdrQWlAj26oGLSwEwAAADATTcwnbgAAgBkmnbX0k3dbJUmr54U0t9g/5lXpLUv6wdvNAyMXFpUHr/qc14/0j6u4dUFYXrdTSyrzVBn2qS9jTngIfK3yLhv5kLzsVuqLHWT5VxgJ4XM75XH1t/2O963eklQZ9ulPPjlX1UV+HTqX0Hd/cUb/6akT+sMnjukPnzg2rrNJAQAAgMmO8BgAAGCcvHm8U42xpBySPn9Lqa6y5t2wLt62K0lOx9VnI7x5vFNZ01LQ278y/cWu4zePdQ67QNNkUBn2Dfz35SMmLs63rCgcfuayJFWELz12doxjNEbjrhuK5HU7dKK1T3/z0intPdWtsx2pgVupuUEawGQUjacV78uqOzkxYzAAADMX4TEAAMA4sSzpid1RSdJNVfmaVzL82INIcOTJYT63U9Wz+p/X1Hn1cLQ7aWjvqW5J0r03zdLNFxade/WDsS2UNxHuXFIk1zDDgdfP71/MLxpPq6svO7D9SHOvJOm6Wf4RR0Zsvb5IUv94jWsJj40LeXrQO/zH4LKQR5J0srVvSPjvdTtGFegDQK791+ca9Af/flRHo712lwIAmGYIjwEAAMbRoXMJHTjTI0nDBqAup0N//4VF+todVaopDgx6rDDg1tfumK18n0uGaenXRztHdcydH/Z/XWXYJ5fToSPNvRPSlTtWS2fn6Vt3VyvkvzSGYnVNSKtrQpKkX304OODefTKu+IWuua/eXqnCwOCQfc28kG5b2B88P/9e25jHgkhSZ29/WF0YcA/6+7mYCV98/PqKvEHBd77PpW/eXT0wMgMAAACYCVgwDwAAYJz9x+6obpydN2zXrWFa6urLat38kNbND6k7aailOy2vy6mKsFfuC8/50TvRUQfA9U09au3OqKSgv2t2MnQdS1JjW1JLZ+fpfzy4UMdb+hT0OjWvpD8wP9nap1cODV7QL5U19c+vN+kbd85RTbFf331woT5sTiiRMjU74h0Ie98+0XXN3+PRaK9606aCXqf+7N65OtHaq9ICr5470KY3jnbq54fatW5+oaoiPv3l/fN04EyP/J7+kSA+t1Mt3WmVFow8VgMAAACYTug8BgAAGIP0hUXdrrRw2rnOlH70TlTZC3MPTrcnBz3+F883aOeRTvWkDBX4XZpfEtCcov6u4WPRXv31S6f0i8ODg9WLxx1ujrEl6bULXbxdfVntaRx+obzMFfYxmu9rrJ7Z36r/9eZ5GaalpbPzNK8koKxp6Y2jnfrrl04P1HO5A2d69J0XGvVhc688LoduqsrXuvkhVRf51dqd0b+9dV7/+FrTsLOHL+5vuP1elMqa+vtXz6ijN6ug16kbZ+erON+jtu7+ecuNbUn93S/OqLkrraqIT/feNEtbr4+ouSut/+uFRh1t7hv2GKM5NgAAADDVOCzrWm74AwAAU1W2cZ9SB382aJv3pk/IM3elTRUN1pfK6FP/+QcqLJ+rvKIKu8sZwuGQAh6XetNXX5TI6ZDcLofS2eE/bjkcUmmBVyG/S1mzfwbwSPu9eNy+tDHiom1Br0uprCljhJX6XE6HvC6H+jJDA+KB/WeMaxoHcbl/eqRW+T6XvvuLM9p7qlsel0NVkf6u4eau1LDHH06ez6XSAo9cToc6e7Nq68lc8es9Loc8Lod601ffv8vp0OywTx6XQ+e7hr7uDkmRPI+K8tzqSGQHFvNzOR3yuYceYyzHtkOs8X3dXFOkv/ydO205fu9Lfysrc6mT3hEMK7j167bUgvHxvWd26YXdx1WyYHK8dwC50np8rz5xy3x947Pr7S4FAHKCsRUAAABjYFkaVXAsSaalEYPji/uKxtOKDt8oPObjXu1xw7TUN0KwPJbva6wyhqWGtr4xPy+RMtSQGn1NGcMadeevYVpDOsIvZ0lqT2TUnhgcWBumpd700GOM5djAdOB1u2Qak/NiCTCRLMuU1+O6+hcCwDRBeAwAwAzjnFUt37JPDt5WVG1TNQCAqagoFJRhZGWZphxOpiFiZrAsU0Y2q+JQ0O5SACBnCI8BAJhhnAXFchYU210GAGAKm1NSKEnKJHvkDYZsrgbIjUxfQpYlzSkttLsUAMgZLhEDAABgXEXjacX7supOTswYDAD2W7GwUl6PW8l4+9W/GJgmkvGYvB63bl5YaXcpAJAzdB4DAABgXP3X5xrsLgGTTGDrYx/Z4rClDowfn8elzSvm6Rd7TyiveLZcbo/dJQETysxm1NfVojtvnieflygFwMxB5zEAAACACeXw+D/yy2d3SRgHX757hZyS4s0n+1eZBKYrS+pqPimnpN+652a7qwGAnOJyGQAAM4wRPa7Myd2DtnlqVstVvtCmigAAU1FpJF9fv3+tvrvjLTm9p1RYch1N5Zh+LCneckp98XY9/sB6lUXy7a4IAHKK8BgAgBnG6ovLaB08VsBVsVgum+oBAExd29YvVlMsrh+/9r7MdEqF5TVyMsIC04RpZNTV3KC+rpg+u3Gp7rv1ertLAoCcIzwGAAAAMKGs3k4NmmvgcMoRKLStHoyv/23balUUFegfnnlHrSc6FQiXyR8qltefRycyph5LSicTSnbH1NfZLJmW/vAz6/QbG5bYXRkA2ILwGAAAAMCE6nv9X2RlUgN/dgTDCm79uo0VYbzdd+v1Wn19lf6/l/Zq54FG9cTOyel0yO3xigR5fDmcTjmcbpnZtN2lTEOWspm0TNOSy+nUxuU1+p1PrFTFrAK7CwMA2xAeAwAAAAA+toqiAv3Jw5v0jQcy2nPkrBqbO9XZ0yfDZDW98dSR8aqhN0+L8+MKugy7y5lWnA6HIgUBzS0Pa1VtlYJ+RrAAAOExAAAAAGDcBP0ebVxWo43L7K5kenrzeJf+aWeTvnTXclUX+e0uBwAwzTntLgAAAAAAAIxO1ujv5HY7GQcCAJh4hMcAAAAAAEwR2QtjQNwuwmMAwMQjPAYAAAAAYIowLnQeu+g8BgDkAOExAACYVJyOCyfDrK8EjCOHiJmA6SFrMbYCAJA7hMcAAGBS8Xnd8nrcMo2M3aUA04ZlZBQpCNhdBoBxYDDzGACQQ4THAABg0onkB2Rk0naXAUwPlpTNpFVcGLS7EgDjgJnHAIBcIjwGAACTTnVpoYx0r91lANNCJtUr0zRVWRyyuxQA42AgPKbzGACQA4THAABg0ll3wxyl+hIy0im7SwGmvFRPuxxOh1YvrrK7FADjwDAsOcSCeQCA3CA8BgBghnHkReSuvH7QL2dexO6yBrl16XVyOKTerla7SwGmNstSMh7TTTXlKszz210NgHGQNS2CYwBAzrjtLgAAAOSWq6RGrpIau8u4opJwnu5YPk+vHzylvEiZnG6P3SUBU1JvV6vSyV49tHmD3aUAGCdZ02LeMQAgZ+g8BgAAk9LvfPIWybIUbzlldynAlGRmM+ppPaNl8yu05vo5dpcDYJxkDYt5xwCAnKHzGAAATEoVswr06Cdu1r+8+K7c/jzlF1XYXRIwdViWOpqOyu209I3Prre7GvlWfFqWaQ782eHibgLgWhmMrQAA5BDhMQAAmLQe2rxMJ8936Ff7T8ohh/KKyu0uCZj0LMNQx7ljSvd26zuPbtV1ZWG7S5KrvNbuEoBpg7EVAIBcIjwGAGCGMRPtMqLHpWxaVjYtZVNyVSyelHOQHQ7pWw/dJsM0tfNAgzLJhEJlc+V0uewuDZiUMsmEus4dl5lJ6T994Xatu6Ha7pIAjLOsydgKAEDuEB4DADDDmF1RpetfGbTN4c+flOGxJHndLv35I5tVU75f33/lgNKJdgVnVSlYWCwnt74DkqRsslc9sXPq7WpTUciv//a7n9SSuaV2lwVgAjDzGACQS4THAADMMA5fcMg2s7fThkpGz+GQHrlrhW5fVqN/fn6Pdh1uVHf0lHzBArn9+XJ6vHK5PXKIk+lccjgcsizL7jJmJNMyZWbSymZSyvR2KZNKyuf16LfuXqHPb1qqgG8SXVgxMrJSCTmC9o/PAKYDxlYAAHKJ8BgAgBnGmT9ryDYz3mJDJWN3XVlYf/mVO3Uq2qk33z+lN+tP6VRzq5LpjN2lzSgOp0v5sypVUDJbvV0xdTYds7ukGcnhkAqDfq2sLdetS6/TuiVzVBD02V3WENnoMaXefVpyueXMmyVnfpHc1cvkKl1gd2nAlMSCeQCAXCI8BgBghnH48uXw5clKJQa2mV3NsjJJOTx+GysbvevKwrquLKyHty6TJCXTWXX09Ek0wU6orGnp7ZM9evVIXL1pUw6HtH5JtR7+8gq7S5tx3C6nIgUBuV1Ou0u5KqPt1IX/yMqMR2XGo3KVLbS3KGAKY2wFACCXCI8BAJiBXLOuU/bc4UsbLEtG81G559xkX1Efg9/rVkVRgd1lTFuWpLqGuH68p0XReFrzSwPKZC3FEhn93h1zVOBnAUOMwLJkNB8ZstlVfJ0NxQDTQ9aUAh7CYwBAbkz+VgUAADDuXKXzh2zLnj5gQyWY7A6dS+jPnz2p7716Vk6H9NiWKt25pEin25P63MpSgmNckRE9LivZM2ibs6BYjkChTRUBU5/BzGMAQA7ReQwAwAzkqlwsvf+SZGQHthmx0zLaz8hVNMfGyjBZNHWm9PTeVu1uiKvA79KDq0r1iRtnKWtY+tZPjqsq4tMdi1kADVeWPvbmkG3uqhttqASYPrImYysAALlDeAwAwAzkcPvknn2DsqffG7Q9Xf8LBW777f6VuDAjtScyenZ/m3Ye6ZDH5dS2ZcX69PJiBTz9N6zteLdFHb1Z/cEds1mwCVeUbToks6Np8Eana8qOxwEmi6xhyUXnMQAgRwiPAQCYoTwL1it75qBkXVplzuw8p8yJd+RZsM7GymCHZMbUz96P6YWDbTJMaVNtRA+sLFFh4NLHxWg8rZcPtWvd/EJdX5FnY7WY7KxUj9L1rwzZ7p6zTA4/88mBj4POYwBALhEeAwAwQznzZ8k9Z9mQWcfpD1+TM1whV/FcewpDThmmpdePdmrH3lbF+7JaOjtPX1xbrqqIb8jX/nBXs5wOhx5aVWpDpZgyTEOpd5+RlUoM2uxwe+VdtMGmooDpI2tacrF6EQAgRwiPAQCYwbxLNstoPior3Xtpo2kqtWeHAlu+Joc3YF9xmFCWpLqGuH68p0XReFrzSwP6wy1VWlweHPbr953q1oEzPXpwValm5XtyWyymDtNUat+zMmKnhjzkWXSbHIGQDUUB00vWoPMYAJA7hMcAAMxgDm9QvuX3Kln340HbPYs2EBxPY4fOJfREXVSNbUlVFHr12JYqra4JaaQoImNY+o+6qMpCXt2zdFZOa8XUYWVSSu19WkbLiSGPuYqvk2f+WhuqAqYfw7TkZuYxACBHCI8BAJjhXOWL5FmwTpnjuyRJnvlrCXmmqabOlJ7e26rdDXEV+F16ZG25ti6JXHXhuxcPxtTcldY3766Wh8ACIzCaPxw2OHb4C+S7+TdYiBMYJ8w8BgDkEuExAACQd8kWWckeyeGQ94atQx7PnnlPcjjlnn2D5GDQ4lTTnsjo2f1t2nmkQx6XU9uWFevTy4sV8Fz977I9kdHz77VpRXWBls/Jz0G1mKrcc5bJiB5X9twHA9scHr/8636TRfKAcWLpQucx4TEAIEcIjwEAgCTJt2LbsNutZLfS7/9cVjat9AevyV21VK6yhXKFZ0tOguTJLJkx9bP3Y3rhYJsMU9pUG9EDK0tUGBj9R8B/fycqw7T08JqyCawUU4nVF5fR2iCjrUG+FfcN6ij2LrtXZlezzESHHL58+dc+JGdBiY3VAtNL1rAkibEVAICcITwGAAD9RugoTtf/QlY2Lak/NMoce1uZY29LTrec+UVy+AvkcHuHPM9dtVSu8tpB2zLH3pLZ1Tzm0pyhMnkWbRi0zWg+quzZ98e8Lzmc8q28f9AmM9GhzAe/Gvu+JHkWb5Izf/Ac4NS+5yQzO+Z9uWbfIHfF4kHbMsfeltl1fkz7sSzpdLpAf9c4V/G+rJbOztMX15arIn1a2UNvKzXK/XQnDS1vT+gTVX6VF14/+Bi9nUoffnVMdV3kqd0oZ0HxoG2p/T+VjMyY9+WqXCJ35eDaMsd3yew8N+Z9OQpK5K29fdA2I3q8v/P+GvhueWDQn62+LqUP/fKa9uWpvX1ICJs68Lx04f/NsXBVXi935ZJB2zIn3pHZ0TTicyzLlNJ9MnvaZaV6Bra7q5fLVTx34M8Oj0++lZ9R6v2X5V95vxzB8JjrAzAyw+wPj682bggAgPFCeAwAAEZktJ5U9tzh4R80szLjLVK8ZdiHnYXlQ8JjI3Z62JmoV+PKpOT56OF7YoNujx81p1M+DQ6Plem7tn1Jcs9bLWlweJw9/+E1BaHOUJlUMXib0X5GRvTYmPfVnS5VScFC/eGWKi0uD0qSMifG9poFJN3sk5QaGlJYmeS1v2Y1q4ZsM5qPyMqMNta+pD9QHRweG+1nZDQfHfO+XMW9Q7aZifZr/j59H/nzx3rN5q6UPhIeG81HZaX7xrwvx0eCe0ky28/2/7sdo+zZ+kHhsSQ5wxUK3PbbY94XgKvLXgiPGVsBAMgV7jUFAAAjMhMdw3YVY/KbE/Hp//x0zUBwDEwE49wHkjH2LnsA14bOYwBArtF5DAAARuSZu1LuyiXKNu5V9sx7MhMddpeEUQoF3CJawESzTENG13m5iubYXQowIwzMPCY8BgDkCOExAAC4Ioc3IM+iDfIs2iCzo6l/oazYaZk9bbL64naXByCXXB4582fJGa6Uq3iuXKXz5PD47a4KmDEGxlawYB4AIEcclmVZdhcBAACmKCMjK93Xv6DeR2b8OgIFcvjyB20zE+3SNcy1lccnZ17RoE1WqkdWX/fY9+VwyFlYPnibkZHZ3Tb2fUly5M8aMtrD7GruX7VurPvyF8jhv/Jr1pc29evjnXrnRJcMS1pZXaDN10eU73MN3pnbJ2f+R1+zxFUD/3Odaf3T62e1uqZQ9950aZazM/zRYczj/ZpFJcsc+76Gfc06pExy7IVd42s2kqGvWVZmd+s17WvY1ywelcxrec3y5fAXDN7XlV4zh0MOj09y++XwBsZ8PADjp6kzpT/ecUK/e3ulbl/EgpQAgIlH5zEAALh2Lo8cAc+oxyN8NAD+OBy+/CHh9DVzeYYGfR/DkHD64+zrwmuWNS29cbRTO/a2Kt7n0NLZs/XFteWqinx0WbaROXx5cvjyRnzckvSvbzSozVmszWsWyPnRQPpy4/6alY3fvvIi47avq71mY+Jyj+9rFpqcrxmAiXNxbAUzjwEAuUJ4DAAAMIlZkuoa4nqyrkUt3WnNLw3o8S1Vqp2AhfB+fbRTx1v69OiGiqGdzAAA2zG2AgCQa4THAAAAk9Shcwk9URdVY1tSFYVePbalSqtrQhOyEF4yY+rH77Zo7iy/NtXShQoAkxEL5gEAco3wGAAAYJJp6kzp6b2t2t0QV4HfpUfWlmvrksiE3qb81N5WdfVm9djmKpFJAMDkZFiMrQAA5BbhMQAAwCTRnsjo2f1t2nmkQx6XU9uWFevTy4sV8Dgn9LjnOlN65XC7bl1YOCHjMAAA44POYwBArhEeAwAA2CyRMvTCwZh+figmw5Q21Ub0wMoSFQZy81HtR+9E5XE59OCq8VuADQAw/ph5DADINcJjAAAAm2RNS28c7dSOva2K92W1dHaevri2XFURX85q2NMQ18GzPfrNNWWKBPloCACTmUHnMQAgxzhDAAAAyDFLUl1DXE/WtailO60FpQE9vqUq5yMj0llL/1EXVXmhV3cuKcrpsQEAYzfQeUx4DADIEcJjAACAHKpvSmj7nqga25KqKPTqsS1VWl0Tkh0xwPPvtam1O6Nv31MtD7dAA8Ckx9gKAECuER4DAADkQFNnSk/vbdXuhrgK/C49srZcW5dE5LKpeyzWk9GL78d0y9wC3VSVb0sNAICxYcE8AECuER4DAABMoPZERs/ub9POIx3yuJzatqxYn15erIDHaWtdP3ynWZZl6eE15bbWAQAYPcPs/92uC48AgJmH8BgAAGACJFKGXjgY088PxWSY0qbaiB5YWaLCgP0fvw6dS+jdxm7dv6JEJQUeu8sBAIwSM48BALlm/9kLAADANJI1Lb1xtFM73m1RPGlo6ew8fXFtuaoiPrtLkyQZpqUf7mrWrDyP7l02y+5yAABjcDE8djHzGACQI4THAAAA48CSVNcQ15N1LWrpTmtBaUCPby1TbXnQ7tIG+fmhdp3tSOnxLVXyue0dnQEAGBtmHgMAco3wGAAA4GOqb0po+56oGtuSqij06rEtVVpdE9JkO7Xv6svq2f2tWlKZp1U1IbvLAQCMkcHYCgBAjhEeAwAAXKOmzpSe3tuq3Q1xFfhdemRtubYuiUzahYyeqIsqlbX0yFoWyQOAqWhg5jFjKwAAOUJ4DAAAMEbtiYye3d+mnUc65HE5tW1ZsT69vFgBz+QdA3GspU9vHevSPUtnaU7R5Ji/DAAYm6xpyeGQJuk1SgDANER4DAAAMEqJlKEXDsb080MxGaa0qTaiB1aWqDAwuT9SWZb0o13NKgi4df/NxXaXAwC4RlnDYmQFACCnJveZDgAAwCSQNS29cbRTO95tUTxpaEV1gR5eU6byQq/dpY3Ka0c6dKK1T797e6WCXpfd5QAArpFhEh4DAHKL8BgAAGAElqS6hrierGtRS3daC0oDenxrmWrLg3aXNmqJlKEd77aoptiv2xaG7S4HAPAxZE2LeccAgJwiPAYAABhGfVNC2/dE1diWVEWhV49tqdLqmpCm2in7jr2t6k4Z+j/uqpZjqhUPABiEzmMAQK4RHgMAAFzmbEdKz+xr1e6GuEJ+lx5ZW66tSyJyTcGT9bMdKf3qww5tXBTW/NKA3eUAAD6mrLjqJ4wAACAASURBVEHnMQAgtwiPAQAAJLUnMnp2f5t2HumQx+XUtmXFum95sfwep92lXbPvv90sr8uhz91SancpAIBxkDWtKXkxEwAwdREeAwCAGS2RMvTCwZhero/JtKRNtRE9sLJEhYGp/TFp14m4Pjif0CPryqf89wIA6JdlbAUAIMc4kwAAADNS1rT0xtFO7Xi3RfGkoRXVBXp4TZnKC712l/axpbOmntwT1eywT1uvj9hdDgBgnGQNwmMAQG4RHgMAgBnFklTXENeTdS1q6U5rQWlAj28tU2150O7Sxs2z+9vU1pPRH3+imtubAWAaMUxLLmYeAwByiPAYAADMGPVNCW3fE1VjW1IVhV49tqVKa2pCdpc1rqLxtF6qj2nNvJBunJ1vdzkAgHHE2AoAQK4RHgMAgGnvbEdKT+5p0f7T3Qr5XXpkbbm2LolMy67cH70TlcMhPbSqzO5SAADjLGta8rmn7kKuAICph/AYAABMW7FERs/tb9POIx3yuJzatqxY9y0vlt8zPU+832/q0f7T3frsylKVFHjsLgcAMM6yhiU3YysAADlEeAwAAKadRMrQCwdjerk+JtOSNtVG9MDKEhUGpu9Hn6xp6QdvN6u0wKtP3TTL7nIAABOAsRUAgFybvmdQAABgxsmalt442qkd77YonjS0orpAD68pU3mh1+7SJtxL78d0viutP7pzjjx0pQHAtGSY1rQcuQQAmLwIjwEAwJRnSapriOvJuha1dKe1oDSgx7eWqbY8aHdpOdHVl9VPD7Rp6ew83Xxdgd3lAAAmSNag8xgAkFuExwAAYEqrb0poe11UjbGkKsM+PbalSmtqQnaXlVM/eieqjGHpt9ZX2F0KAGACZU1mHgMAcovwGAAATElnO1J6ck+L9p/uVsjv0iNry7V1SWTG3c57NNqrd0506VM3zVLFDBjPAQAzmcHMYwBAjhEeAwCAKSWWyOi5/W3aeaRDHpdT25YV677lxfJ7nHaXlnOmJf3bW80KBdy6b0WJ3eUAACZYlpnHAIAcIzwGAABTQiJl6IWDMb1cH5NpSZtqI3pgZYkKAzP348yrH7TrdHtSv79ptgIzMDwHgJkmazC2AgCQWzP3bAsAAEwJWdPSG0c7tePdFsWThlZUF+jhNWUqn+EjGnpShp7e16qFZUGtX1BodzkAgAlmWv2/GFsBAMglwmMAADApWZLqGuJ6sq5FLd1pLSgN6PGtZaotD9pd2qTw4z0t6kkZemRtmYgRAGD6yxqWJDG2AgCQU4THAABg0qlvSmh7XVSNsaQqwz49tqVKa2pCdpc1aTTGktp5pEObF0c0ryRgdzkAgBzImv3hsZspRQCAHCI8BgAAk8bZjpSe3NOi/ae7FfK79Mjacm1dEqHL6jKWpB/talbA69JnV5baXQ4AIEcMk85jAEDuER4DAADbxRIZPbe/TTuPdMjjcmrbsmLdt7xYfhaBG+Kt4136sLlXX761QgV+l93lAAByZKDzmAXzAAA5RHgMAABsk0gZeuFgTC/Xx2Ra0qbaiB5YWaLCAB9RhpPMmHqyLqqqiE931IbtLgcAkEMXZx6zYB4AIJc4MwMAADmXNS29cbRTO95tUTxpaEV1gR5eU6byQq/dpU1qz+xrVUdvVn9wRxW3LQPADGOYhMcAgNwjPAYAADljSapriGt7XVSt3RktKA3o8a1lqi0P2l3apBeNp/Xzw+1aP79Q11fwegHATMPYCgCAHQiPAQBATtQ3JbS9LqrGWFKVYZ8e21KlNTUhu8uaMn6wq1lup0NfWF1mdykAABswtgIAYAfCYwAAMKHOdqT05J4W7T/drUjQrUc3VGjjojBjF8Zg76luvXemRw+uKlUkj49vADATXew85v0TAJBLnH0AAIAJEUtk9Nz+Nu080iGPy6lty4p13/Ji+T1Ou0ubUjKGpSfqoioLeXXP0ll2lwMAsAkzjwEAdiA8BgAA4yqRMvTCwZhero/JtKRNtRE9sLJEhQE+dlyLFw+2qbkrrW/eXS0Pcy4BYMZi5jEAwA6cxQEAgHGRNS29cbRTO95tUTxpaEV1gR5eU6byQq/dpU1ZsURGz78X083VBVo+J9/ucgAANmLmMQDADoTHAADgY7Esqa4xru11UbV2Z7SgNKDHt5aptjxod2lT3r+/E5VhWvrNNSySBwAzHTOPAQB2IDwGAADXrL4poe11UTXGkqoM+/TYliqtqQnZXda0cPhcQnUNcd23vJjubQAAYysAALYgPAYAAGN2tiOl7XVRHTjTo0jQrUc3VGjjojDdUOPEMC398J1mFeV5tG1Zsd3lAAAmAcZWAADsQHgMAABGLZbI6Ln9bdp5pEMel1PblhXrvuXF8nucdpc2rfzycIfOtKf09c1VvLYAAEn9FxYlxlYAAHKL8BgAAFxVT8rQiwdjerk+JtOSNtVG9MDKEhUG+Cgx3uJ9WT21r1W15UGtmccIEABAv4GxFYTHAIAc4owPAACMKGtaevVwh57a16retKEV1QX64toylYWYwTtRntzTomTG0G+tLxfxAADgIoOZxwAAGxAeAwCAISxLqmuMa3tdVK3dGS0sDeih1WWqLQ/aXdq01tCW1BvHOnXnkiJVF/ntLgcAMIkw8xgAYAfCYwAAMEh9U0Lb66JqjCVVGfbpsS1VWlPD+ISJZlnSv719Xnlelz5zc4nd5QAAJpksnccAABsQHgMAAEnS2Y6UttdFdeBMjyJBtx7dUKGNi8IszJMjbxzr1ImWPn3ltkrl+1x2lwMAmGSYeQwAsAPhMQAAM1wskdFz+9u080iHvG6nti0r1n3Li+X3OO0ubcboy5j6ybstmlvs18ZFYbvLAQBMQhdnHnNRFwCQS4THAADMUD0pQy8ejOnl+phMS9pUG9EDK0tUGODjQa49tbdFXb1ZPba5Sg4yAQDAMJh5DACwA2eHAADMMFnT0quHO/TUvlb1pg2tqC7QF9eWqSzktbu0GampM6VfHO7QhoVhFiQEAIwoa1pyOR1cZAQA5BThMQAAM4RlSXWNcW2vi6q1O6OFpQE9tLqMwNJm//5OVB6XQw+uKrW7FADAJGaYjKwAAOQe4TEAADNAfVNCT9RFdSqWVGXYp8e2VGlNTcjusma8uoa4Dp7t0cNryhQO8rEMADCyrGkxsgIAkHOcpQAAMI2d7Uhpe11UB870KBJ069ENFdq4KEzn0iSQzlp6oi6qyrBPd91QZHc5AIBJLmtYcrt4/wYA5BbhMQAA01AskdFz+9u080iHvG6nti0r1n3Li+X3OO0uDRf89L02tXZn9O17qgnzAQBXRecxAMAOhMcAAEwjPSlDLx6M6eX6mExL2lQb0QMrS1QY4C1/Mon1ZPSz92NaNTekm6ry7S4HADAF9C+YZ3cVAICZhjNJAACmgaxp6dXDHXpqX6t604ZWVBfoi2vLVBby2l0ahvGDXc2SLP3mmjK7SwEATBGGQecxACD3CI8BAJjCLEuqa4xre11Urd0ZLSwN6KHVZaotD9pdGkZQ35TQ3lPd+szNJSop8NhdDgBgisiazDwGAOQe4TEAAFNUfVNCT9RFdSqWVGXYp8e2VGlNTcjusnAFhmnpB7uaNSvPo0/dNMvucgAAUwgzjwEAdiA8BgBgijnbkdL2uqgOnOlRJM+tRzdUaOOiMIuuTQEvH2rXuc6UHt9aJZ+bwZUAgNEzCI8BADYgPAYAYIqIJTJ6bn+bXjvSIZ/bqW3LinXf8mL5PYSQU0FXX1bP7W/VDZV5WjWXDnEAwNhkDUteN+ExACC3CI8BAJjkelKGXjwY08v1MZmWdEdtRA+sLFFhgLfxqeSJ3VGlspa+uLbc7lIAAFNQ1rQUcHLBGACQW5x1AgAwSWVNS68e7tBT+1rVlza0uiakz68qVVnIa3dpGKNjLX1663iX7rlxluYU+ewuBwAwBWUNxlYAAHKP8BgAgEnGsqS6xri210XV2p3RwtKAHlpdptryoN2l4RpYlvTDXc0KBdy6f0WJ3eUAAKaorGmxvgEAIOcIjwEAmETqmxJ6oi6qU7GkKsM+PbalSmtqmI87lb12pEMnW/v0exsrFfRyuzEA4NpkTUtuF+ExACC3CI8BAJgEGtqSeqIuqsPnEorkufXohgptXBSmw2iKS6QM/eTdFtUUB7RhQdjucgAAU5hhMrYCAJB7hMcAANgolsjouf1teu1Ih3xup7YtK9Z9y4vl99ChOh3s2NuqnpShb95dLgfn+wCAj4GZxwAAOxAeAwBgg56UoRcPxvRyfUymJd1RG9EDK0tUGOCtebo425HSrz7s0MZFYc0vCdhdDgBgimNsBQDADpyhAgCQQ1nT0quHO/TUvlb1pQ2trgnp86tKVRby2l0axtn3326W3+PU51eV2V0KAGAayDK2AgBgA8JjAABywLKkusa4ttdF1dqd0cLSgL6wpkyLyoJ2l4YJsOtElz44n9CX1pUr5HfZXQ4AYBpg5jEAwA6ExwAATLD6poSeqIvqVCypyrBPj22p0pqakN1lYYKks6a272lRVcSnLddH7C4HADANGKYlyxIL6QIAco7wGACACdLQltQTdVEdPpdQJM+tRzdUaFNtRJz3TW/P7G9TrCejP/nUdZzkAwDGhWFaksTMYwBAzhEeAwAwzmI9GT13oE2vHemQz+3UtmXFum95sfwep92lYYJF42m9VB/T2nkhLanIs7scAMA0kb0QHnNREgCQa4THAACMk56UoRcPxvRyfUymJd1RG9EDK0tUGODtdqb44a5mOR3SQ6tZJA8AMH6yxoXOY8JjAECOcTYLAMDHlDUtvXq4Q0/ta1Vf2tDqmpA+v6pUZSGv3aUhh/af7taBMz363C2lKs732F0OAGAaudh5THgMAMg1wmMAAK6RZUl1jXFtr4uqtTujhaUBfWFNmRaVBe0uDTmWNS39++6oSgu8+uSNs+wuBwAwzQyMrWDmMQAgxwiPAQC4BvVNCT1RF9WpWFKVYZ8e21KlNTUhu8uCTX72fkzNXWn90V1z5OHEHgAwzhhbAQCwC+ExAABj0NCW1BN1UR0+l1Akz61HN1RoU21EnMvNXB2JrH56oE1LZ+fp5uoCu8sBAExDA2MruEAJAMgxwmMAAEYh1pPRcwfa9NqRDvncTm1bVqz7lhfL73HaXRps9h91zcoaln5rfYXdpQAApinD7P/d5SA8BgDkFuExAABX0JMy9OLBmF6uj8m0pDtqI3pgZYkKA7yFQjrS3Kt3TsR177JiVRSyQCIAYGJc6jy2uRAAwIzDmS8AAMPImpZePdyhp/a1qi9taHVNSJ9fVaqyEAEh+pmW9P23mxUKuPXp5cV2lwMAmMaYeQwAsAvhMQAAl7Esqa4xru11UbV2Z7SwNKAvrCnTorKg3aVhknn1g3adbk/q9zfNVoDxJQCACWQw8xgAYBPCYwAALqhvSuiJuqhOxZKqDPv02JYqrakJ2V0WJqGelKGn9rZqYVlQ6xcU2l0OAGCaGxhbQecxACDHCI8BADNeQ1ufnqhr0eFzCUXy3Hp0Q4U21UbE+RlG8uM9LUqkDX1pXZn4ZwIAmGiMrQAA2IXwGAAwY8V6MnruQJteO9Ihn9upbcuKdd/yYvkZQYAraIwltfNIh7YsjqimOGB3OQCAGSDL2AoAgE0IjwEAM05PytCLB2N6uT4m05LuqI3ogZUlKgzwtogrsyT9cFezgl6XHlhZanc5AIAZ4uLMYxedxwCAHOMsGQAwY2RNS68e7tBT+1rVlza0uiakz68qVVnIa3dpmCLeOtalI829+u1bK1Tgd9ldDgBghmDmMQDALoTHAIBpz7Kkusa4ttdF1dqd0cKyoL6wulSLyoJ2l4YpJJkx9eSeqObO8uuOxRG7ywEAzCAXZx7TeQwAyDXCYwDAtFbflNB/7I7qdHtSlWGfHttSpTU1IbvLwhT09L5WdfZm9bXNVSymCADIKWYeAwDsQngM/P/s3Xd0W9eZLvznFBz0xt7EKomSLMmSrGLJsi3ZcYlbYsd2nDiTZDwpk9zP687ky5TEuZlM5iaZfFPSZm5yJ2USj1sSjx3HRe5VVrVl9U6RkthJsKLjlO8PkJBAgCLBBhJ8fmtp2do42Hi5ReDgvHufdxNRTmrsDuHxPZ042hqA1y7jgc2l2FLvZdKPJqS9P4qXj/Zg00I3lpRwxToREc0slq0gIqJsYfKYiIhyis8fwzP7u/HGiV6YZRF3rSnEbSsLoMi82KKJe3hnO2RRwH3ri7MdChERzUOaxuQxERFlB5PHRESUE/wRDc8f9OHFwz7oBrC13ouPXVEIt5WnOpqc988O4mCzH/etL4bXxt8nIiKaeSxbQURE2cIrICIimtOiqoGXjvjw7AEfQlEN62tcuHddEYpdSrZDoxwQ0ww8sqsdxS4FN12Wl+1wiIhonhpOHnPDPCIimmlMHhMR0ZxkGMCepgE8sacDXYMxLCq24RPri7C4mPVoaeo8d7AbXYMxfPWmSpi42ouIiLJE0wwIYPKYiIhmHpPHREQ05xxuCeCx3R041xNGmceMB6+vwIYaV7bDohzjC8Tw3AEf1lQ5sWqBI9vhEBHRPKYaBiRRAFPHREQ005g8JiKiOaOxO4THd3fiaFsAXruMBzaXYku9F1yEQ9PhkV0d0AwDn+QmeURElGWaZrDeMRERZQWTx0RENOv5/DE8s78bb5zohVkWcdeaQty2sgCKzIsomh5HWwPY2ziAj64uQImb9bOJiCi7VN2AzNlyIiLKAiaPiYho1vJHNDx/0Idth30wDGBrvRd3X1EIl5WnL5o+mm7gv3a1I89uwu2XF2Q7HCIiIqiawXrHRESUFbz6JiKiWSeq6njpSA+ePeBDKKphfY0L964rQrGLK0Bp+r18tAfneyJ48LoKmGUx2+EQERFx5TEREWUNk8dERDRrGAawp2kAT+zpQNdgDIuKbfjk+iIsKrZlOzSaJwZCKp7e1436EhvW13ITRiIimh1UnTWPiYgoO5g8JiKiWeFwSwCP7e7AuZ4wyjxmPHh9BTbUMHlHM+uJvZ0IxzR8ZlMJd7QnIqJZg2UriIgoW5g8JiKirGrsDuHx3Z042haA1y7jgc2l2FLvBa+PaKY1dofxzqk+3LgsD5V5lmyHQ0RElKDpYNkKIiLKCiaPiYgoK3z+GJ7Z3403TvTCLIu4a00hbltZAEXmhRHNPMMAfr2jDXZFwp1rCrMdDhERURKWrSAiomxh8piIiGaUP6Lh+YM+bDvsg2EAW+u9uPuKQrisPCVR9rx1sg8NnSF87uoyOMxStsMhIiJKwg3ziIgoW3ilTkREMyKq6njpSA+ePeBDKKphfY0L964rQrFLyXZoNM+FYjp+/14nagosuHaxJ9vhEBERpVA1A1aTmO0wiIhoHmLymIiIppVhAHuaBvDEng50DcawqNiGT64vwqJiW7ZDIwIAPPleJwZCKv7yhgUQuKiLiIhmIU3nhnlERJQdTB4TEdG0OdwSwGO7O3CuJ4wyjxkPXl+BDTWubIdFlNDSF8Grx3px9WIPFhZZsx0OERFRWqx5TERE2cLkMRERTbnG7hAe392Jo20BeO0yHthcii31XnDBDM02j+zsgEkScO/aomyHQkRENCpVY81jIiLKDiaPiYhoyvj8MTyzvxtvnOiFWRZx15pC3LayAIrMix2afXY3DuBQix/3X1kMj41fiYiIaPbSdAMy93MlIqIs4JUSERFNmj+i4fmDPmw77INhAFvrvbj7ikK4rDzN0OwUVQ08sacDZR4zblyWl+1wiIiILkllzWMiIsoSXtUTEdGERVUdLx3pwbMHuhGK6lhf48K964pQ7FKyHRrRJf3xQBe6BmP465sreTFORESznqqzbAUREWUHk8dERJQxwwD2NA3giT0d6BqMYVGxDZ9cX4RFxbZsh0Y0ps7BKJ4/6MO6GhdWVjiyHQ4REdGYVI0b5hERUXYweUxERBk53BLAY7s7cK4njDKPGQ9eX4ENNa5sh0U0bo/s6oAgAJ9cX5ztUIiIiMaFZSuIiChbmDwmIqJxaewO4fHdnTjaFoDXLuOBzaXYUu8Fr2NoLjncEsC+s4P42BWFKHSash0OERHRmAwAOstWEBFRljB5TEREl+Tzx/D79zrx7ul+mE0i7lpTiNtWFkCReQFDc4uqG/jNjjbkO0y4dUV+tsMhIiIaF003YABMHhMRUVYweUxE42JEAjDUCBCLJNoEmxuCklzjVvf7ADWacf+CYoVg8yS/ZngQRtifebCiBNFVlNyXGoHh78m8LwCiqxAQkz8u9b62CfU1tWNmgWDzJrVNfMxEiK7kW/j9gSC2H2jEjtP9MAB8bKET1y91wW5WAX879Et15ywEpCkaM6sLgtme3NcExwwmC0T79I2ZoUZh+H2Z94WZGLMeQI2M8oxLSDtmfhjhwQkEJkJ0T+WYFQBS8urhS43Zu6f6oQR8+Mz6Esj+jqTf4akdMzNEe15S08THTIDoLknua6rHrL89Xsg809CsTgjm5JrReqAn6TwxbunGLOKHEZqaMYMWgz7YnXlf4JhNhODIhyAnb5w64TGzOCFYpmjMZDNEx8gxC8AIDWTeFwDRU5rcMOVj1gEYlzrbjtJX2jHrBWLhzAOb9jFToQ92TaivtGM20AHoExkzBwSLM6nNCPbCiE5kzBSIjuQJysmOmarF3zuSKExyzPIgyOaktlk7ZtEgjGB/5n0hze+ZrkIfmMox6wR0LflASYYgKxDMTkAUJ/RaRESzFZPHRJRK16B1NULrboTW0wzD3w0jzUWaeeUtkKvXJLVFPvgj9N6WjF9SLr8M5ivuTGqLNe5F7NSOjPsSzA7YbvqLpDa9pxnhXY9n3BcAWLf+eTx5kOhMQ+jtX06oL2XlzTBVr01qi+x/FnpPc8Z9yWVLYV77saS2WNP7iJ3cnnFfgmKD7eavAACiqo6XjvTg5JEj+HPHO7h6OKc/AGA3EBpHf9atX4wnQ4cZ+sTHbMVNMNWsS2qLHngemu9cxn3JpUtgXnd3Ulvs7D7ETryTcV+CYoXt5v83qU3va0V4xyMZ9wUA1i2fT0lGT3jMlt8IU+36pLboweehdZ/NuC+pZDEs6+9NalPP7kP0xNsZ9yWYzLB9+K+S2vT+doTffTjjvgDAeu3nUhJeoXd+NWqCai2AtXkATgOh08mPKZd9CKa6K5Paoge3QetuzDguqXgRLBs+ntSmntuP6PE3M+5LkBXYbvnrpDZ9oAPh7b/JuC8AsF7zAERPWVJb6J1fTShxoCy7HqaFG5PaogdfhNZ1JuO+pKI6WK78RFKbeu4AosfeyLgviDLst/1tUpM+0InQO/+ZeV8ArFf/KURveVJbaPuvAU3NuC9l6VaYFl2V1BY99BK0zoaM+5IKa2HZ+MmkNvX8IUSPvpZxXxBF2G/7elKTPtiF0Nu/yrwvAJbNn4GUtyCpLfzuwzAmMOmnLNkC0+LNSW3Rw69A6ziVcV9SQQ0sm+5PalObDyF65NWM+4IgwH77Q0lNut834c9ty1WfhpRfmdQW3vFw2u9fY1Hqr4Gp/pqktuiRV6C1n8y4L6mgCpZNf5LUprYcQfTwyxn3BQD2O76R9Hc9MIkx2/QpSAXVSW3hHY/AiI7nm0oyU/3VUOqvTWqLHnkNatvxjPuS8ithuerTSW1q61FED72UcV8AYL/961D1+HlNlgTowd6Jj9nGT0IqrE1qC+94FEY0mHFfpsWboSzZktQWPfoG1NajGfcl5lXAuvmzSW1q61FED76YcV8AYL/ta4AoJf6uB/omPmZXfgJSUV1SW3jnYzAioyw8EEWINi9ETymkgmpIRXUpSXYiormGyWMiStD9Pqhn9kBtOQJjIqtTaE4zDGBP0wAe392Bbn8MHy5VAG3s5xERERHR9NGGk8eigHgFZJq1dB263xe/rmo+DAgCpIIayNVrIJfUAwJLjxDR3MPkMRHBCPYhevR1qG3HJnRLKc19qm7goafP4FxPGOUeMx68vgJrHRaEd2Y7MiIiIqL5bbhsBWsez0GGAa3rDLSuM4g5C2DZ8PGUsnNERLMdk8dE85x6dh8ih1+e0O23lDuCUR3+iIYHNpdiS70XogBoXROr20hEREREU+fishU0h4kyBKtn7OOIiGYZJo+J5jnRVTLmamNBsUJw5EO0OAHZDAjxTSCEi+sAD5FL6qGPqNs6HtLIjS0ASJ5yGFVr0hx9aSM3TwHim2HJE+gLAASTZUSDMOG+kuoAD5FL6qE7i9IcfWmSpyRNW9m4xiwc03GmK4SOgSgkUUBZvhP/fNtCKPKFixLBMoVjhqkdM6l4EQRH6u/fWCR36u+m5C6d4O+ZKbXN4pzEmFlT2iY8Zq5Rxsyen+boMfpyp/5uip7SCcUmSKlfOwSLY+JjpqQbs9VJd/S29EVwoj2IZaV2lLhTPxuGjdxkEwCk4oUQ7JmvDko3/qK7ZGJjdlHNxkSbeTJjZktpM1WuhjGBu05GHTNb5hfGUztmqRsVCWb7xMdsxEaKAGCqXAVjAnWiUzalw9CYWd2Z95XmHCy6iiY2ZmluoxYU2yTGzJHSJi+4HMbIDabGIe2YFdVOqIboyA25gImPGdLk8ATFOvExs4wyZhOY3E/ZLAxDY5bm32XMvkZslgfE368T/TlHEkyTGbPU3wF5wUoYaizjviR3mjErrAXSfGaOZeQms0D8u8zEx0xIJI8lUYBgskxizFwpbfExy7weuTSifj4ASIXVQMp3wLFN+ZiN+Eyb1JhZ04xZxfLUMVMjMGJh6H4fjFB/6vWVIMC88sMsW0FEc5JgTORqgYhySqxhN6JHXklqEz2lkCtWQCqsTXuBSnOTP6Lh+YM+bDvsg2EA1y724O4rCuGyci6Rck8gouGrvz+NEpeCb95Rky7XQ0RENOud6wnj60+dwZe2lOOqhZlPNtHMMqIhaN1N0FqPQW0/Cegq5KrVMF9+a+qxkUDaSUoiotmE2QIil9OK8QAAIABJREFUgqluA7TuRmgdpyEV1sJUfw2kvIpsh0VTKKrqeOlID5490I1QVMf6GhfuXVeEYtfoKzGJ5rrfv9cJf0TDpzaWMHFMRERzFmsezy2CYoVcthRy2VIokQBiZ3bDVLsh5Th9oBPhdx+GafHVMNWlPk5ENFsweUw0jxihAcSa3oOyZGvKLVPmlR+G3tcOqbQ+S9HRdDAMYE/TAB7f3YFufwyXldlx3/pi1BRkfksh0VzS3BvBGyf6sKXei7rC1PIWREREcwVrHs9dgtkOZel1Ke1GqB/hXY/DiIURPfIKBLMNcsWKLERIRDQ2Jo+J5gtdR/j9p6D3NEMf7IbliruAi+qPClY3pAnUXKTZ63BLAI/t7sC5njDKPWY8eH0FNtSk1m0jykW/2dEGi0nEPWszrydOREQ0m1xc85jmPiMaRHjnYzDCg4m2yP7nIDoL09Z5JyLKNiaPieaJ6PE3oPc0AwC09pMI734c5vX3QpDNWY6MptqZrhCe2NOJo20B5NlNeGBzKbbUe8HrDZovdjT041hbEJ/ZVAKXJXXDOSIiormEZStyi97TDD3QM6JRQ+S9p2Dd8nlASt2UmYgom5g8JpoH9IEOxBp2J7Vp3WcRO/oGlJU3Zykqmmrd/hiefK8T757uh9kk4q41hbhtZQEUmRcalLsau0OQRAGVefFSLOGYjsf3dGBBnhnXLUndvZ2IiGiuYdmK3CKVLIay/CZED72Y1K4HehA9+U7aMhdERNnE5DHRPBA99DJg6EltgtUF05JrshQRTSV/RMPzB33YdtgHwwC2LvHi7isK4bLyI55y3+nOEB7e2Y6r6ty4/8oSvHDIh96Aii9vKeftvURENCfFNAM/eOU8dCOeNB4MawCAp97vgscmw2ISYZZFfGJDMe8sm6NMNWuhD3RAPftBUnusYTfkytUQ7ZwAJ6LZg5kFohyn+c5B851NaTevvgOCYstCRJSJhq4QLCYR5Z7U8iJRVce2wz147kA3wjEdG+vcuGdtEQqdvNWN5o9ARINhANtP9+Ngsx/BqI6NdS4sLbVnOzQiIqIJMUkCyj1mbDvsS2o/2hZI/P8dqwqYOJ7jzMtvgt59NrmEha4hdnoHzJffmr3AiIhGELMdABFNr1jDzpQ2uWI5pILqmQ+GMhJVdfzszRb8dm9nUrthALsbB/DXTzbg9+91orbQin/4aC2+vLWciWOadwKRC3dVDIQ1qLqBtv4oTnWGshgVERHR5NyyIn/UGsd2s4RbV+TPcEQ05SQZyoobU5rV8wdhRAJpnkBElB1MHhPlMCMSgNbRkNwoCDDVs1zFXPDYng609Uex7+xgYqXJ4ZYAHnr6DH7yWjPMsogHr6/A126pQnWBJcvREmWHP6KltDV1h/HtPzbi/77Viv6QmoWoiIiIJsdrl3HVQnfax+64vAB2MzeEzQVS0UKIeRXJjboGtflwdgIiIkqDZSuIcpjaeiyl1rFUvBiiPS9LEdF4HWz247WjvYm/P7qrAzZFxLG2IPLtJnzx2jJsXuiBwNsVaZ4LRFOTxwBgAGgfiCIQ0eBm/W8iIpqD7lhVgHdO9WFovzwAgNcm44ZlrIebS0x1VyLS82RSm9p6FKa6DVmKiIgoGa+miHKY1tWY0mZasDILkVAm/BENP3+7FRddJ+CsLwybIuG+9cW4cVkeFJlZYyIA8IdTk8eKLOLO1QW4dSXrQRIR0dxV7FKwttqFPY0DibY71xRCkXkDcS6RixchqlhhRC+U3NL7WmHEwhBMvLuQiLKPZx2iHKb3nEtuEEWIhTXZCYbG7Vfb29AbTL3V3mWV8OHlTBwTXSwwomzF0lIbvntnLW6/nIljIiKa+z6yqgDDp7MSt4JrF3uyGg9NA1GCVDDiGs0woPecz048REQjMHlMlKOMsD9p9hoARHcpBFnJUkQ0HttP9SetLrlYe38Urx/vTfsY0Xw1XPPYpkh4YHMpvn5rNUrc/JwjIqLcUJVvwfJyBwDg7iuKIHFmNCeJ+ZUpbfpgdxYiISJKxbIVRDlKD/SktInOgixEcmmarqN3MIxefwiGYYz9hBw2ENbw6x2XTg4/+V4HSuwazFJuXjiYTTIK3DbYLUz+RWIafAMB+EPRbIcyq/kjKhYXmXHrMiecFg2nmnmhNUwWRXicVngdVtZHJ6Ks6POH0DMYhqqlr09P47O6XEbngAyvKYqTPM9NiiJLyHfb4LSasx1KEtFZmNKm+31ZiISIKJVgzPdsDVGOUtuOI7I3eeMFpf4amOqvyVJEF6iajpffO423Djbig5NtvKAY4sgvg2J1QDd0QNdhGDoMw4CuaYChQ9d1AAYi/l5osdxOKBZ67Ni8ogo3r1+MReX52Q5nxvhDUTy78zjePtiEk+e7wDP0pQmCALPDi/Bg6mQZXWC3mrHpsgW4ad0irFlUlu1wsmZ4sjKm8pxDmTMrMidixuno2U5s230S2w+fRb8/nO1wcobJbEUsEhr7QBqXIq8dm5dX4/ZNS1BVnP1SIIYahd7fDkGxQpBMgMkCQTaDHzpENBsweUyUo9TzBxH54I9JbcplN2R91963Dzbhp8/sRkevH4rFBsXugWy2QZJN/HJEMHQNWiyKaHAA0UAfdF3D1tV1+NId65HvsmU7vGn1h+1H8ctt+xAMR6HYnDDbPZBMZoiyKduh0RxlGDp0NYZoyI+YvxexWBRrFpXjK/duQlm+K9vhTTvDAHYfO4+3DzRiz4lm9A6GOCFDkyKKIorcdmxcvgDXr67DsuqibIc0q/QMhvDD/96Bdw81QZJlKHYvTFYnZFkBRFZLpNlh5HdNwzBwy4bF+NId62E18zsXEVE6TB4TzQe6DkOLAoKYtZrHhmHg58+/hydePwiLzQlHYSUUe+4nL2jiDF2H39eKYE8r3HYF3/3cjVhcMftKr0xWTNXwz7/bjlfeOw2L0wtnURVMZmu2w6KcYyDY2wl/dzPMsoBvf/Y6rM7hVchHmjrw46d349T5LsgmBYrdA0mxQJJYsY0mxgCgqzGokSCigT5omoYrl1bif9y5AeUF/D7T0NqDr/38JfQGIrDnV8CeVwJBYMKYZjdd0+D3tSDga0VViQf/+LkbUeR1ZDssIqJZh8ljIpoRP35qJ/6w/SjseaVwF1dxlTGNmxoNo6/5BAQ9hn//n7ejttSb7ZCmjGEA//jYW3h1XwOcxVVw5JVmOyTKcVosir7m4zDUCH784K05OSHz3M7j+NF/74RkMsNeWAGrM5/nHJpShqEj0NuBYHcLzLKIv/vMVqytL892WFnT0evHF//1GYRVAZ6KesicAKU5JhoYQF/LSZR47fjpX97OvTeIiEbgdDARTbvnd53AH7YfhbOwAu6Sal7EU0ZkxYK8qmXQIeKhX7ycUxvIPb39CF55/zRcRUwc08yQTAq8VcsAScZDv3wFgXDuvJ8A4MU9J/Gvv38XJrsb+dUrYHUV8JxDU04QRDjySlFQuxKqqOBrP38Z+0+3ZTusrNB1A9/41asIRTV4KpcwcUxzkmJ3wbNgCVp9A/j/Hn8na3EYsXDyHzW3ztFENHdJ3/rWt76V7SCIaOpp3U2IHX0NWuuxxB9BNkO0581oHIOhCL72i1cgWZ3wlNQBvIanCRBECYrNha72Fui6nhMrvAZDEfyvX74G2eaGq6Q62+HQPCIIIhSrG76OFggCcmYTvaNnO/HN/3wNFqcXeQvqIbDGKk0zQZRgdeUjPNiLdw404Ma1C2GbZzVTX9p7Cs/tPA5v+WIoVme2wyGaMMmkQBAknDzThNULy1CcN7PlKww1iuC2f0Ls9I7EH913DnLlqhmNg4goHRZ+I8pRRqAXauuxpDYxvxIS6mY0jt+/cRjBcAyFdUtnXeK4Ot+CK+vcEC+KS9UM+CMafP4YjrUHMRBSsxcgAJsi4tsfqYXbJuM/3mrF3qaBrMaTTSaLHTZPIZ56+yju2bICec65vbrpmXePIRiJorB8abZDoXlItthg9RTiybeO4P4PrYJFmdtfCQ0D+MnTuyCaFHjKFmHWnXAoZwmiBO+CenSdOYBfbXsff/Xxq7Md0ox69LUDMNtdMDtzp6QUzV/2vBIE+9rw2GsHsbKuJNvhEBHNGnP7SoGIZr1X9zXA4vRAVmZfou+2ywtwZe2lN7nZf96PJ9/rRJMvPENRJcuzm1Dijtddqy20zOvkMQDY88sQ6O3A9kNNuGPT3E66vnWgCWa7i7f4UtbY3UXo6u3EnuPNuGZldbbDmZS9x5tx4lwXvOWLuOKYZpxkMsPuLcGLe0/hT25YjZIZXrGYLWc7+tDSNQBP2cwuTCCaNoIAi7MA+061IhiOwWaZX3cSEBGNht+uiWjanO3oQ3vPIMyOmS2VMV7S0MK0M10h/OKdVvzinVY8vLMdz+zvxon2IAwAqxY48K2P1GDzQndWYmzrj+Klwz3Y0dCPd0/3ZyWG2URWLDBbbNhx5Hy2Q5mUYDiGM60+mG2ebIdC85jJ5oBsknOiVutbBxshm2RY3fnZDoXmKVteCWAY2H6oKduhzJjDjR0AALOD5zLKHWa7B6qm4cT5rmyHQkQ0a3DlMRFNm5bu+CpZk9We5UgurXMwhjdP9KW0VxdY8OUt5SjzmPGFa8vhC8RwrC04o7FpuoH/2tU+o68520lmO853pv57zSVd/QEYBiAplmyHQvOaAMlkQXd/INuBTNre4y1QbF6wXAVliyQrMFnseP9kK+6+dnm2w5kR3f0BiKIASebqTModkmIGAHT3z+x3fiKi2Ywrj4lo2vgG4l+6JGluXlQ0dYfxD881oTeoQhSAz2wqHTMtIQiAxyajwGGCSRo7iWGSBBQ6TXBbJzeXZzdL8NpkyGLmiRObIqLAYZrQc7NBNCnwDYSyHcakDATiZVBEmXO4lGWijN7B7JTlmSq6bqBnMAjZzMkYyi7JZEW7bzDbYcyYwWAUomQCJ20ol4hD1y39gbl9biQimkq8aiWiaROJxjebE0Qpy5FM3GBYwxN7OvClLeWo8JqxrMyOI62pq/QcZgl3rinEpjo3nJb4zxvTDBw478dv93agrT+adHy+3YRPbijGmipnIsncG1TxxvFePLUv+Ta5//3RWhQ4TfjBK+dxov3CKggBwA2X5eGmy/JQ7IrXRdZ0AwMhLXGMZhj43gtn0TEQf/3v3lULj82Er/7uNIpcJty/oRhLS+MrwyOqjrdP9uHxPR2IqsYkR276CIKImJrdjQwnS5+9w0vzjCAI0I25/Qs5EIxA1w0Ic3SiknKHKJvQG5g/yWMDBgTmjSlHze0zIxHR1GLymIhoDHsaB/DA5lKYZRErKhwpyWOvXcY3bq1GsUuBP6JhZ8MAdMPAklIb1lY7sazMju8834SzQ5vu2c0SvnlHNfLtJnQORnGiPQiLLGJpmR13rSnEq0d7MBC+kAAucJrgMEtwmJOT8J+9qhTXL/VC1Q18cG4QwaiOJaU25NvjCZSBsAboSLqwy7PH+7pqoRufurIYoiCgtS8Cj80EmyLihmV58Fhl/Oi15mkaTSKiqTXXk9+UOwTEJ3GJiIiIcgmTx0REY4hpBpq6w6gvsaEyz5zy+BeuKUOxS8GpjiB+8Mr5ROJXFgU8eH0Frqhy4vNXl+EbfzgDALh2sQf5dhMau8P41h8bExeaJknAxjo3AlF9zJiq8y24fqkXugF85/mzONURX5GsyCIeuqUKdUVWbDvkw7MHutM+/zObStDcG8G/vd6M5t4IBAH47KZ4MnpdjQtV+ZZEspuIiIiIiIiI5ifWPCYiGoe+ULxMwsjVv9UFFqwod0DTDfz0zdakFcOqbuDhne3QdAPVBRZU5sXrcRYNlZg43RlMWqEU0wy8fbJvXKuWlpfHS00cbvEnEscAEFV1vHSkBwCwvsY56vPP90Tw7Wcb0dwbAQAYBvDo7g4Eo/H4l5baxoyBiIiIiIiIiHIbk8dEROOgj5LQXbUgnqA90x1G52A05XGfPwZfIAYAqC2MJ487h+oPX1nrRnXBxDZ4spjiH999wdTav4GhBLDDPPrNJU/t60JwxArnqKqjoSu+EZ3XztqhRERERERERPMdy1YQEY2DTYmvOPZHtKT2Cm+8jIXXJuNLW8ov+VynJf6R+/rxXly3xIsSt4Jvf6QWu8/049VjvUmb4Y2lfWgDvoVFVohC8gZsy4Y2wBveJC+d0WqEBiPxhLIicQccIiIiIiIiovmOyWMionEYThJ3DsSS2m1KfAVwgcOEgoXuUZ+v6kYi4RuO6fj7Zxvx6Y0luLLWjY118T9N3WH8YnsrmrrHrjW8t2kQ9wRiKPOY8aUtFXjhUDfCMR2rK524aXkeAOCNE70Z/5zc5oeIiIiIiIiIhjF5TEQ0hlK3gnxHvIzD8fZA0mNRNZ5u3ds0gB+92jzuPgfDGv79jRb87r1ObF3ixYeW5qG6wIJv3laNb/yhEa19kUs+32ISYZJEGAA21rmwsc6VeMwwgKc/6MLuMwPjjoeIiIiIiIiIaCQmj4lylGC2QfSUjmizZymaue32ywsAAMGohv3n/UmP+fzxlcj5E6wR3DUYw+/2duLlIz146NZqlLoV3LoyHz9/u/WSz7tnbRFcFgm/eKcVgYiOuiIrbIqIrsEY9jYNJFY5ExERERHR7CaIMsyX35LcZnZkKRoiomRMHhPlKKmkHtaS+myHMedtXeLFNYs9AIAXDvkQjiVvMne8PYibluehKt8Cr01Gb5oN7MajL6hi95kBfHR1AdzWsT+aq/LjG+0NhDTsOzeIvU1cZUxEREREmfnaLVUocJjwf95sQUNnKNvhzF+iCLlqTbajICJKi8ljIqIRbIqEhUVWXLfEi7XVTgDAoRY//ri/O+XYfecG0ROIIc9uwpe3luOHrzYjMGJTPa9dxmVldmw/1Q8AuPuKIrzXNIAm34XaxpIoYEV5fGV42xglKwCgsTuEmgILHry+AsfaAhgMa4ioOsIxHX1BFc29ERxq8WOUffGIiIiI5pTqfAuurHNDvMSevv0hFc8f9M1cUDmgKt8Ch1mCZxyLF7LBpoj49kdq4bbJ+I+3WrlggogoC2bnGYKIaAatq3bil59dAgCQRQHSRVclugG8dqwHj+7qgJ4mEavpBn72Ziu+elMllpba8cP7FuFISwB9QRU2s4gytxlV+RZEVD2RPL5qoRsfXV2AU50hnBtKIK+osKPIqSAY1fHy0Z4xY350VwcWFllRmWfByor0t7S190fxzy+fYwkLmnYL8szYVOeGAWDf2UGcvsTKpcsXOLCy3IEPzg/icEsg5XG7WcLmhW4sKbXBY5URiuk43xPB3qaBlH7LPWZsXuSGKAjoGIji7ZN9UNO9UdOwmETcsCwPTouEqKrjhUM+BKPJdxaMJ1Gxu3GAK7WIiGbAbZcX4Mpa1yWPiarGpJPHJklAZZ4FfUEVvkBs7CfQtMqzm1DiVgAAtYUWJo+JiLKAyWMimrfO9USwtia+6nc4YRxVDQyGVbT1R3GyI4i3T/ahY+DSydejbQH8/bONuG99ES4rcyRWKwPx5HJDVwivXJQQfmRXO+5dV4RFRVYsKrIm2vedG8Tv9naiazD5QiWmGUn/BYCtSzyozLOgtS+Cf3+jBapmQJEFmGURpR4zbluZjxK3gr+8YQH+9skGGJfoK/m19Es+TpTOHZcXJjZtvPmyfHz96YZRJy2urHXh6kUemGQhJXlcX2LD//zQArgsUlL7ygoHbl2Zj+cP+fD47o5E+0dXF2BjnTvx9yKXgif2dGA8PrupFJsXXXhu12AMb53sSzpmPIkKTTeYPKZpZZIErK50YkW5HXlD9fW7/DEcaw1g37nBtJ/XmUzCAJyIoblBGvr9OdMVwuvHe9Me4x9x99dEbKpz4/PXlKGlL4K/ebJh0v3R5LT1R/HS4R44rRLePd2f7XCIiOYlJo+JcpTu90H3nU1qE/MWQHQWZimi2efpD7rw9AddU9LXWV8Y3992DhaTiGKXArMsIhDR0OWPIqomX4C/f3YQ758dhMcmI99hQkw10DkYTamnPOwrvz0FkyQkLsYdZgkfX1cMA8APXjmPthFJuuPtQZzrCePv76hBuccMj11Gb0BN29dIP3+7FY/u6kAgOvmLL5o/ZPHC/yuygPs3FONfXj6fUR92s4S/vGEBHGYJrX0RPP1BN1p6I3BZJSwrtWPLEi9qCywjXjeeSRgIa3BZJGyt9+CpfZ0p77mRvDYZG+tcUHUD4ZgOh1mCLKVmtYabmnxhbD/Vl/I4ABxqTl09TTRVVi1w4LNXlaLAkbop64eWetEfUvHrHe3Y23hhJV6mkzAAJ2JobukcjOHNE+k/k6eCMPTZLwqXmO2gGaPpBv5rV3u2w5h+Wgyhdx9OahJdxTCvui1LARERXcDkMVGO0n3nEDnwQlKbsuImJo+nWTim4+xFtYwvpS+oom8cG+zFNCNpZdmCPDNMkoCoaqB9lFXRihTP5ukGELooUTyyr5F0Y2pW7cx3oZgOq0kc+8Acc6I9iPoSG1ZXOrGs1I6jbeNPrG6sc8FhlhBVDXzvhbNJm08ebgngjwe6UeYxp33u/nODWFPlhMMsYX2NK1EiZjTXLfVCEgXsbOhHbaEVDrN0yePb+6N48fDY5WSIptJVC9344rXlEIX4BMmbJ3rR2BWGqhsocSu4ZpEHC/LM+PzVpYnk8UQmYQBOxFCq050hyKKA6jS/L3SBIABuqwxZFNAfUjO6c8skCfDY4hP8Y630tykibIqEvuDYxw4f7zDLCMU0DIan93vdZF5LkUW4rRL6Q+qYnze5zjAM6H1tSW2CyHQNEc0O/DQiIppjeoZWESuygLvWFOLZA91JX7jLPGZ8ZlMJgHj92dFWNNP0+Y+3W6FqBj6yqgALLypNkuuOtwchCMDiYhs+saEY3/zDGYz3UrB8KDHc2h9JShwPC8d0nOlKvypR1Q28e6ofNy3Pw/VLvJdMHkuigK31XgDAa8d6UVs4f/595qpjbQE0dYdxw2V5iSRnritxK/izzWUQBaChM4R/eulcysTetkM+bKpz48Mr8hNtk5mEATgRMxNahzbFvdS/w2xwvieMX25vw4pyB25flY9lpfZsh5Qxr03Gd+6qgyQAD+9sTyl5UOE1428/XAVZEvDQU2ewutKBj6wqhCLHP2eKnCb85BOLAQAGDPxqexv2n/cDiN8FdueaQmyqc8M5tMo/phk4cN6P3+7tSLkrDAC+e1ctPDYTvvq701hd6cCnN5bAbpYQjun42lMNibJlFx9X5DLh/g3FWDo0/hFVx9sn+/D4no6UZGuh04Sbl+djTaUThc4Ldyt0+2N46UgPXjzkG/c5eSwTea3v3VUHl1XCXzxxCsUuBZ/cUIwV5Q4IQnx18ftnB/Hwzva0Cyv+90drUeA04QevnMeJ9uAU/RRERDReTB4TEc0xHQNRvHykBzdeloc7Vxfi1hUFibIXTouEYld8U5HG7jB+tb01y9HOT7IoYG/jAD44N4jFxTbcdnk+Vlc6ketpL1EAfru3E//rtmrUFFiwaaF73PUJo0OrtQodJiiyiKia2aTHGyd6cdPyPCwqtqHCa0ZzbyTtcWurnfDYZLT0RXCcF6AQJAnGLL81uzeo4tHdHXj1WC8+sb44qa58rrpnbREUOV5i6F9fOT/qHSE7Gvqxo+HCe2wykzAAJ2KmU08ghj980I23Tvbhz68tn/XJ4+G9IA61+HGoxY/qfAtuXp6PTQsvXbt6NukNqth/bhDXLPbgTzaW4MB5f+K9JAD406tK4bHJeOtkH3yBGEySCIdFSvx8oijAcVH5l+FV9V67jG/cWo1ilwJ/RMPOhgHohoElpTasrXZiWZkd33m+KeVOtDy7CQ6zhGsXe3D/lcUAAAPxuuE2RQIQSzruqoVufOrKYoiCgNa+CDw2E2xKvMa4xyrjR681J/p2mCV87646WEwiwjEdpzpDCEU1lHvNKHDEE9AOs4Tfv9c56XGd6Gt57TIcZgmb6tz4082lkEUBbf1RyKKAQqcJ62tcqMyz4JvPnEkpr1bgjI/JWBNUREQ0PZg8JiKagx7e2Y795/24aqEbNQUWeGwyRAEIRHTsOzeIvY2D2NHQD22cGx7R1DJddNv2yY4g/vXlICrzLLhlRX5iY7lcJAoCTrQHse9sfPXiPWuLsKdxYFy38R5pCeDWFfmwmyX8xYcq8KNXmxHJIIHc3BtBQ1cIdYVWXLfEi4d3pq+PeMOyPADxZBcB3rJFGADwqV8chd0swSyLsJhEmGUh8ffhtvjf4xtzmk0i7IoEs+nC4zZl+Lnx/06V4bsnOgai+OGr57G01IZPbihBTY7eTu+2ylhbFU+Qv3K0B/2hscsbDZvsJAzAiZip5o9oeP6gDy8d8SVWiqr67L8jyDSi/EiTL4yfvdWCpz/owo3L8nDdUm+WIovH5ramXsbGNAPBEXs2PLa7A6srnXBaJNy3vhi/eCc+qX5tvQf1JTYMhLVEDfBth33YdtiHLfUefO7qMrT3R/FXvz+d8jpfuKYMxS4FpzqC+MEr5zEwVKpBFgU8eH0Frqhy4vNXl+EbfziTNv771hehazCGf3ujGU3dYVTlW9CS5n32mU0laO6N4N9eb0ZzbwSCEK8xfv1SL9bVuFCVb0kkqCUxvtnltsM+7D5z4bwriQI+u6kEW5d4cfPyPPzhg65Jb4o82df63DVlaBva8Hk4/vU1Lvw/11WgxK3g9ssL8Nu9k09yExHR1GHymIhojjrY7MfBZn+2w5gXwjEdmm5A1Y1EQjMQif83oupQNQO6YSA0lOTqGky9XfVcT/zC+6l9XVhZaoIg5GBN5KFcwxN7O3H5AgcKHCbcdFkenjvoG/OpB5v92Ns4gHU1LqyscOCf7qnDk+934d3T458EefNEH+oKrdi8yI0n9qbe0lvhNWNJiQ1RVR+17up8E+zvgtcq47orFiIS0xGIaojEdERUI77p52AM4Zhh1gkFAAAgAElEQVSOiKpnXALHpkgwmwRYEsnleLLZclGy+eLk84VktACLSUokowdGJE+PtQXxzWfOYPNCD+5dWzSVwzErLC21JVZ97j4zMMbRySY7CQNwImaqRFQdLx7uwfMHu1NWUWaavIuqBmJavI9QTIduGNB1JM45UVVP9BmKatAB6Lpx0eMXnj8ci6obiMSSz2MAEhvmjjZp0TEQxX/tascLh3zwCKkbOc6EK6qcuKIq9Q6EiKrjz359PKnNH9Hw6O52/Pm15bi23oO3TvSiYyCK+9bHV/4+uqs9o70eqgssWFHugKYb+OmbrYnEMRAf04d3tmPVAgeqCyyozLPgXE/qPhgxzcD3XzyL9qHSFqPdDXC+J4J/eK4x8W9mGMCjuzuwsc4FmyJhaaktkXztD6l46OnUZLWmG3hqXxe2LvHCLIso95jRNM69OUYz2ddq7Yvg2882IXDRuO9pHMC7p/tw9SIPNi/y4Hd7O6esxAYREU0ek8dERDTnKFY7DrcEEIpp0I34hVhU1WEYSKw6iqg6NB1QtYsTvhceU3UDmg6EY/G2YDT+/JimI6oZMAwj5YJ/KnQORnFM1CGbc+8W7+F1aq19Ebxxog8fWurFHasK8eaJvnFdnP/0rVZENQNXLXQjz27CF64pw91XFCZu9R4ribyzoR/3byiGTZGwocaNd0YkiIeTXTvPDGT0b1tTYMEDm0tT2nUd+O3ejkSCZi4KD/hgkeO3GY/HcBIqqsWTy4GIFn//aTqCER2BiIaoFk9kJT8e/3tfMJo4fjCsTfjuCMMA3jnVh92NA7h2kQuimDu3MtcUxD8bYpqB5t7MkjxTMQkDcCJmsl492ounP+gaNQH74uEe7DozgNDQ+Sp+DhtK/g6d1y5O/k4XmyJCEASIAmA1xd9DiiwkNuUdjSKL2LTQjdZzY08MTgd/RENHmprCgWj688z2U/24ZpEHy8rs+NPNpWjujcBhlnC4JTDu0krDVi2IJ63PdIfRmWai2OePwReIocipoLYwffL4qX1dicTxpTy1ryvlXBVVdTR0hbCi3AGvfXzJ+95gfCM/kyTANs1lH8bzWk++15WUOB62t2kQVy/ywGuTUeA0JWpAExFR9jF5TEREc46zsBr/uO3suI+3my+6KBZFiCJgHbqt3mqSIIqAx2aCIgkQBAzVHgTMJhGyKEASBZiHNtAZ7sssi5AlAZIgJG7RH74Qf/lIT0riEognXO5dWwRJDWDvzsDEB2AOeGpfFzYvdMOmiLhzdSH+a1f61YsXi6o6fvpmC9451Yd71hahrtCKPLsJD2wuxZZ6D37yevMlLybDMT2eTFzswXVLvUn/BlaTiKsWugHEEzuZKHYpiVriI712vAfne9Lf1p+LFFmAIkuwI74Z1WQFo/FVzZGYjlBMRyiqIazqiMQMhGIaQjEd7zcN4mRH+rIIMVXH+Z4oZLNt0rHMFi5r/DNmMKxiIrn1yU7CAJyImQxNB5472H3JciPhod91i0lMrDK3D513ZCleGgZA0uM2Jd5mksTEhm5WkwhRFCACsA493yQJUGTxosfjJYWGz3mKLKaUpEjnUIsf3992LqlNEgVcu9iDO1cXwmuX8ZPmhnGNyVQ73BLAv73ePPaBF/nVu2343l11qMyLrwiOaQb+8922jF+7whuvVe21yfjSlvK0xwx/h3Ba0n9GdgyMnTgGAN1I/14NDt35pIzy71jhNaOmwAqvTYYiixAEXKjjPMX1qifyWqP9XG19F86lBQ4mj4mIZhMmj4mIaM4Z6GzCP3/59sRFcjzhO3SxLccvti++AJ9p+Q5Tyt8/tqYQmxd5IArAgYbcThwDwEBIxbMHunHP2iJ8aJkXLx/tGfcF8+GWAA63NOKyMjvuW1+MmgILagut+Oubq/DQ0w2XXBH35vFeXLvYg0VFVizIMycSu5sXeWAxiWjsDqOxe/QNw9I51RnCy0dSV9hpOtLWqaTxsyli4r07mvb+aEryWJEFXLXQg5suy4NN1vH6G4OwegqnM9QZYxn63JpoXdLJTsIAnIiZDEkEfvDxRfjg/CCe3teFxu7UlacfWubFHZcXZCG68ZMvyvwJiNekvWdtEUrc6f/9Zrv2/ij2nx/Euur4vgNHWgPjPiddbPjzqsBhQsHQ+yAdVTfGtbp4Ikb7ZFhYZMUDm0tRmTf99eCn47UuXo1sknKwtBcR0RzG5DEREc05sXAAy8vt2Q5jVMOruhxmCbeuzMdNl+UnVorNJ9sO+3D9Ui/y7Cbcu7YIP8lwpdiR1gC++cwZfHpjCW5YlodSt4Ibl126hvKpzhCaeyOo8Jpx3RIvfrMjvuL5hmXxzZ1eO9aT8c/h88ewsyGz2rM0dYZLywDxzeSuX+rFDcvy4LTEV/f1DGY2GTDbDa++tU5y08HJTMIAnIiZDEEA1lQ6sabSiRPtQTx30IcPzg0mHlcnuWHZTBhOHi8vt+Pj64rn/AaV1QUWXFHlgm7EV8RevsCBJSW2jDd7HH7f7G0awI9ezeycNp3KPGZ8/ZZqKLKAI60BvHwkPmE7fGfAP99Tl1iRPltfy35RmYtMa+wTEdH0YvKYiIhoitnNEu64vAC3XZ6fuH11PoqqBn7/Xhe+eG0Z1te6UH3QglHuVh2VYQAP72jHinIHStwKFpfYgDE24HvrRB/uv7IYVy304PE9nVhYZEWZx4xQTGcSeA4KRXVU5Vtw/VIvrl7kGdct93PZ8AZcTqsMq0mcdCmHiUzCAJyImSr1JTbUl9hwsiOI5w7Ek8hzIXmcZzfh67dUYVnZ7J2oHS9RAD53dRlEAXjuoA9lbgVrqpx4YHMpvv7UGagZ1Ifx+eOr9vPHWW94ptx4WR4UWUBDVwjf33Y2peTNVP7GTddrlXnMif+fyKpwIiKaPrwfhIiIaIp9aKkX964rmteJ42HbT/ehyReGAODetUUTquFqAOgJxC/YRWHsxOH2031QdQM2RcSVta5Esmv7qb7E5ok0d/zJxhJ8585aXLfEm/OJYwCJ1bwC4onHqTA8CTN8G/3icfb71ol4uYqrFnqgyCKWldk5ETNBi4tt+MqNC/C9j9WNe/yzKd9hyonEMQDcsiIf1fkW9AZUPL2vCw/vbEdU1VHmMeOOVanlQ7Sh00S6kjrDK5Wr8i1TUvd9qhS74snsM12hlPOsIgvjOnfO1GvdsCwvUcv7Ypvq4mVAOgail6wZTkREM4/JYyIiIpo2hgE8vrsDALCywoHawvS3Pl/qItwsi6jMjz+vpW/sW9sHwxrePxu/Rfy2lflYU+kEALx2LLP6rDQ7jFYjN1cdbQ0k6h1vXeKdsn4znYQBOBEzHSq8Zqxa4Mh2GPNGkVPBXWuKAACP7G5HRNXR7Y/hD/u7AQC3X16A0hF1nPuC8cSl2yon1fQVBGDfuUH0BGKQRAFf3lqeVGphmNcuY/Oi0eshT4fhmJeW2pMSsw6zhK/eVDmlE2+Tfa3l5Xb81U2VcFkujN36GhfW18TrUb9+nOdqIqLZZvZMlxIREVFOOtIawP7zfqxa4Ei7uY4kCvjxJxZj15kBvHDIl1RH1W2V8WebS+EwS9B0A++c7Et5fjpvHu/DhhpX4jbYE+1BNOdQTVXKXYNhDTsb+nHNYg+uqHJifY0LexrTr/KVRAGbF7rx1tD7wmuT0RtMv2Iv00mY4VjePzuIDTUu3LYyP5HI50QMZdO6aif+49NL0j4WVXV85XenErWJH9hcmqjNu/vMhffRCwd9uHqRB6VuBQ9sLsN3n29KlFs42RFEMKrDpoj4xm3VaOgKosip4Jn93Xj7ZB9+9mYrvnpTJZaW2vHD+xbhSEsAfUEVNrOIMrcZVfkWRFQd20/1T/dQJLx0pAcb69yo8JrxnTtrsf+8HxZTfNLHLIvoHIyiyDk1E3GTfa2m7jCWl9vxrx9fhNOdIdgUEbWFVgDx1cwvH8m8JA4REU0vJo+JiIho2j22uwMryu1pb1XVdAP9IRUb61zYWOfCYFhD52AUiiSi1KMkNm56ZFfHuBPAh1v86BqModAZv72WyS6aS57Y24lVCxxwWWX8j63lqPCa8eqxXgwM3cptkgSsrXbhI6sKUOE1Y0dDP3QDUz4JA3AihmaPcz0RrK2JT5rYlPSrW2VRgAABgIFVCxxYXm5HVDUSNbuHqbqBX7/bhr/9cBWWltqwcoEDB877AQARVcePXzuPL15bDq9NxopyBzTdQPdgfOX+0bYA/v7ZRty3vgiXlTmwttqZ6FfTDTR0hfDK0dQE6PAdBbExal6PdVxsqK7GxY83dYfxw1fO41NXlqDCa0aFN/5+Pd0ZwsM723HjsjwUOZW0fY43rql4LQB4+oMuuK0yPr6uKLH5saob2HG6H4/s6piSGOciQZQgV61JahPtU3f3CRHRZDB5TJSj5AUrIZUtTWoTpNm1uQcR5Ybo0MVc9BK3sbf2RfDIrg7cf2UxZFHAuZ5w0uN//2wjPrKqEGurnXBaJDgt8VVIBoBTHUH8974uHG4JpH3ddLfPGwDeON6Le9cVoT+kYm9T+pWbsUv0MZ6fi2g6DIRU/OO2c/ibD1fCbZVx15pC3Lm6EH0hFapmwGuXE5Mqx9oulLmY6kkYgBMxNHs8/UEXnv6ga9zH7z/vxxcePoGYpqdNOh5pDeDPfnMcsiggGNWSHjvcEsBfPHEK5R4zTJKAtv5o0jFnfWF8f9s5WEwiil0KzLKIQERDlz+aWPU80ld+ewomSUAweulzyljH/fztVjy6qwOBETHvP+/HgfOn4bWbkGeX0RtQ4RsqVfPzd1rx8M62tH2ON66peK1hrx/vxTun+lDhjd8N0d4fueTmoBOJcc4RJZgvvyXbURARpcXkMVGuEiUIIjfrmqssJhHfu6sOXruM//tWK3Y2zNytj0SZ+tlbLfjNjvaUi++RXjnag9eO9UCWhJSL667BGH7xTit+uT1eo9JlkaDq8Y1zRut3+HVDozz+xwPdePVYLyKqDm2UnfoeevoMFElIe9Ga6D926Z+LaDqc6wnjb55swO2rCrCp1g2vXU7UBteN+ArgN0/04d3TF1YRT2QSBuBEDOWusc5LUVVHdJTHNN1ImegcKRzTcdZ36WOGxTRjXCtnxzpONwB/JP3PNVzbfLi++TBNNxCMjraSeXxxTcVrjXzdi++QGOvYXF51TEQ02zF5TEQ0C+XZTYlVXtUFFiaPaVYzjLEv0IfpBkZdlTXcV8dAFB3p81MZv+5Yj2u6gdAoieVMfi6i6eCPaHh8dwce392BPLsJLouEsKqjJxBL+z6ayCQMwIkYIiIiIhodk8dERLNQe38ELxzywWWRM6pNSUREuSndCr/RZDIJM3w8J2KIiIiIKB0mj4lylKFGgeiIW1MVGwTZnJ2AKCO6Ed9gjIiIiIhorusYiEJ3mDAY5kRSWrqG6PG3kppEmxty9RVZCoiI6AImj4lylNZyBJEDzye1KStugqlmXZYiyi5FFuC1mRDVdPQG1DGPFwXAazNBlgT0BtPfHjwakyQg32GCzx+bkfpskijAY5Oh6Qb6gyrGesVMf7ZMx46IiIiI6GJ/90xjtkOY1QxdQ+z0jqQ2KW8Bk8dENCsweUxEOa3AYcL9VxZjdaUzsdP8QEjFmyf68Pv3OlMSrU6LhI+tKcLGOhfs5viGg5pu4FBLAE/sSb9D/ffvroPHKuMvf3saa6oc+PTGEtgUCVHVwNeeasCqSgc+vrYYzb1hfHOUL86VeRY8dGsVBAF48LFTiKg6vntXLQqdCv7lpXM43h5MeU6h04S7ryjC2monzLIIAOgPqXj7ZB/+8EF3yqZFmf5smY4dEREREREREeUWJo+JKGc5zBL+7vYaeO0yOgaiONEehNUkor7UjjtWFeDloz3oC15YSZtnN+Ebt1WhyKlgIKzh3dP90HQDS0vtWLXAgSUlNnz3hbM405W8M7TbKsNulnBtvQf3bygGEC87ocgCbIqEM50hKLKA2kIr6oqsaOhM3Vn6qkVu2M0SGrvDiaRvnt0Eq0lMJHovVuE146Fbq+G0SFB1A6c7Q7ApIkrcZtx+eQFKXAp+9FrzhH+2TMeOiIiIiIiIiHIPk8dElLOuXuyB1y7jrC++4nd4h3hJFLCx1pVSc+0L15ShyKngRHsQP3jlPPwRLXH8l7eUY0OtC5+/ugxfe6oh7evdt64IXYMx/Pi1ZjT5QqjOt6C5N4KYZqBjIIpil4KNte60yeMNNS4AwLunx94cTwDw5a3lcFokNHWH8S8vn0PvUCI3z27CfeuLUOhUJvWzZTp2RERERERERJR7xGwHQEQ0XfLtJgBAQ1cokfwE4qUatg+tvB1WU2DF8nI7VN3Az95qSSRXh49/ZFc7VN3AgjwzagosaV8vphn4/otn0dgdgmEAjd3hRM3jnQ39AOJJYkFIft7CIisKHCboBrCzYWDMn2tFhQOVeRYYAP79jeZE4hgAegIx/J83WvD9bWcn9bNlMnZERERERERElJuYPCainNXaF6/hu6HGhbpC6yWPXbXAAQBo7AqhazCW8nhvUE20147S13/v60J7fzTtY9tPx5PHXruM+mJb0mMbauOrjo+0+tEfGrsUxIpyOwCgqTuEtlFeLxy7UO94Ij9bJmNHRERE849JkmDo+tgHEs0hBuK/08r/z96dh8dZ3vf+fz+zSqPRzGjfrd0ELxiMbRlvLIWwO4E0TdOkp2mbpk2b/k5OetImIYuhhKbp1SW/pknOadN0S3pO20DKlqSQmGAbY2Ew2NiAZWska7FkrbNoNOvznD9MACEDlizr0fJ5XRd/cGt06zO3R5qZ79zP93ZNbxsnIrJcqW2FiCxZ+05EuHltCVVBD7t2NnKwK8pjx8Y4dnpi2m1rirwAFBW4+fg1Neec7+e9hwvzzv1i8kz03IVcgIFIms6hSZrK8tncHHztADyDN7Ss6Iic1/2qCp3N2jM6/fC+c5nNfZvJ2snM+fPPthUxTbX/EHtZuRwBn9/uGCKyCBUH8slms1iWiWFoT5IsDWbm7Ov5koDvHW4pIrJ8qHgsIktWKmty94NhPnxVJVuag2xsDLCxMUDXSJK/33t6ysF3Ps/ZNz2lfjelLcG3nDNnWpwef+si8dvZdzJCU1k+mxoD/NNTpzEtaK3wUVzgJp01OdgdO6958t1ns75xd/Hbmc19m8naycyVBM7u5s5lZvdYEpkrZi792uNxsSrwnm2zg6UdkGIvyzLx/fzxuAzUlJ798Ds7OYHbV2hzGpG5kUme3eDx88e3iIioeCwiF5HLebZoaVkWxjvc9mKJp3J864k+/v2ZM1x3aRE3rCqmoSSPL9zWwBd+0Env2Nndu+ns2R6+z3RF+drjvRcly/6TUT7UVkkgz8mq6gJe7Jtg86stK57tjp13MTj7ar9hj+v8dvnM9r6d79rNPwvHIt/hFPLnU1HkJzoRoaCowu44skxl00kyqSSXrCizO8oF8Xpc5Hnd+jBGbJfNpCktKbA7xrxZ31qN2+lkMj6m4rEsGcnoCGWhAhqriuyOIiKyYCzud98isqAVv3q5l5mz/w39yESGfz94hj/8jxOcjqRxOw1uu6z09a/Hz/b8LfVfvB1D0cksL/bFAbiqOYhhwMaft6w4cX4tKwDGJs72Ra4Kes7r9hd6395p7eZbLpOmeJHvlATYsmYF6YlxzJxaV4g9JiPDGAZsWb3C7igXrKWqmOzk+V29IXIxWJZFLhmnpabY7ijzJt/rZvtl9STHBzGz73xmg8hCl01NkoyPceOGVrujiIgsKCoei8hFUxE6u/smm1o4LQ7GE1kOdEYBCOS/3rv45z2IVxTnUVRw8S7K+HmReEN9IaurCyjyuYgmcxzpO/9ewscHz2ZtKc+npODcBeFg/uv3Ya7u21ut3Xwz05NUFi/+HU7v3boKy7KIj/TZHUWWIdPMMjk2wNXrGpdEX8dta+tJJuLkMnZdESHLXXpinGw2w9Y19XZHmVcfuelKLNMkNthldxSRC2QRGQhTkO/ml65da3cYEZEFRcVjEbloWmtLCRR4ScbGbPn5799QTmNp3pQxp8NgTc3ZovYbexc/dyrG6EQGp8Pgd6+pwe+dXhwN+Vxsbw1dUKaDXTFSWZMCr5Nf21IFwIHOCLlXW1GcjwPhKMmMidNh8DvXVOPzvJ7V73XyG9uquOvW19+8zua+zWTt5pOZzZKanGDTu2pt+flzqa48yC1tK5kY6Sc9EbU7jiwrFpH+k2CZ/OYtG+wOMyeu39CCx+0kNtRjdxRZjiyID/dSVVLI+tZqu9PMq9qyAL9+83omIkPEh/VhqCxWFuOnw6QTET71i9teO9hYRETOUs9jEbloHA6DbWvq+fHBTszcChzO+T1EZktzkPdcXkrn0CRdI0ksC9bUFFAR8DCZMfnR0ZHXbpszLb71RD//88YVXFpVwF/+citH+yYYT2TJ9zioDnlpKMkja1rs6RifdaZU1uTZ7hhbmoOvtZ2YScsKgIlUjn/aP8DHdlRzaVUBX/tgKyfPTJLvdlBXnIfHZXDs9Os7mWdz32aydvMpMT4ImGxbuzR2dn185yZe7Bqkt+84RXXvwp3vtzuSLHln3yBPRkf59Ae2L5kDgYoL8/nAtWv55/96nrzCEvIK1atS5k98tJ9UIs7H3n/da+c9LCcfvG4dPWci/PiZDnKZNIGKegzH8lsHWZysXJbx0yeZjI7ykZvWc83ljXZHEhFZcJy7du3aZXcIEZl7ZmSA3GDHlDFnRQvOopp5zVFfWcQP9h7DNE3y/Be2a3emhuMZaovyaCjNo7E0n6ayfPxeJ4dOxfib3X0MRKbunh2KZ3i+J055wE1V0EtNkZemsnxWFOcRzHcRHprkP547w6nRqZdF37imhHy3gz0dEQaj77wjdyJlsrU1hGFA71iKfzt45py3e7t5u0eS9I6laCzLI5TvojzgobjATSZnsfuVMb6zb4BM7vXdzDO9bzNdu/lg5jKM93Ww47J63rP10nn/+ReD2+Vk86o6njrazZnTvRgOJ+48P4Zh1xGTspRl05OM9XaQio3w6zet531Xr7E70pxa01DOc8dP09ffi8cXwOn22h1JloHJyDDRgTA3bmzlQ9dfbnccWxgGbF1Tj2HAwaMnSEaHAAdOtweHw742VyJvJ5tOkhgbINLfQS41yafev5X32/i8aFgm2b5jGO781/5z+EtwVS+N17wisrgZlmWd/7XSIrJoWMkYZmx4ypjDX4KRP/+7zL71YDv//rMjhGovIb9w/g+SCea7KC90YxgGA9E00cl3PtQl3+2gMujB63KQSJsMRtOksuY5b+t2GridBon0ub9+Lh6XgcfpIJHO8VYdK8533sqgh2C+i8m0Sd946h1bYMzkvs1m7S4Gy7IYPXUMMpN8+9PvpbpkaeyW/Ln4ZJqvfO9JnjrajdubT16glLzCEE5XHg6XLhKSWbIsctk06ck4ydgoyegovjw3n3r/Fq69vMnudBfFWGyST/7No/QNRyksr6eguALQhzEy9yzTJDbUw8RoP1e01vAnH70Bt0uF0ldODfGth57hhZOnMQxwe7wYLi/6PZSFw8RMp8hk0hiGwfa19Xz01o3Uli2t15YiInNJxWMRueiyOZNPf+tHHOk6Q7C6xZYCsixeppkj0n+CZGyMuz/yC0umZcW5HOro57uPv8DzJwcwzfP/MGJ5MfDk+/GFynHl+UhPRIgN9aCXM2+vqDCfmza28su/cBmF+Ut7R24imeHL//IE+4+dwpvnIy9UTp6/GKdnad9vmQ8WmdQkqdgok2ODZLMZ7ty+it/ZuQmn2jRM0T8SZf/RHjpPjzIanSSby9kdSQQAj8tFadBHS20JW1avWBKHxoqIXGwqHovIvIhNpvji3/+Ew52n8RVVUVhaqx2V8o5SExFig13k0kk+9f6t3Ny20u5I8yKWSPFieJAz4xOMxibJZpf3m24LiGWcnEk6OTPpImMaGK+OA1TmZ1kZTGlf25sU+ryUBHysKA+ysq502bVDaX+pl+/8+DleOTUEgGEYuN2es9fYi8yQZZlkM1ksy8RwGGxYWcNHb9lAa22J3dFERERELioVj0Vk3mRzJn/3yEG+/+RRMBx4C4vJCxTj8uTjdHl0uIpgZjPksmlSiSip2CipiSjVpYX80S/vYG1Tpd3xZJ71j6d4ujPKUycjDETSOAxYVV1Ac5mPh14Y4sr6AOWFbh45MsIdV5TxvivL7I4sC9CZsTgHj/czNB5nNDaJXvnKbLicDkL+PGpLA2y4pJZAgXayi4iIyPKg4rGIzLveoSjf+8kL7DnSzcRk6p2/QZYdw4Dm6lJu3bySWzdfsixPr1+uxiaytIejHAhHOT6YAKCxNI9tLSE2NwdwOw3ueqCTnAn33dlEgdfJt57oY9+JCB/ZUsX1q4psvgciIiIiM2SZZE+/MmXI8OTjLG2wJ4+IyBuoeCyyRGX7j5E+tnvKmOddO3DVrrUp0XQ50+SVU8MMjMUZi02SXuaX5gsEfF6KA/k0V5dQHiqwO47Mk0Q6x3PdcQ6Eo7zQE8O0oCbkpa0pwNaWIBUBz2u3/ZvdvTzdGeWzt9SzqursYyRrWvzZj07x0ukJ/vv1dVxZX2jXXRERERGZMSubJvHoV6eMOYvryNv2azYlEhF5nRqOiixVmRRWYmzKkJVJ2hTm3JwOB6saylnVUG53FBGZZ5mcxZG+OPs6IjzbHSNrWpQUuLlhVTHbWkM0luZN+57dL4+x/2SUO9eXvVY4BnA5DP779XXc+3AXf7O7j8/dUk9Lef583h0REREREZElScVjERERmRemBR2DCfadiPDUyQjJjEmB18nmpgDbWkOsril4y0PvBiJpvntgkJUVPt5zeem0r/s8Dj594wp2PRjmL/7rFF/a2Thlx7KIiIiIiIjMnIrHIiIiclGFh5Ps7Rjn6c4okcksHpfBFXWFbG0Nsq7Wj9PxViXjszI5i6//tFXK7oQAACAASURBVBeHYfDxa2re8vZFBS4+fdMK7nmoi6/+6GwBOZDnvBh3SUREREREZFlQ8VhERETmXN94igOdUfadiDAYTeMwYFV1AR9sqWBDQyF57vM/BPH/PDNI10iS37u2hrJC99vetrbIyydvqOWrPzzFn//4FHfdWo/HpQMXRUREREREZkPFYxEREZkToxMZngnHOBCOcnwwgWFAa7mPd68q5qrmAIH8mb/sONwb579eHOWaS0Jc1Rw8r+9ZVVXAx66u5pu7+/j6T/v45A11vMPmZhERERERETkHFY9FRERk1iZSOQ6dirP3xDhH+yawgJqQlzvXl7GtNUh54ez7Dkcns/yvn/VTHvDw4c2VM/reLc1BBqNpvv/sEP/41Gl+fWvVrHOIiIiIiIgsVyoei4iIyIyksxYv9sfZ1xHh2e4YWdOipMDNu1cXs31liIaSvAv+GRbwv5/sZyKd49M3rZhRm4ufu+OKMiKTWR4/NkZlwMPNa0suOJeIiIiIiMhyouKxiIiIvCPTgmP9E+ztGOdgd4xkxsTvdbJjZYitLUFWVvqYy84Qjx4e4fmeOB/eXHlBxej/dlUVYxNZvndgkEC+i60t59f6QkRERERERFQ8FhERkbcRHk6yt2Oc/Z1RopNZPC6DK+oK2doaZF2tH+dFaCYcHk7y7wfPcFmtnxvXFF/QXA4Dfu/aGu57tJu/fbKfkM/F6uqCOUoqIiIiIiKytKl4LCIiIlP0jqVoD0fZdyLCYDSNw4BV1QVsa6lgQ0PhrFpInK9U1uQbu3vxeZ389tXVc7Kb2eNy8Kl3r+Ceh8J87fEevnBbI3XF3jmYWUREREREZGlT8VhEREQYmchwMBxjz4lxuoaTGAa0lvt496pirmoJEshzzkuOf9g3wEAkzR/cuIJg/ty9TAnkOfn0jSu4+8Ewf/bjU+za2UBxgXvO5hcREREREVmKVDwWERFZpuKpHM+firP3xDhH+yawgJqQlzvXl7G9NURZ4fwWVw+Eo+zpGOfWtSVcXuef8/krAh7+4MYVfPmRbv7sx6f4wm2N+DwXbxe1iIiIiIjIYqfisYiIyDKSzloc6omxtyPC4d44OdOixO/m3auL2bEyRP0FHE53IYZiGb69p5+G0jzev7H8ov2c5rJ8PnFdDX/1WA9/9XgPf3jTClwXoW+ziIiIiIjIUmBYlmXZHUJE5p453k+2/+UpY66qlTiKam1KJCJ2MS041j/B3o5xDnbHSGZM/F4nmxoDbG0JsrLSNye9hWcrZ1rc+3AXp0ZT3HtHE1VBz0X/mT95aYzv7DvN1pYgv3NNja33X0RERJY5y8KaHJ865nBh5BXak0dE5A2081hkiXKEqvGEqu2OISI2sSw4PpigPRxlf2eU6GQWj8vBFXV+trYGWVfrx7lAdtx+/7khOs5M8rEd1fNSOAb4hUuLGIymefTICBUBD3euL5uXnysiIiIyjWFg+IrsTiEick4qHouIiCwhvWMp2sNR9nZEOBNL43IarK3x09YYYGNjIV7Xwurx+/JAgodfGKatMcCOlaF5/dkfbKsgMpnl/ueGCOS5uH6V3rSJiIiIiIi8kYrHIiIii9xIPMPBrhh7OsbpGkliGNBa7uPG1cVsaQlSmOe0O+I5TaRyfPOJPop8bn5jW9W8/3wD+K0d1YwnsvzT/tMUFbi4sl6Xh4qIiIiIiPyceh6LiIgsQvFU7rUdxh2DCSygJuSlrSnA9tYQZYVuuyO+o798rIfne+J8/tZ6Wit8tuVIpE3++OEwg9EMd91ST3N5vm1ZREREZBmyTMzEOIbLi+HygHPhv44TkeVDxWORJcqMDZHtfg4rm4FsCiubxlW7BlftWrujicgspbMWh3pi7O2IcLg3Ts60KPW7uao5yI6VoXnrFzwXHj82xj88dZr3byjnPZeX2h2H0YkMux7sIpsz+dLORioCi2ctRUREZHGzJiMkHvvrKWOumtV4r7zDpkQiIq9T2wqRJcpKxsl0PjNlzOELgYrHIotKJmdxpC9Oe2eUZ7pipLImfq+Tq1eG2NoSZGWlj4Vx7N356x1L8b32AS6p9HH7OvsLxwDFBW4+feMK/vjhMF/90Sm+tLORwAJt9yEiIiJLi5WMTx80FtY5FSKyfKl4LLJEOQqmH/xkxkdsSCIiM2VZcHwwQXs4yv6TEaLJHD6Pg40NhWxqCrCu1o/TsdhKxmdlchbf2N2H2+ngd6+pYSHdjbpiL5+8oY6v/vAUf/5fp7jrlno8C+yAQREREVl6zPjwtLFzvZ8TEbGDisciS5SRHzzbKyuXeW3MHO8H0wSHiiEiC1HvWIr2cJQ9HeMMxTK4nAZra/y0NQbY1Fi4JAqZ3316gFOjSX7/ulpK/Auvn9+qqgI+dnU139zdx9d39/HJ6+sWVIFbRERElp7caO+0MaNwYVydJSKi4rHIUmUYOItqyA13vTZkZdPkxnpwltTbl0tEphiOZ9h/MsKejgj94ykMA1rLfdy0uoQtLUEKl1DrhOd74vzkpTGuv7SItqaA3XHe0pbmIAORNPc/N8Q/PXWaj2ytsjuSiIiILGG5M53TxpxFtTYkERGZTsVjkSXMWdowpXgMkO19UcVjEZvFUznaw1H2dkToGExgATUhLx/YWM721hAh39J7eh6byPK/ftZHdcjLr7RV2B3nHd25voxoMsvjx8aoCHq4eU2J3ZFERERkCcqNnMKajEwZc/hLMPIX7gftIrK8LL13pyLyGmf1pfDyE1PGcn1HsS69DsOTb08okWUqkTZ5rjvGgXCUw71xcqZFWaGb29aVcvXKEJVBj90RLxrLgm/9rI/JjMlnb6lZNO03/ttVVYxNZPne04ME8lxsbQnaHUlERESWmGz4mWljzqp32ZBEROTcVDwWWcIc/hIcRTWYY32vjVnZNJmTT+O59Fobk4ksD5mcxZG+OO2dUZ7pipHKmhT5XFx/aRGbGgOsrPSxHNrpPvjCMEf7J/i1LZWsKM6zO855cxjwe9fWcN+j3fztk/0U+Vysqi6wO5aIiIgsEWb0DNnTL08bd9VdZkMaEZFzMyzLsuwOISIXT7bvKKlnH5g66HCSf+1v4ygotieUyBJmWXB8MEF7OMpTJyPEkjl8HifrV/jZ1BRgXa0f5zI6ga1zaJK7H+pibU0Bf3DjikVZLI8mc9z9YJhYMssXbmukrthrdyQRERFZApL7/oncyKkpY87yZvI2f9CmRCIi06l4LLLUWRaTu7+JGR+dMuwoqiF/66+BY3FcPi6y0PWOpdh3IsKejnHGE1ncToM1NX7aGgNsaixcNK0a5lIyY/L5H3SSyprcd0fzoj78bzCa5u4Hw7icDnbtbKC4wG13JBEREVnEMicPkD762LTx/O0fwaHD8kRkAVHxWGQZyA12kDzwf6eNuxquxHvZzTYkElkahuMZ9p+M8OTxcU5H0hgGtJb72NYa5KrmIPnu5VcwfqNvPtHHUycjfObmelYvgXYPJ89M8uVHu6kIuPnCbY34PMv731dERERmJzfcRfLpfwUzN2XcVbMK75V32pRKROTc1PNYZBlwVrTirLqE3OlXpoxnu57FWbICV81qm5KJLD5jiSztnVEOhKN0DCawgJqQlw9sLGfHyhDBfD21AuzpGGffiQg715UuicIxQHN5Pp+4toa/eryHv3q8hz+8aQWuZdSCREREROZGNnxwWuHYcOfhWX2DTYlERN6adh6LLBNWJsnkE3+LNRl5bcxVdxney28DQ7vnRN5OIm3yXHeMA+Eoh3vj5EyL6pCXzU0BtjQHqQx67I64oAxG03z+gU4qg16+tLNhyRVYH39pjH/Yd5qtLUF+55qaRdnHWURERGxk5kgdepBs39HXhrwbfxFX1btsDCUicm7aHiWyTBjuPPI23MnkU/8CuYxaVoi8g0zO4khfnPbOKO1dMdJZk6ICF9dfWsSmxgCXVPrsjrgg5UyLbzzRhwX83rU1S65wDHD9pUUMRtP88MgIFQEPd64vszuSiIiILGSWBcYbXhM5nHjXvxfDW0Cmsx13y1UqHIvIgqXiscgy4iiqIW/DnWR7j+Bde9O0r2f7j2FGh3A3t2G482xIKGIvy4Ljgwn2nYiw/2SEyYyJz+NkU0Mhm5oCXF5XyBKshc6pf3vmDCfPTPLxa2qW9I7sX2mrIDqZ5f7nhgjkn/1QQURERGQKyyI78AqZl36Kd/17cYSqX/+aYeBZ826cZY04K1rtyygi8g7UtkJEALAyKSZ3fxMrGcdweXHVrcVVu/bsCxxD1TJZ2nrHUuw7EWFPxzjjiSxup8GaGj/bWoNcWV+4JHfPXgwv9k3wpz/qPtvO4eoau+NcdFnT4qs/OsXLpyf45PV1rK8vtDuSiIiILADWZJRs/0tkTx3CjA0D4AhVkb/9N/TeSkQWHRWPRQSA9Is/JtP5zLRxw52Ho7gWh78UI68Qw+We8nVHoAJH0dQiUW64C2tidMYZDE8BzqpLpoyZ8RHMke4ZzwXgqrscHK/3c7ayKXJv6Cs2E87yZoz84JSxbO+LkEvPeK65XDM8vmmXuF3Ymq0Dh/O1/7eyaXJ9L85qLmdZE4YvNGUs23cUsqkZz+UIlOMoqp0ylhvpxoqPzDzYq2vWP57i6c4oT52MYMZHudQ7RFmhh5byfJrL8nE7z++F/UJdM6OwDGdx3ZSx3MgprPjwzIO583FVXzplyJwYxRzueu3/kxmTBw4N4XIYvPeKsrddP1fdZeB4w8VPuQzZ3iMzzwU4yxoxfFN3/Wb7jkE2OeO5ZrNm6azFI0eGiU7muGVtCWWFr/6NdOfhql415bbmxBjmcHjGuQBctWvB+Ya/vxewZo7SRhwFb1qz/mOQmcWa+UtxlqyYMpYb7cGKDc08mCsPV83UNbMSY+SG5mjNzCzZnsOzmstR2oCjoHjKWLb/JchMznguw1+Cs6R+ytjs18w77dBbKzFObqhz5nMBzpo1GK43XDFg5sj2vDCruRwlDTj8b1qz0y9DOjHjuYyCEpylU9fMHOvFjJ6ZeTCnB1ftmilD1mSE3JmTM5+LuV6zehz+kiljs1+zYpylDVPGzLE+zOjgzIPN+ZqtxnB53zCZSfbU87Oa61xrljv9ClZ6YsZzze2auc/+DXoDazJK7syJmc8FOKtXTb0q0LLInjo0q7kcxStwFJZOGcsNvIKVms2aFeEsbZwyZo71Y0YHZh5sQa9ZHY7CqS2qcgPHsVLx16c3TUgnzr4OjwxgvsVrVM9lN+NuuHJWOURE7KK2FSKCGRkgEz54zq9ZmSS5wRPkBs/9ws3dchWeNxVCs6eeP1tYnSFHqJr8NxePR06ReuHRGc8Fr76hc7z+hs5KTcx6rrxNH8D5puJx+qWfYk1GZzyXu3nz9DXrOTyrooYjWDm9eDzaM/s1q16N8YZCKOnEBazZ+3G+qRCafmk3VmJ8xnO5mzbheVPxONtzmOypmb9Bn/CU8q2DeRwfPPtmvLE0jzvflWPl0CGwgEEwB+F8y7XOqksxPPmvD2QmZ71m3o2/iOtNa5Z5+QnMibEZz+Vu3DitEJrtPUK2e+ZvnByFZdOLx2N9U+6nAdz5ai3AfPHt189Z9S4Mz+svQaxMcvZrtuFOXG8qHmdeeQIzPvMPY9wNV05fs74XyXY997bfd4sDKAA6X7/fjsLS6cXj8f7Z/25WrsR4QyHUyqZmv2ZX3jGteJx55cnXdkbNhKt+/fTice9RMl3nfk55Ow5/8bTicW58YPZrVtH6pjVLz37N1r9nWvH47JrNvODrWnH59OJx3zEy4ekf4L4Tw1c0rXici8x+zXzlzfCGQugFrdkVO6cVjzOv7JlVIc5Vt25a8Tjbd4xMZ/uM5zLyg9MKoWZkcPZrVtY0dc3M7OzX7PLbphVCM8f3YkZmXohz1a6dVgjN9r9E5uTTM57LyA9MX7PomVnfz/zShqnFYzM3+zVbd+u0NUt37MMc75/xXK7aNdPX7PTLZE7sn/FcRp5/WiHUjF3AmpXUv6kQegFrdtnN04rH6Y6nMMf6ZjyXq2bVtOJxduAVMh37ZjyX4S2Yvmbx4dmvWXHdtOLxbOfyrL1pWvE4c2I/udGeGc+VeWk3rupLMTw6O0NEFg8Vj0UEK5PC4QvNqkAlstiMJTJMmDnuXF/G1pYgFQEP2Z44qVls+hMREREROS9OF66G9VM+2BQRWQxUPBYRnKX15F/3cbK9L5I5eWB2l+eJLBIVAQ9/en2z3TFkiVNTMBEREQEwPPm46tbhbtmM4fXbHUdEZMZUPBaRswwHrrrLcNVdhhk9Q7b/GLnhLsyxfrBMu9OJzBmvy/HONxK5QGOJDPmWzsQRERFZjgxfEc7SelyVrTjLW6acjyEistioeCwi0zgC5XgC5Wf/x8xhToxhTYxiZSaxsmnIZV6/bahm2ve7qlfj+Pn3z8C5Pol3FFXjWXXdjOcCpvbuBQyPb/ZzFZZMG3O3boHsLA7MC1VPG3NVr5rWf+68cnkLzjn/rO+n801PC+78C1izsmljnparsGZzYF6oatqYq+pSHP4SRieydI1M0jOSIpk1cRhQGfTSUJJHTZEHx5uqd4bnXGtWNfv7+aZDJHHnzXquN/fTA3A3X4U1i8PfHMHKaWOuqkum9bo9H+fqy+cIVvJC/gY6h5NsawlSU+Q9x3e+xXxvvlzT5Z39mgUqpo25m6/CmsVBZudcs8pLcLypD/U7ebFvggM9aQoPDPKhza/ncwQqLuBx5p32/3O6Zk1ts1uzc8zlrFqJ4QvMeC7DnT9tzBEon/X95M1r5nTPfs3O8dhwN7dhzeIgs3M9PzorV2LkF854LsOVN23MUXgBa+aeOp/huoA1O8ffbXfTplkdZOYoPNeatWLkzWIHn2v63yqjsPQC1mzq49ZwuC5gzaa/PnA3bZzVQWbnej5xVrRgeGfRZ/WNBwK+yvDPfs2mPacYztmvWdE51qxxw5SDzM57Lv851qy8Zeq5BufLOX3NHP6SOVwzxwWsWe20MXfjBqw3nTtyXnP5p792dZY3YbjP/zXB6984vZWDo6B49mv25tfIhjHruZzF09fM1XAlzsrWV+d2nD04052PIz+AUVA8u8eNiMgCZViWLqwUEZHFpX88xdOdUZ46GWEgksZhwKrqAra1hNjQUEieW7uLL7ZnwlG+9pNeblxdzK9eNb2wttz9w77TPP7SGB/eXMlNa4rf+RtEREREREQWIO08FhGRRWF0IsMz4RgHwlGOD57d7ddYmsevbq5kc3OAYL6e0ubL6ESGb+89TW2Rlw9snL7zVOC/baliNJHluwcGKC5wsalx5jtxRURERERE7KadxyIismBNpHIcOhXnQDjKCz0xTAtqQl7amgJsbQlSEZh+WahcXJYF9z3azYkzCe55TxN1xbO4NHWZSGdNvvxoN6dGknzm5nouqZzF5eIiIiIiIiI2UvFYREQWlEzO4khfnH0dEZ7tjpE1LUoK3GxoKGRba4jG0uk9PmX+3P/cEPc/N8Rvbqvi2nfNvH/ychNN5rj7wTATqRxfvL2B6pCK7SIiIiIisnioeCwiIrYzLegYTLDvRISnTkZIZkwKvE6uqPOzrTXE6poCjHeeRi6yVwYSfPmRLq6sD/Dfr59+eIyc22A0zd0PhvG6Heza2agWKyIiIiIismioeCwiIrYJDyfZ2zHO051RIpNZPC6DK+oK2doaZF2tH6dDJeOFIpHOcdcDneRMuO/OJvxep92RFpWTZyb58qPdVIc8fP7WBh3qKCIiIiIii4KKxyIiMq96x1K0h6PsOxFhMJrGYcCq6gK2tYTY0FCootoC9Te7e3m6M8pnb6lnVVWB3XEWpee6Y/zV4z2srfXzqRvq9OGIiIiIiIgseCoei4jIRTc6keGZcIwD4SjHBxMYBrSW+2hrDHBVc4CALuNf0Ha/PMa3957mjivKeN+VZXbHWdQef2mMf9h3mmsuCfHR7dV2xxEREREREXlbercuIiIXxUQqx6FTcfaeGOdo3wQWUBPycuf6Mra1Bikv9NgdUc7DQCTNdw8M0lyWz3uvKLU7zqJ3/aVFDEbS/PDFEYoL3Ny5XsV4ERERERFZuFQ8FhGROZPOWrzYH2dfR4Rnu2NkTYsSv5t3ry5m+8oQDSV5dkeUGcjkLL7+014chsEnrqtVm4U58iubK4gmszzw3BAlfjdXrwzZHUlEREREROScVDwWEZELYlpwrH+CvR3jHOyOkcyY+L1OdqwMsbUlyMpKHyo5Lk7/55lBukaS/N61NZQVuu2Os2QYwG/tqGYskeXv956myOfislq/3bFERERERESmUc9jERGZlfBwkr0d4+zvjBKdzOJxGVxRV8jW1iDrav3apbrIHe6N82c/OsXV6s170STSJn/8cJihWIbP39agnfkiIiIiIrLgqHgsIiLnrXcsRXs4yr4TEQajaVxOg7U1ftoaA2xoKCTP7bA7osyB6GSWz97fSZ7bwZfvaNK/60U0FMuw68EwhgFfur1RO7xFRERERGRBUfFYRETe1shEhoPhGHtOjNM1nMQwoLXcR1tjgKtaggTynHZHlDlkWfCnP+rm5YEEu3Y2ajfsPOgaTnLvI10UF7j54u0N+L36nRIRERERkYVBxWMREZkmnsrx/Kk4e0+Mc7RvAguoCXlpawqwvTWk3ZFL2COHR/jX9kE+vLmSm9YU2x1n2TjcG+fP/6uHlvJ8PnNzPW6n2r6IiIiIiIj9VDwWEREA0lmLQz0x9nZEONwbJ2dalPjdbGkOsr01SHXIa3dEucjCw0nufjDMquoCPn3TCh10OM9+dnycv32yn7bGAJ+4rhZD/wAiIiIiImIzl90BRETEPqYFx/on2NsxzsHuGMmMid/r5OqVIba2BFlZ6VMBcZlIZU2+sbsXn9fJb19drX93G1y9MsRIPMP9zw1R3D7Ih9oq7I4kIiIiIiLLnIrHIiLLjGXB8cEE7eEo+09GiCZzeFwOrqjzs7U1yLpaP06HSofLzXf2nWYgkuYPblxBMF8vD+xyx/oyRuIZfnhkhJICt1qHiIiIiIiIrfTuUERkmegdS9EejrK3I8KZWBqX02BtjZ+2xgAbGwvxuhx2RxSbHHj1cXHL2hIur/PbHWdZM4Df2FbFWCLLdw8MUFzgYlNjwO5YIiIiIiKyTKnnsYjIEjYSz3CwK8aejnG6RpIYBrSW+2hrDLClJUhhntPuiGKzoViGux44SXnAw66djbi063xBSGZM7n2ki76xFJ+5uZ5LKn12RxIRERERkWVIxWMRkSUmnsq9tsO4YzCBBdSEvLQ1BdjeGqKs0G13RFkgcqbFvQ93cWo0xb13NFEV9NgdSd5gPJHl7ofCTKZNvnh7gw6tFBERERGReafisYjIEpDOWhzqibG3I8Lh3jg506LU7+aq5iA7VoZUFJRz+rdnzvDgC8N8bEc1O1aG7I4j59A/nuKeh7rI9zjYtbNR/ahFRERERGReqXgsIrJIZXIWR/ritHdGeaYrRipr4vc62dQYYGtLkJWVPtSAQN7KywMJ7nukiw0NAf6/X6i1O468jVcGEnzlh93UFHn5/K0N5LnVn1xEREREROaHisciIouIZcHxwQTt4Sj7T0aIJnP4PA7WryhkU1OAdbV+nOpZK+9gIpXjcw90ggX33dlEgVe9rxe6A+EoX/9pL5fV+vnUDXX6PRcRERERkXmhax9FRBaB3rEU7eEoezrGGYplcDkN1tb4aWsMsKmxEI9LOxHl/P3vJ/sZT2T5/K31KhwvEm2NAUY3VfDdA4N8Z99pPrq92u5IIiIiIiKyDKh4LCKyQA3HM+w/GWFPR4T+8RSGAa3lPm5aXcLW1iB+Ff1kFh47Nsqz3THev6Gc1gqf3XFkBm5eW8LIRIYfvThKid/NHVeU2R1JRERERESWOBWPRUQWkHgqR3s4yt6OCB2DCSygJuTlAxvL2d4aIuTTn22Zvd6xFP/aPsgllT5uX1dqdxyZhQ+1VTI6keX+Z4coKXDroEMREREREbmoVIUQEbFZIm3yXHeMA+Eoh3vj5EyLskI3t60r5eqVISqDHrsjyhKQyVl8Y3cfbqeD372mBrXMXZwMAz5+TQ2RySzf3nuakM/FZbV+u2OJiIiIiMgSpQPzRERskMlZHOmL094Z5ZmuGKmsSZHPxabGAJsaA1xSqXYCMrf+Yd9pHn9pjN+/rpa2poDdceQCxVM57nmoi9GJDJ+/rYGGkjy7I4mIiIiIyBKk4rGIyDyxLDg+mKA9HOWpkxFiyRw+j5P1K/xsagqwrtaPU9tB5SJ4vifOn//4FNddWsSvb62yO47MkaFYhl0PhjEM2LWzkVK/2+5IIiIiIiKyxKh4LCJykfWOpdh3IsKejnHGE1ncToM1NX7aGgNsaizE43LYHVGWsLGJLJ974CSBPBd//N5GPd6WmK7hJPc+0kVxgZsv3t6ggzRFRERERGROqXgsInIRDMUyPN0Z4cnj45yOpDEMaC33sa01yFXNQfLdKuDJxWdZ8Cc/7Ob4YIJ73tPIimK1NliKXuiJ8xeP9dBSns9nbq7H7dQVDCIiIiIiMjdUPBYRmSNjiSztnVEOhKN0DCawgJqQl22tQXasDBHM1xmlMr/+8/lh/v3gGX5tSyU3rCq2O45cRE+8Ms7f7emnrTHAJ66rxVD9WERERERE5oAqGSIiFyCRNnmuO8aBcJTDvXFypkV1yMsd68vY0hykMuixO6IsU51Dk9z/3BDr6vxcr8LxknfNJSFG4hkeODRESfsgv9JWYXckERERERFZAlQ8FhGZoUzO4khfnPbOKO1dMdJZk6ICF9dfWsSmxgCXVPrsjijLXDJj8o0n+gjkOfmdq2vQJtTl4c4ryxiZyPDokRFKCtzcuEYfGoiIiIiIyIVR8VhE5DxYFhwfTLDvRIT9JyNMZkx8HiebGgrZ1BTg8rpCHKrQyQLxnX2nGYym+aOb6inM0wFqy4UBV3p16gAAIABJREFU/Oa2KsYTWf7lwADFBS42NgbsjiUiIiIiIouYeh6LiLyN3rEU+06cPfguMpnF7TRYU+NnW2uQK+sLcaliLAvMk8fH+d9P9rNzXSm/tLHc7jhig2TG5N6Hu+gbT/GZm+t1NYSIiIiIiMyaisciIm/SP57i6c4oT52MMBBJ4zCgpdzHttYgW5qD5LkddkcUOafBaJq7HuikKujlSzsb9OHGMjaeyLLrwTDJjMkXb2+gOuS1O5KIiIiIiCxCKh6LiABjE1naw1EOhKMcH0wA0Fiax7aWEJubAwTz1eVHFracaXHPw130jaW4971NOqxR6B9Pcc9DXeR7HOza2ai/YyIiIiIiMmMqHovIspVI53iuO86BcJTDvXFypkVNyEtbU4CtLUEqAiq+yeLxrwcGeeTICB+/poatLUG748gC8cpAgq/8sJvaIi933dqgKydERERERGRGVDwWkWUlk7M40hdnX0eEZ7tjZE2L4gI3GxsK2dQYUG9QWZSO9MX56o9OsbUlyO9cXWN3HFlgDoSjfP2nvVxW6+dTN9ThVDsTERERERE5Tyoei8iSZ1rQMZhg34kI+09GmMyYFHidXFHnZ1triNU1BaiUIotVNJnjc/efxOtycO8dTeRrZ6mcw6NHRvjegUGuuSTER7dX2x1HREREREQWCTW/E5ElKzycZG/HOE93RolMZnE7DdbU+NnWGuTK+kIdJiaLngX83ZP9xJI5PnlbnQrH8pZuWVvC6ESGH704SqnfzXuvKLM7koiIiIiILAIqHovIktI3nuJAZ5R9JyIMRtM4DFhVXcAHWyrY0FCofp+ypPz4xVGeOxXjlzdV0FKeb3ccWeA+1FbJyESW7z87RHGBmx0rQ3ZHEhERERGRBU7FYxFZ9EYnMjwTjnEgHOX4YAKAxtI8fnVzJZubAwTz9adOlp7esRT/95lBLq3yccvaErvjyCJgGPC719Twlcks3957mpDPxWW1frtjiYiIiIjIAqaexyKyKE2kchw6FWfviXGO9k9gWVAT8tLWFGBrS5CKgMfuiCIXTSpr8oUfhIkls9x3ZzNFPn1AIucvnspxz0NdjE5k+PxtDTSU5NkdSUREREREFigVj0Vk0cjkLI70xdnXEeHZ7hhZ06KkwM2GhkK2t4ZoKFUBRJaHv9vTz89eGed/3FDH+vpCu+PIIjQUy7DrwTCGAbt2NlLqd9sdSUREREREFiAVj0VkQTMtONY/wd6OcQ52x0hmTPxeJ5fX+dnWGmJ1TQE69k6Wk2fCUb72k15uXF3Mr15VaXccWcTCw0m+/EgXJQVuvnh7AwVep92RRERERERkgVHxWEQWpPBwkr0d4zzdGSUymcXjMriirpCtrUHW1fpxOlQyluVndCLD5+7vJORzcc97mvC49HsgF+aFnjh/8VgPreX5/NHN9bidekyJiIiIiMjrVDwWkQWjdyxFezjKvhMRBqNpHAasqi5gW0uIDQ2F5LkddkcUsY1lwX2PdnPiTIJ73tNEXbHX7kiyRDzxyjh/t6eftqYAn7i2FkP1YxEREREReZVO2BERW41MZDgYjrH3xDjh4SSGAa3lPt69qpirmgME8vVnSgTggUNDvHR6gt/YVqXCscypay4JMRzP8INDQ5QWDPLBtgq7I4mIiIiIyAKhqoyIzLuJVI5Dp+LsPTHO0b4JLKAm5OXO9WVsaw1SXuixO6LIgvLKQIIfHBpiY0OA695VZHccWYLed2UZoxMZHjkyQnGBmxvXFNsdSUREREREFgAVj0VkXqSzFod6YuztiHC4N07OtCjxu3n36mK2rwzRUJJnd0SRBSmRzvHNJ/oI+dz85vYqu+PIEmUAv7mtivFEln85MEBxgYuNjQG7Y4mIiIiIiM3U81hELhrTgmP9E+ztGOdgd4xkxsTvdbKpMcDWliArK32otabI2/ub3b083Rnls7fUs6qqwO44ssQlMyb3PtxF33iKz95Sz8oKn92RRERERETERioei8icsiw4PpigPRxlf2eU6GQWj8vgirpCtrYGWVfrx+lQyVjkfOx+eYxv7z3NHVeU8b4ry+yOI8vEeCLLrgfDJDMmX9rZSFVQrYRERERERJYrFY9FZE70jqVoD0fZ2xHhTCyNy2mwtsZPW2OADQ2F5LkddkcUWVQGImk+/4NOakJevnh7gz50kXnVN57inoe68Hkc7NrZSFCHl4qIiIiILEsqHovIrI1MZDgYjrHnxDhdw0kMA1rLfbQ1BriqJUggz2l3RJFFKZOz2PVgmKFYmi/f0UxZodvuSLIMvTyQ4E9/2E1tkZe7bm3Qh4AiIiIiIsuQisciMiPxVI7nT8XZe2Kco30TWEBNyEtbU4DtrSEVuUTmwD/vH+DHR0f5vWtruKo5aHccWcYOdEb5+u5e1tX6+R831GkHvIiIiIjIMqNrEEXkHaWzFod6YuztiHC4N07OtCj1u7ltXSnbW4NUh7x2RxRZMg73xvmvo6Ncc0lIhWOxXVtTgOGJCv71wCDf2Xeaj26vtjuSiIiIiIjMIxWPReScTAuO9U+wt2Ocg90xkhkTv9fJ1StDbG0JsrLSh/aficyt6GSW//WzfsoDHj68udLuOCIA3Lq2hNGJDD9+cZRSv4f3XlFqdyQREREREZknKh6LyGssC44PJmgPR9l/MkI0mcPncbChvpBNTQHW1fp1ybLIRWJZ8I0n+phI5/j0TSvUX1YWlA+3VTI6keX7z56huMDFjpUhuyOJiIiIiMg8UPFYROgdS9EejrKnY5yhWAaX02BtjZ+2xgAbGwvxulTEErnYHjkywot9E3xocwUNJXl2xxGZwjDg41fX8JVElm/vPU1RgYu1NX67Y4mIiIiIyEWmA/NElqmReIaDXTGe7BineySJYUBruY+2xgBbWoIU5jntjiiybISHk9z9YJhV1QV8+qYVagkjC1Y8lePuB8OMJbJ84bYG6vVBh4iIiIjIkqbiscgyEk/laA9H2dsRoWMwgQXUhLxsaw2yrTVEkU8XI4jMt1TW5PMPdDKRNvmTO5sI5uv3UBa2oViGXQ+GcRjwpZ2NlPrddkcSEREREZGLRMVjkSUunTU51BNnb0eEw71xcqZFqd/NVc1BdqwMURX02B1RZFn71s/62NcR4Q9uXMHldWoDIItDeDjJlx/poqTAzRdvb6DAq6tVRERERESWIhWPRZagTM7iSF+c9s4oz3TFSGVN/F4nmxoDbG0JsrLSp8viRRaAA51R/vqnvdyytoRfaauwO47IjLzQE+cvHuuhtTyfP7q5HrdTzywiIiIiIkuNisciS4RlwfHBBO3hKE+djBBL5vB5HKxfUcimpgDrav04HXpjL7JQnImluev+TiqCHnbtbMSl309ZhJ54ZZy/29NPW1OAT1xbi6GHsYiIiIjIkqLGiiKLXO9YivZwlD0d4wzFMricBmtr/LQ1BtjUWIjH5bA7ooi8Sc60+ObuPkwLfveaGhWOZdG65pIQw/E0Pzg0TJl/kF/epB30IiIiIiJLiYrHIovQcDzD/pMRnjw+zulIGsOA1nIfN60uYWtrEL96T4osaN9/doiOM5N8bEc11SGv3XFELsj7rixndCLLw4dHKCpwc+PqYrsjiYiIiIjIHFHxWGSRiKdytIej7O2I0DGYwAJqQl4+sLGc7a0hQj79OossBi8PJHj48DCbGgPsWBmyO47IBTOA39xWxXgiy788PUBxgYuNDQG7Y4mIiIiIyBxQz2ORBSyRNnmuO8aBcJTDvXFypkVZoZvNTUGuXhmiMuixO6KIzMBEKsfnHugEC+67s4kCXSUgS0gyY3Lvw130R1J85uZ6Vlb47I4kIiIiIiIXSMVjkQUmk7M40henvTNKe1eMdNakqMDFpoYAmxoDXFKpN+Mii9VfPtbD8z1xPn9rPa0qrMkSNJ7IsuvBMMmMyZd2NlKlDzlFRERERBY1FY9FFgDLguODCdrDUZ46GSGWzOHzOFm/ws+mpgDrav04daCWyKL22LFR/vGpAX7xynLee0Wp3XFELpq+8RT3PNSFz+Ng185GgvlqqyQiIiIislipeCwyx1JZk+d74rQ1vnO/x5NDkzx1MsKBzijjiSwel8EVKwrZ0hzkslo/bqcKxiJLQe9Yii/+ZyeNpfncdWsD+ixIlrqXBxJ85Yfd1BXlcdet9eS5HXZHEhERERGRWVDxWGQOZU2Lv3ysh96xFH/1y62cqz40FMvwdGeEnx0fZyCSxjCgtdzHttYgVzUHydcbbJElJZOz+NJ/hhmZyHDfHU2U+N12RxKZFwc6o3x9dy/rav38jxvqdAWNiIiIiMgipOsIReZI1rT42uO9vNATB+D4QOK1/sRjiSztnVEOhKN0DCawgJqQlw9sLGfHypAu6RVZwr779ACnRpP8/nW1KhzLstLWFGA4XsG/tg/ynX2n+ej2arsjiYiIiIjIDKliJTIHcqbFX/+kl0OnYq+N7X55jNORNE+diPDSwASWdbZg/L4ry9nSEqC8UIcIiSx1z/fE+clLY/zCpUW0Nb1zKxuRpebWy0oYncjw46OjlBV6eM/l6vctIiIiIrKYqG2FyAUyLfjG7l6e7oye8+slBW42NwfY0hykviRvntOJiF3GJrJ89v6TBPNd/PF7G/G41JJGlifLgv//J70c7IryWzuq2bEyZHckERERERE5T9p5LHIBLAv+9sn+tywc/9LGcm6/rBRDbR5FlhXLgm/+rI9k1uRz19WocCzLmmHAx6+p4Ss/zPLtvacpKnCxtsZvdywRERERETkPejcrMksW8I9PnWZPx/hb3qZnNKXCscgSF0/lpo09+MIwx/on+FBbBSuKdcWBiMdl8Kl311Fe6OZrj/fSPZK0O5KIiIiIiJwHta0QLAuO9wyx98VuOvvHGIrEiU+m7I618OUFcBRWgcMNxrk/h7EsC+vMUbDMeQ63cIQK8yn2+1jVUM7WNfXUV+hyZVla/uPZIXpGk/zWjmr8XiedQ5Pc/VAXa2oK+J83rkCfH4m8biiWYdeDYRwGfGlnI6U6RFJEREREZEFT8XiZe/7Eab71cDvHTw3jdBqUFefI95nk5+lhMROW4SFHHiZ5WHgxjTxy5GEZeeSZYdzWsN0RbWFZkJg0SEw6GB51YJmw4V01/PZtm2iuLrY7nsic+NpPenkmHKW4wM1Htlbyz/sHyOYs7ruzmcI8p93xRBac8HCSLz/SRUmBmy/e3kCBV78nIiIiIiILlYrHy5RlWfz9D5/lez95gWChxfp1SRpWZPG49XCQiyOZMjjR6ebQ4TxSaYPfv2MLt295l92xRC7YH/7HSfrHp16t8Yc3reCyWvV0FXkrz/fE+cvHemgtz+ePbq7H7dQefRERERGRhci5a9euXXaHkPn35/+2l/v3HGPtqhQ3XZegtMTEqY0/chG5XFBelmPVJSnGI04efaoPl9PJZU2VdkcTmbWsafG9A4O8+WPYM9E0q6v92lEp8hYqgx6C+S4eOzbGmViGjY2B11q8DMUy7O+M0lSWb2tGERERERHRgXnL0vefPPr/2Lvv8DjO69D/39m+i16IDgIECJAgQYBgp1jUSRWry0WWZDt2nMRp1y25cYtzr5P8kusWx4pjx5ZlybJkySqWREkkRYpFFHsDCZAASRC9t0VZbN/5/QFhicUuKhcASZzP8/CRMO87M2cXOwD27Jnz8s6RC6xZ4WTDGicaeRWIGaTXwx03D1CQ7+LX757gw7La2Q5JiClr6XHh9QXfsXGxzc63Xq/iUFXvLEQlxPXhtsVxPLA8kUNVPbx8rA0YXGj2e9tq2H2+a5ajE0IIIYQQQgDoZjsAMbM6ewf41TvHyM12s6JIFsUTs0NRYNM6B11WHf/56kFWLcrAqJcKTXH9abSO/nNUr9XQ6/DgU0Ejd+QLEdKjq5Lo7HfzVmkHAy4vH17qweH20W2DHruHGLP8qSqEEEIIIcRskprTOeaF3aX4fF7Wr3bMdihijtNoYMMaOx29A2w7VDHb4QgxJY3dwcljk17DfcWJ/OATC9m6NF4Sx0KMQQH+dHMaGXFGdp/vxuH2AaACZY22WY1NCCGEEEIIIcnjOUVVVfaeqmJBlovICFkYT8y+pEQvKUk+3j9VNduhCDElwyuPjbrBpPFPPpXHJ1cnYdbLr1ghxqMCb57uoCHEBzHlTZI8FkIIIYQQYrbJvYBzyKXGLrr7naxe7Z3tUITwy850cfhEB30DTqIsxtkOR4hJaex2otMobM6P5ZGV8+QWeyEmwetTefZgC+9XdIccl8pjIYQQQgghZp+8y51DWrr6AIiLleSxuHbExvpQVZWW7n5JHs+yfruL45WNNHb00tU3gNvjm+2QrnlOu4XFkQ6szV08ve3ybIdzTTLqtSREW8iYF8OqRemYDPKnhxjUZfPg9PjQaRU83uA7orpsbpp7XKTGGGYhOiGEEEIIIQRI8nhOsfYP9jk2G6Vlhbh2WMyDr8fuPvssRzJ3VTd388z24xw+V4/Hq6IoYDGBTj/bkV0famY7gGuc2w0DH13eBr2Gm4tz+JO7VpISHzm7gYlZNy9Kz5duSeezN6Vw+HIvO8u7gtpXlDfaJHkshBBCCCHELJLk8Rzi8Q5WEWq0sxyIEMMMLSbm9UqV60xTVXhm+wle2F2KyaiyfJmT7Plu4uN8ssibCCufT6G9Q8PlOj37Sy+x5/Rl/vL+tTy4cclshyauARaDltsWx3Hb4jiqOxzsKOvk0OVevD6V8iYbdyyJm+0QhRBCCCGEmLMkeSzEOHQaAx6fa0r7KiioSKW3uPaoqsr3fruHvaerKSxws3aFA71eXqtiemg0KslJXpKTvCwvdPLBYRP/+dohmjr7+MsH1s52eDOq3+7iaEUD9W09dPfZ8aly3YWyJFKh02WkvN7DD/9QhyK/S8ekKBAfZSY9MYa1BRnSBkoIIYQQQoSNJI+FGMOazK1kxy2hurucY/U7g8ZToxewMfsB7K4+dle9hN3dHzC+Jf8JehwdHK57d6ZCFmJC/mfbMfaermbjWgeFBVP7cESIqTCbVO682c7RKB+v7CsjLSFqTlQg17f18Ot3T/BhWQ0er4pGAxEW0GhmO7JrnUK7wuCtEmJUqg/6B8DnA61GYf3STL5wz2qykmNnOzQhhBBCCHGdk+SxEKPQafRkxuTj9jrJjMnnVOMePD53wByLPgoFBbM+kqKUjRyp3x4wrlG0aBTpEyKuLeU1rby05yzFhS5JHItZoSiwZoWT3j4N//XGYdYWZJKaEDXbYU2bl/ac5VdvH0evUykqdJCT5SExXhavFeHX1TXYHuZERT0Hv1/PZ7eU8MSdJSjSikgIIYQQQkyR1LsIMYqMmDw0Gi0nm/ag0+hJj1k46tw6ayVZcQXEmZNmMEIhpuYX244RHQlrShyzHYqYwxQFNq5zoNWqPLP9xGyHM21+/IcP+cVbR8ld4OCxR3tZU+KUxLGYNvHxPlYtd/LYI70sWujkme0n+fcX90nhthBCCCGEmDJJHgsxiqy4Atr7G6nrrsDhtpEVWzDq3Ir247i9LopTN89ghEJMXkN7L2WXWykudKCVongxy8wmlaWLXOwtrWbA6R5/h+vM798/w1uHKlhV4uS2TQ6MBsngiZlh0KvcfJODdauc7Dx+ied2nprtkIQQQgghxHVKksdChGDWR5IUmUl9TyUqKvU9F0iOnI9JZwk53+V1UNF+jKTITNKic2Y4WiEm7tC5OhQFsrNuvESduD7lZLnweHwcq2iY7VDCqrbVytPvHGfRQjerip2zHY6Yo5YXOlmyyMVzO09R1dQ12+EIIYQQQojrkCSPhQhhfuwiUFXqrRcAqLVWoCgK82MXj7rPhY6TDLj7KE7dhKLIpSWuTXWtVqIiIMIsFZDi2jAvwYdGUahrtc52KGH19DvHMRhUbloj7WHE7Fq/yoHZpPI/247OdihCCCGEEOI6JBkuIULIiltCa38dLu/gm/6ugRb6XVay4kZPHnt9HspaDhJljCcnvnCmQhViUrp67ZgtvtkOQ4grFLBYVDp77bMdSdj02pwcKq9j6WKntKoQs06vh6IlDo5XNtLZOzDb4QghhBBCiOuMJI+FGCHGlEisKRGPz8PChOX+f3a3jThzMtHG+FH3rek+R7e9jaXJ69Bp9DMYtRAT4/J40GkkmSWuLTotuNye2Q4jbI6cr8frU8mR9jDiGrEgy4OqwqHyutkORQghhBBCXGd0sx2AENea7LgCVFUlxpRAjCkhaDwrroCzLR+Oun9p835uyXmUvMQSVCRJJ4QQc01dmxWdXiE+Tqr8xbUhJtqH2TTYi1sIIYQQQojJkOSxEMMoDPY1bumv5YPq14PG78r/DPNjF4+ZPG7rr6e5r5pF81bi8UnVmRBzlYIiHyDNUZ29diKlr7i4xkRYVGlbIYQQQgghJk2Sx0IMkxSZiVkfOWpyuNZaybKUm5gXkU67rXHU45Q2f8DWvCcxaE100TJd4QohpsHW/CeJMSWOOeeNcz8n3pLCxuwHsLv62F31EnZ3f8CcLflP0OPo4HDdu9MZrrgGudwetFpJHotri1an4nR7ZzsMIYQQQghxnZHksRDDpMcsxOvz0NhbFXK8zlpBYcp60mMW0m5rRFUHb0lW1cAkQa+jk/NtR1iSvA6n58ZZBEqIueB00z6MOjMAZn0kxambqe4up7WvFgAVFZfXgUUfhYKCWR9JUcpGjtRvDziORtGiUbQzHr8QQgghhBBCCBEukjwWYpjTTXspbdqPVw29cJPN1cNrZU/5k8aXu8qos1aGbE9R1nqIc21H8KnS81KI60lr/5UFpWJMCRSnbqZ7oI06a2XI+XXWSrLiCrjQcZJue9tMhSnEDceos6BVtNg9/UEfyo5FWsQIIYQQQggxfSR5LMQwg4nesZO9Xl9gYnmsvsaSOBbixlfRfpy06FyKUzez9/Irsx2OENed3IQiFs9bRYQhBgC310V9zwXOthzA6bGTGr1AWsQIIYQQQggxSzSzHYAQQghxPXN5HVS0HyMpMpO06JzZDkeI68qK9FtZmX47vc5uDtZu44Pq16loP05qVDaLElcCBLWIGUlaxAghhBBCCDF9pPJYCCGEuEoXOk6Sm1BEceommvtq/K1thBCjS46cz8KE5dR2nw/oGd7cV8OlzlNY9FEB86VFjBBCCCGEEDNPKo+FEEKIq+T1eShrOUiUMZ6c+MLZDkeI60Je4nJU1Udp8/6gMbfXRY+jM2BbRftx3F4XxambZypEIYQQQggh5jxJHgshhBBhUNN9jm57G0uT16HT6Gc7HCGuefMiMuiyt+LwDExovrSIEUIIIYQQYuZJ8lgIIYQIk9Lm/Zh0EeQllqCiznY4QlyzdBoDeq0Rm6t3Uvtd6DjJgLuP4tRNKIr8GSuEEEIIIcR0k7+6hRBCiDBp66+nua+aRfNWSvWxEGPQTDHxKy1ihBBCCCGEmFmSPBZCCCHCqLT5A/QaY9BiX0KIK9w+J6rqw6yPnPS+0iJGCCGEEEKImSPJYyGGMekiMGhNsx3GdcGij0KnMcx2GEJMK5862HpCxRc0pqq+j/4b2J6i19HJ+bYjADg99mmOUIjrk6qqdDvaibcko9caJ72/tIgRQgghhBBiZkjyWISdghK0TaNoiTLGjZmYncic6aRRtGzJf5ychGUTmh9hiGFeRMY0R3XF0uR13LXoszN2vvGszLiddfPvnu0whJhWfc4uXit7iqrOM0Fjl7vKeK3sKRweW9BYWeshXjn7E0407p6JMIW4LtV0laNVdBSlbAga02p0xJrnjbqvtIgRQgghhBBiZuhmOwBx/UmNXsDG7Aewu/rYXfUSdnd/wPiW/CfocXRwuO5d9FoDJWm3khVbgKIMJpU7Bpo4Urcdm6sHYNw5qVHZbMx+EK/q4Wj9dhp6LoWMy6A1cWfep4kwxFDZfoLS5v0ApEfnsiH7/qD5NlcPb1f82v/1/NjFGLRmarrKJ/Q8rMq4neTILN4894sJrxR/NYw6y5RugzfqzNNS/Xi58ywbsu8n0hhLv9Ma9uMLca3w+NxTGvOpwdXKQogrqrrOMj92EbkJxZj1UdRZK/D6PESbEslNWEZjTxWn7HtG3b+0+QO25j2JQWuii5YZjFwIIYQQQoi5Q5LHYtIs+igUFMz6SIpSNnKkfnvAuEbRolG0AKxMv4OMmIWcbHqfTlsTEYYYchKKiDMn+ZPH482xGKJRFAW3x8mS5PWjJo9z4gsx6sy4vS4sw3oomvQRAJxpPsCA+8qq7i6vI2D/BfFLaeuvm3Ai+EL7SVr76q/p29LjLSncsfAxDtS8QVPv5bAeu6mvGrfXSXbcEspaDob12EIIIW58qupjf/XrFKbcxIK4paRF5wCDv5/rrJWUtx7yzxv8b+gWMUuS113Tv4uFEEIIIYS4nknyWExZnbWSrLgCLnScpNveFjSuKAqZMXnU91z03/JtdXTQ2Fs1qTlDarrLKUhaS4Illc6B5sBzoZCbUERt93nSY/JCxtvSX4PV3h5yzKSzkBiRxummfRN78EBzXw3NfTUTnj8bhlqIhGolcrVU1UebrYGM6IWSPBZCCDElHp+b0037KG3ej1kXiYqKw2MLSBRf7iqjzloZstK/rPUQ59qOSKW/EEIIIYQQ00SSx2LKKtqPkxadS3HqZvZefiVoXFVVvKqHSEPMqMeYyJwh9dYLLEwoISdhWVDyODV6ARGGGKo6z4yaPB7LvMgMFBQ6bU3+bRZ9FMvTbiEpMgMFDe22eo7W7/RXLC+et5qMmIXsuvQiAAVJa4g1zeN821FK0m8l3pxMn8vKqcY9dA40U5i8npyEZSgoXOo8zdlhCdfC5JuYF5nBnqqXA+LakvcEddZKKtqPBcUcbYynIGkNSZGZGHUWnJ4BLnacoqL9OABFqRvJjMkHoCT9VgpTNtBha+BE4/v+YyRYUilMWU+CJRVF0dDj6KSy7TjMd1InAAAgAElEQVT1PRcCHlNVVymrM7Zg0JrZV/0qXQODtwd32JpIj86dttYYQggh5gZVVRlw9406Li1ihBBCCCGEmB2yYJ6YMpfXQUX7MZIiM/23mo7U0HOReEsK6+ffi3lYK4nJzgHw+DzU91QyP2ZR0MrsCxOK6RxoxuromNJjiTMnA9Dr7PJvW5d1D5HGWA7VvsPB2rdweOz+FhgAFkMU0aYE/9dmfSRJkZnckvsoXQPNnG7ej0lnZkP2fWxa8CDzIjMpbdpPa38dBUlryY5bEnCsKGNcUFzRpngshtB9jotSN6HXGjjTcoAPa96kpb+WotRNZMUuBqC1r46m3moA2vrrqOkuD6iUnheRzq25H8egNXO6aT9H63fg83lYn3Uv8z86hlkfSWJEGhuyHqDN1sDlrjN4fR7/MXodnQDEf/T8CSGEEEIIIYQQQogbh1Qei6tyoeMkuQlFFKduormvxt+XcMjJxr3oNAYyY/NJj8mluquc8rbDONy2Sc0ZcrnrLDnxy8iKXcylzlIAIg2xpERlB/VeHmnxvFUB1bEdtiZ/hW2EIRqX1+GvbFJQSLCkUt56mNb+WgBa++vGfT6MOjOH6t6h3loJgNfnZk3mVhQU9lS9jE/1UmM9z/0FXyQjZiE13efGPeZoDtZuw6d6/V+39NeQFpVDctR8aq0VtPbX4fG5yUtcTmNPVVArkKLUTbi8Dt6vesmfEG7sqeLuRZ+jMGU9ddYKYDCBfK71CGWtwa0phqrELBOoHBdCCCGEEEIIIYQQ1xepPBZXxevzUNZykChjPDnxhUHjHp+Lg7Xb2Hv5FTpszeQmFLE170l/pe9E5wzpGmjF6uggJ6HIv21hYjEur4MG68UxY402JhBnTvb/izBE+8cMWhNur9P/tYpK10Ar+YklZMUuRqNM7FLx+Nz+xDHg77Fc033en+hVVR+9zu4xq6wnYuh4CgpGnYUIfQwurx2D1jzuvnqtkQRLKvXWiwGVxD7VS2PvJSINsf4qa6/PQ3nboZDHGXrODCMqwYUQQgghhBBCCCHE9U8qj8VVq+k+R15iCUuT11HbfT7knLb+etr665kfu4i1mXexMv12dl16YdJzAKq7yihJu4UESwpWRwfZcUuo6SrHq3qC5g53tGHHqAvmDQpcVO5g7VusSr+DtfPvptizmXOtR7nUeXrMc4zkHVYZPJxP9aIohkkdaySLPoritM2kR+eiKBpU1YdG0dLv7Bl3X5POAoA9RH9Ju7sfAKPWBAwm0keucD9EUaZvQT4hZoNJF4FP9fp7m4vRWfRRuLxOPD7XbIcihBBCCCGEEGKaSOWxCIvS5v2YdBHkJZagEjrRCFBnraS1v444cxLKKNW8482p/aiKNye+iKzYxRi0Jqq6zl5V/G6vC702MJlrd/fzQc0febfyN7T1N7Ai/daAPsXhpKJOKgGroLA552FiTfPYfeklXjn7n7xy9j+xOsZKjl/h8AwAgxXXIxk/qlyeyAJ4Os3gc+YaVrUtxGivZY2iJcoYF/J1N5Hx6aZRtGzJf5ychGUTmh9hiGFeRMY0RxVoafI67lr02Rk952hWZtzOuvl3z3YYQgghhBBCCCGmkVQei7Bo66+nua+aRfNW+vsG6zR6VNSAtggABp0Zt8+JqvomNGckl9dBQ88lMmPzSbCk0NpfR5+z+6rit7v7MGhN6DT6oBXd+5zdHK57h+TI+SRGpF1Vn+LRuL1ODDoTBq3JX/GYaEkbNcFu0kcQbYznTMsBuu2t/u1aJfCSHmptodUEbnd7ndjd/aREL+BMy4GAsdToHPqcXf4E81gs+sHF/EJVMIsbV2r0AjZmP4Dd1cfuqpf81epDtuQ/QY+jg8N17wKg1xooSbuVrNgCf7V6x0ATR+q2Y3P1jDsOkBqVzcbsB/GqHo7Wb6eh51LI2AxaE3fmfZoIQwyV7Scobd4PQHp0Lhuy7w+ab3P18HbFrwGYH7sYg9ZMTVf5hJ6HVRm3kxyZxZvnfjGh6yUcjDqL/7qb3H7mCX0gNBmXO8+yIft+Io2x9DutYT22EEIIIYQQQohrgySPRdiUNn/A1rwnMWhNdNFCSlQWJWm3cqmzlM6BZgCy4wqINydz+qOEzkTmhFLdVcb82EVEmxIoqw3dj3cyuu1tAEQb4+mytxJrSmRhYglVnaXYXL0kR83HoDPRPWbbi6lr7q0mP3EFqzLu4HzbUeLMSRSnbg5Kqg9xeGy4vS7So3P9rUKKUjYSZYwLSOIMuPtQUcmKK6DP2Y1Wo6fD1gjA+bajrEi/jTWZW6lsP45Woyc/cQUxpgQO170zobijTQnAledPzA0WfRQKCmZ9JEUpG4MWq9QoWjSK1v/1yvQ7yIhZyMmm9+m0NRFhiCEnoYg4cxI2V8+44wAWQzSKouD2OFmSvH7U5HFOfCFGnRm314VlWF/xoR7eZ5oPMODu9W8f3p5iQfxS2vrrJpwIvtB+kta++rAnZcMt3pLCHQsf40DNGzT1Xg7bcZv6qnF7nWTHLaGsJXhBTSHGIi1iJkbawwghhBBCiNkmyWMxaUPVwCP74PY6OjnfdoQlyetweuy09tfT2l/HkqS1/spXp8dOafN+LrSfAJjQHP/5uFKF3NpfR7/LilbR0dRbFRSfb1jF8pV4g6uYh7R/lFBNiEijy96K3TNAnHked+Y9DoBP9VHVeYbLnWcCjquOOM/Ic1w5t3fEdjUgxtb+OirajrEoaRUZMXnY3f0cqd/O0uT1AfEPf+6PNuxgVfod3FfwRVRU6q2V1Fkr0Gr0/uM6PXbOtx5lSfJaUqMW0NBz0Z88ruo8g0kXQf68Ff52HHZ3P0frd1D30aJ/oR7TcIkRaQy4ehmQyuM5qc5aSVZcARc6To76AYKiKGTG5FHfc5Gqj64fq6ODxo+u2/HGR6rpLqcgaS0JllT/B07+c6GQm1BEbfd50mPyQu7f0l8Tsve5SWchMSKN0037Jvbggea+Gpr7aiY8f7YMtREJd29yVfXRZmsgI3qhJI9ngYISsk2URtESYYjG6bGPmpidyJzpNNQi5kLHKSrajo07P8IQg0UfRbutYQaiG2wPkxm7iO2Vz87I+cayMuN2VFXlQM0bsx2KEEIIIYSYoyR5LCbtclcZddbKoPYOAGWthzjXdsSfGD1av4PjDbsw6yPxqh4cblvAfLfXOe6c0c43+KZOCUjCArxT8Qy+YYnmseIdYnP10G1vIzVqARc7TuH0DPDexRcw6szoNUbs7v6gBflON+/jTPOBUb8G6HdZea3sqaBzH6j5IyMX6DvTcoCK9uMYtCZs7h5UVaWlr9afNB95/MaeSzT1VmHRR+P2OnF5HSiKJig9VNZ6kIr2Yxh1FgZcVyouVVTKWg9yru0wFn00PnwB46M9piGKoiEpIoPqrrKQ4+LGV9F+nLToXIpTN7P38ish56iqilf1EGmImdL4SPXWCyxMKCEnYVlQ8jg1egERhhiqOs+MmjwezbzIDBQUOm1NAdst+iiWp91CUmQGChrabfUcrd+Jy+tg8bzVZMQsZNelFwEoSFpDrGke59uOUpJ+K/HmZPpcVk417qFzoJnC5PXkJCxDQeFS52nODku4FibfxLzIDPZUvRxw/i15T1BnraSiPXSCLdoYT0HSGpIiMzHqLDg9A1zsOEVF+3EAilI3khmTD0BJ+q0Upmygw9bAicb3AUiwpFKYsp4ESyqKoqHH0Ull23Hqey74zzH0uKq6SlmdsQWD1sy+6lfpGmihw9ZEenTutLTFmOvC3R5mInNmoj0MXPstYqQ9jBBCCCGEEFdI8ngO0ekG++d6vYB+7LnjGSsROzKZ61O9/jeuo+8z9pxQ5xt5niEjk7yj7T9SdVcZy9NuwaSz+N+cOj12nIR+I6iqKl48o349ldhdXkdAFZhvWMVyqOOrqhrwvKmqL+RyhR6fG88oz69P9dHvCv2GdLTHBJAatQC91kj1VfaA9vkGI9ZpZf3O643L66Ci/RjLUjaQFp0zakuEhp6LZMctZf38ezndvC8oCTbe+HAen4f6nkqyYgs43bQP97DFGhcmFNM50IzV0THpxxJnTgag19kVsH1d1j3oNAYO1b4DqGTGLsKkj8DldWAxRPlbtwCY9ZEkRWaSHDWf6o8+tFqavJYN2ffRbW9DpzFQ2rSf1OgFFCStpc9p9fdQtxiiiDLGBcUVbYrHYhg9iVWUuglQOdNyAJfHQUZsHkWpm7C7+6m1VtDaV4dW0ZOXuJy2/jp6HJ3+HvHzItK5OecRehydnG7aj9vnJC9hOeuz7kWp01BnrfA/rsSINFKismnovYjLY/e31Ol1dAIQb06+Lqqwryfhbg8zkTkz0R4GbswWMdIeRgghhBBC3KgkeTyHxEeZAbDbFcymUCnGua26u5ylyevJjlvir9oTo8uJL6S5r4aeKSTqhrMNDCaNE2IiwhGWmGEXOk6Sm1BEceommvtqQrY5Odm4F53GQGZsPukxuVR3lVPedth/l8F44yNd7jpLTvwysmIXc6mzFIBIQywpUdlBCbaRFs9bFZCA6rA1Ud9zgQhDNC6vI+DDHgWFBEsq5a2Hae2vBQZbzIzFqDNzqO4d6j9q/eL1uVmTuRUFhT1VL+NTvdRYz3N/wRfJiFl41QtwHqzdFvAhU0t/DWlROSRHzR9MHvfX4fG5yUtcTmNPVUA7kKLUTbi8Dt6vesmfDG7sqeLuRZ+jMGW9P3kMgwnkc61HKGsNTF4NtayxTLByXExeONrDTHTOkOlqDwM3bosYaQ8jhBBCCCFuVJI8nkNSE6IB6OzWEh83eh/bucrr8/Dexd+F7CEpgpU27w9LFVinVYtWo5AcJ8nj65HX56Gs5SBrMreSE1/oT0oN5/G5OFi7jaTITJYkrSM3oYiMmDz2V79Ot7113PGRugZasTo6yEko8iePFyYW4/I6aLBeHDPeaGMCHv2VBPFQlbNBawqoYobB1i5dA63kJ5Zgc1qp77kw6l0DVx6r2584BvwJtJru8/4kr6r66HV2Yx5WsTlVQ8dUUDDozOg1BlxeOwatecz99FojCZZULnacDliY06d6aey9RH7iCkz6CH8C3+vzUN4WvDjp0HNm0Bqv+rGI0MLRHmaic4ZMV3sYCN0iZqz2MEDYWsRIexghhBBCCCEmT5LHc8iClDjmxUZQXecmL2f8Ng5zkSz8NnFDt75frdo6PYU5yUSYDGE5nph5Nd3nyEssYWnyOmq7z486r62/nrb+eubHLmJt5l2sTL+dXZdemPD4cNVdZZSk3UKCJQWro4PsuCXUdJWHbFsz3NGGHaNWRI7sQw5wsPYtVqXfwdr5d1Ps2cy51qNc6jw95jmG845YLHOIT/WiKFf/mrfooyhO20x6dC6KokFVfWgULf3OsVsFmXQWAOwhfuYNJdSNWpM/eayiBi2SCvj75oa72lJcEa72MBOdA9PXHgZCt4gZqz0MELYWMdIeRgghhBBCiMnTtbUGV3WJG9dNi1PZdtRGT6+TmGipPhazq7FZR1uHhgdXJSE/i2aGy+WaluOWNu/nlpxHyUssGbd6v85aSXbcEpIjs/wJz8mMA9R2n6c4dRM58UV0DjRh0Jqo6jo75fjdXhd6bXAy1+7u54OaPxJljGNp8npWpN+Kx+e66nYTI6mok07AKihsznkYBYXdl17C6mhHVX1syX9i3H2Hes0atKagMeNHVcsTqXDUaQafM9eIqu3JU3HY7TfMzwGHw0E4b2IJR3uYic4ZMh3tYYCgFjFTaQ8DM9si5oZpD6OqOJ3OG+Y6E0IIIYQQM0Pn80kCcS752OoF7DpVw4EjZu65w4YixWJilng8CgePmEiJs7BxSRrys2iGhKgeDYe2/nqa+6pZNG9lQN9gnUaPihrQGgHAoDPj9jnRKlpURTPqeKgkGQxWYzb0XCIzNp8ESwqt/XVXVQ1vd/dh0JrQafQhF7nsc3ZzuO4dkiPnkxiRFvbksdvrxKAzYdCa/NWWiZY0FGX0hSRN+giijfGcaTkQ0N5DqwTeVDSU9NJqrmx3e53Y3f2kRC/gTMuBgPmp0Tn0ObsmtJiZRT9YrRmqgnmyVLhxfg6E+ToLR3uYic4ZMh3tYSC4RcxU2sMMPpaZaxFzQ7WHUdUb5zoTQgghhBAzQtpWzDERJj2fvX0pP3unlEPHTKxf7ZAEsphxPh/s3m/C2qvlm58oQqcdPUEmrh+lzR+wNe9JDFoTXbQAkBKVRUnarVzqLPX3Ts2OKyDenMzp5v3jjo+luquM+bGLiDYlUFYbnHCZjKGFyKKN8XR9lESLNSWyMLGEqs5SbK5ekqPmY9CZ6B617cXUNfdWk5+4glUZd3C+7Shx5iSKUzcHJdWHc3hsuL0u0qNz/e1CilI2EmWMo99p9c8bcPehopIVV0CfsxutRk+HrZHzbUdZkX4bazK3Utl+HK1GT37iCmJMCRyue2dCcQ+1EhhtITcRPuFqDzPROTBd7WFgZIuYq20PA9PbIkbawwghhBBCiLlMksdz0Mal6TR19fPHw1XYBhRu3uDAoJdF4sTMGLBr2LXPTHOrli9sKaQgM362QxKTNFQNPDLJ0evo5HzbEZYkr/Pfst7aX09rfx1Lktb6K1+dHjulzfu50H4CvdY45njQOblSMdfaX0e/y4pW0dE07DbxofnDqxevxBy64q7d1ghAQkSaP3ls9wwQZ57HnXmPA+BTfVR1nuHyR1WfquoLON7IrwPP6x2xXQ2Ir7W/joq2YyxKWkVGTB52dz9H6rezNHn9qOdQVZWjDTtYlX4H9xV8ERWVemslddYKtBq9fx+nx8751qMsSV5LatQCGnou0mFrpKrzDCZdBPnzVpAdt2TwMbv7OVq/g7phFZ2hHteQxIg0Bly90i9+hoSzPUyoOSOFuz0MhG4RI+1hxha+9jBCCCGEEEJMniSP56hPbFpEbISR5/acp7FFT/FSJwsXuImKlFsZxfTosmq4WGWg7LwBjUbLVx5Yzqq85NkOS0zB5Y8WqArV3qGs9RDn2o74E6Nur5Oj9Ts43rALsz4Sr+oJ6K863vh459xe+SygBN3m/k7FM/iGJZrHihnA5uqh295GatQCLnacAsDpGeC9iy9g1JnRa4zY3f0BFZenm/dxpvnAqF8D9LusvFb2VNB5D9T8kZHVl2daDlDRfhyD1oTN3YOqqrT01QYkzEeeo7HnEk29VVj00bi9TlxeB4qiCUqPlbUepKL9GEadhQFXLzCYSCtrPci5tsNY9NH48PnHhgv1uAAURUNSRAbVXWUhnlExHabaHkZVfROaM1K428PA2C1ipD1MaOFsDyOEEEIIIcRkSfJ4DtuyIpulWYm8uK+CoyfbOHLCSFQkRFh86HSSRBbh4XJpsNk02Oyg0cCmJRl8fGM+8VHBlVhiBigK4bi6R0vCAiH7lfpULzbX6Ld4jzc+2jlH640a6rb6sWKGwVv0l6fdgklnCUjoOD12nARXB6qqihfPqF9PJW6X1+FPag3OC65YHnkOVVUDnjtV9YWsSfX43HhCPMc+1Ue/yxpij9HPCZAatQC91kh1GBJ8qoq0UJqgqbSHmeicUMLZHgaCW8RIe5jxSXsYIYQQ16r/+8//QnfX1X2wDJCekc4Xv/B5YmICF4f1+Xy8te1t9u7dd9XniEuI5x+/9c0JzW21OTne0kN5ez+ddhc2lwe7J3SLrFAMOi0ROi0JFgMFCRGsSYslLXLs97+HDx+htnb8RYNzchawevWqCccyUk11DUeOHgs+7oJsVq9ZPeXjnjp1mgsXxl4XY/HiRRQXF03p+JWVFzh9unRK+w4XGRFBVFQU87Pmk5U1398eTIxNksdzXHpCJF9/eBWdfQ5OXmqltq2XbpsTzyR+MAoxFoNZS1yGmdzUGFbkJhFlvrrek+LqRFsMNFqlx3Qo1d3lLE1eT3bcEiraj892ONe8nPhCmvtq6HF0XPWx7A4NMZYwLAZ2Awlne5iJzpnu9jAQ3CJmvPYwQ8cLR4sYaQ8jhBBChNeZM2dpaW0df+IodDodDz1wP3/+Z1/EZApOrmo0Gh64/z6Skubxox//hOaWlimfKzU1ddw5DX0O/v1QFXtqO/GGcQFkjaJwc2Y839mYR2pk6L959+37gF27do97LKPRyC/+579JTxv/8YRy4eIlfvWrXwdtv2vrliknjz0eDz/4wY9oaxv7w/+UlBSeffZpNJrJvx8tO1sWMu6rERMTzb333MMjjz5EdHR0WI99o1Gam5qk2a0QQswRv99XwfZT1XzusR6m8Dv7hmfRR6Gi+hezEqOLMsbh9NgDKqWnYsCu4bmXIvnc7UvYsiI7PMHNsqfeOkVlSxMff/Dqkn2hWjsM0SiaoAp2jaIds/3LROaEOqdG0TDYHiYwMatVdPgITHqOFfOQO/Mex+mxs7/6Nf+20drDwOCCcRq0/u0jv55s7AatKaA9jEbRouLzJ+pDHV9RlJDtYUZ+D3Qavb89zPC+1BpFM2Z7mNEek6JoeHDJX1DdVTbuIqLjef3tCNKjU/n6w1OvVhJCCCGGe/QTn5py8ri4qIivf/UrLFiQHbDdrfo4Z++iwBSHQaP1b3c6nfzuxd/z3G+fx+MZe/HeUFJTU/nD74MXCB5S0WXjT94qxeoc+++YqxFn0vO7B0pYEGMOGvv3f//BhJLHAMXFRXz/+/82parZnTt38f3v/zBo+11bt/C1r39l0scD2L37ff7t374/obnf+c432bx506TP8eorr/HzX/xy0vtNRHJKMv/6L99j/vzMaTn+jUBSB0IIMYcszU7E5VZpapEbT0IZcPdJ4niC+pzdV504BqitH3xTsCx73lUf60Yz1fYwoyWOJzJntDYrIxPHMNgeZmS17HiJYxhshZEUmYlJZ/Fvc3rs9LusIVvOqKoasH3k15ON3eV10O+y+pPFPtUbUOEd6vhD7WGGXvMjq66Hx2Bz9QQtaDjUHiZU4nisxxTO9jBCCCHEtSAqKpK//Zu/5qc/+XFQ4rjO2csz7eVs76nhlx3llNk7/WNGo5HPf+6zPP3LX7CscGlYY/L4VL7x/vlpTRwDdDvc/N3u8/iusqq5tPQM77z9bpiiunqvvPLa+JM+8vLLr0xjJFPT2tLKd//xn3C5XLMdyjVLksdCCDGHFGTEE2nWU16pH3+yENNMVeH8BSMZiZGkxkfMdjhhYzbpccrfnqOq7i7H7XX62ziI0YWzPYzLpSFSWkcJIYSYRbfeegsvPv9bPvHoIwGtC2xeN9us1bzYdYFurxOAfq+Lt63VvNp9iV7vlT+scnNy+NlTP+Xb3/yHsLUaONjQRUXX6B++h1N5Rx+HmkZfb2Sifvmrp8dtEzETjh8/waVLVeNP/Ehl5QXKzl57C243NDbx5htvzXYY1yxJHgshxByi02p4YG0u1bV6mlq04+8gxDS6eNlAW4eGR27Km+1Qwio+wsiAXYNP1p4Nyevz8N7F31FrrZjtUK55pc37OVIXhsoiFfptCrER0ltcCCHEzMtIT+PHP/oB3/un7xIbG+vfrgJl9k5+1VFG+bAq4+EuOaz8qr2Mw7YWf8WuoijctXUrzz/7G7Zu3XLVi569e/nqP6SdjDcvTL1P9BCbbYAf/vBHQetjzLSpVBL/4ZVXpyGSqzfRtiFzkdy3LIQQc8yWFdnsLWtg1z54+N4+IiOl9b2YeR1dGj44ZGLp/ATW5E9twY9rVW5qLD51sD1MRtrke/LNBbL428T0Oa9+BXuA5nYdbg8sTIsdf7IQQggRJjqdjk994uN84fN/gl4feOdjm8fOjp5amlzjt4xzqz729TZwfqCTrTFZpBkiAYiPj+M73/wGH7v7bn7wox9TW1c3pTjL2kf/u+T+vGTuz08mP86CUTd28Y2qQseAi2abg3cvtfH6hVZCvdM62xa6jVXI89//MZqbWzh2LHhB75MnT/Pee7vZsuWOCR8vnKouV3P6dGnIsTvvvAOtRsP2HTuDxg4dOkJdXX1YegyvWbuarXfeOaG5Pb09lJefZ9++/SH7Zlddrqarq4v4+PirjutGI8ljIYSYY/RaDX/30Cq+/fyHvPFuJFtvGyAxIbifqRDTpaFJx659FmIjTPyv+1dwlcUi15ylWYmYDFouXZbksbg2XKrSYdApFGUlznYoQggh5ojly4v5u699laz58wO2O3xeDtuaOWZrnXTv3zaPnd91VVJiSeKmiFQs2sGUVknJcp55+pc8/8KL/Pb53+F2T7x3sdvno7bHHnLsiaXpfGvDwknFGGPUkRtnYWNGPAlmA78srQ+aU9frwOn1YdSO3wwgPz+fxx9/jC984c/p7w9OtP/sZz9n5coSEhISJhVnOLz8+5dHrXx+5JGH0Go07Nj5XtAcVVV59bXX+cqX//aqY8hIS2fzzRNfgO+++z7G5ps38d1//D8hx6traiV5HIK0rRBCiDkoKdbCdx9bj0Vv4fV3IvnwqBGb/QbL4IlrTm+fhr0HTGx7z0JqXDTffewmIs03Xv9trUZhS0k2lZcNdPdIexgxu3p6NZy/aOC24iwMenk9CiGEmF7x8XF8+5v/wE//48dBieNDPV185txJnm1oIUZjntLxozRG3mzt4PHyE+zovNL+wWAw8PnPfZbnfvMMq1eunPDxepwe3KP0Gnu8MH1KMQ55YllGyO1eVaXTPvEFMuLj4/mzP//TkGM2m42f/MdPpxTf1WhtaWXf/g9Cjq1es5rc3ByyF2RTUlIccs57O3fR1dU1jRGO7qb168jNzQk51tLUHNZzdXZ2cuzYMfbu3UtpaSkOx9UvOD4bpPJYCCHmqPSESP75Mxv5wwcX2F1ax9nzRpLneUmM82K2qEzgg3AhxuX1gm1AoaNTR3unBoNew0Prc3lgbS4G3Y37Irt/bQ57ztaza5/Kg3f3ob/xcuTiOuDxKuzeb8Fs0PHQ+slVTgkhhBCToSgKW7bcyd/+1V8SExMTMNbpdvyB4JgAACAASURBVPHzxmp2dLb5t10esLM1KZ4IgxuHb/w7tfSKBq3PxMsNXXg+qmT9l5oLvN/dwVcyc0kxmgDIzEjnRz/8Pjt27uSpn/0cq3XsxekG3KHvwIw06MiKnlqCe0iSxcA8i5H2AWfQmM01uTs/79q6hX1793PixMmgsUOHj7Bn7z5uveXmKcc6Wa+++jpeb+jH8ImPP+L//0cefpiTJ08HzXG73bz51tt87rNPTluMY8lbuJCqqstB2wfsA2E7x8mTJ9m7dy8mk4no6GhKS0v58MMPefjhh0lJSQnbeWaC7o2de8edpNVo2LiqmNjYKz8Aurq6OXDizKSbcxv1OtavKMLtcXP4VDkLMlJYsihv3AbnbrebIyfPYLM7uG3DGn+/nEuXqym7WDvhW16Neh2b1pQQEXFlVXertYdDJ8/iCuh5olCYl0XuguwJHddms3Hg2Gkcriu3R6gq5C9IZ0n+lYWAauvqOXW+KijepQuzWJizYNi+KlXVNSMem0JspJlN61b5Vybt7e1j35GTAbd7KIrCskU5LBjRP6axqZljZysDzq2qsHHVMhITEnC73Zw4U05rZw8EdOZRmBcbybpVJQEronZ2dvHhybNBr4FIs5H1K4uxWCwB271eL6fKztPY2jni+KEoJMRGctOIc6qqSne3lVPlFZy82MTFll4cHhWTXkNhegyrFmdRuDiPqKjIoNeUqqqUlp2nsa2DjauWExMz/sqsDY1NnDp3kYLc+f7vj9Xaw4Hjp9Fptdy+cW1Q76aRVFXlyIlSevptrF+xzL8ibG1dPaWVl0NeQ0a9jpioCNKSEklOmofRaJzwIgAOh4PDJ0rpHXCwtriA5KSkgFj2HTxKj83B+N+DQIuyM1iYk83JM+V09fQFXUfDz9HW3s6p8gucuNTM5XYbbo+PaLOOJemxrC7IZkl+bsh9Ac6Un6e6sY0F6UksW7J43Mfd29vLh8fPkJ6aRFFB/qQek4AIo57P3bGUe1fncLiymdOXW2lqtNEz4Mbnk17I4uppNQoxEQYyEqO4tySZtfkpxMyBRbssRj1ffWAF//zSEba/H8GWWwYwGuWaEjPH7VZ4b6+Fji4t//vRFUSZDbMdkhBCiBtUbk4OX//aV1lWuDRgu09VebuzlZ81VGPzBiaIVWB7WxfJBgN3JkVh9Q2M+g41Xmthb3s/9Y7gRfUO9XRxss/Kp1MyeTIlE52i+BfU23DTBv77F7/grW1vjxq73RO66jjepA9La7V4ky508tgzueSxoih85ct/yxf/7EvY7cFtNv7rqZ9Rsrw4YEHC6dLX1xeylzFAXl4ey5dfqTZevWYV8+dnUlcX3L7jzTfe4pOfeBSz+eqS9FMxWmuKAXt4KoNbW1vZu3cvuQsXcu8996DT6ejt7eWFF15g29tv84XPf/6qF3qcSbqvPf3euJMseh3PJcWzfFjyuKq2jm//5n1cIV7w3o+ueI0CI5+KOIueXyYn0Nc/wDeeeZ9P3ZTN4rxctNqxb6Oz2+389JXd1Hc5WL9imT9h9/7BE/y/t06jJfhcocRH6Pj9wuyAxFVNXT3ffnYXPY7hfXEU/uHBFeRkZ03oG9rR2cV3n9tFh234rQcKf3FHQUDy+MipMr71wiFUAp+3Dbnx/Pw7f+m/aFRV5f2Dx/l/b5UyPMm3JDmC9auWYzAMvgGob2rif/96Ny7fleNpFYXvPLomKHl86ux5vv7MHlCH/3BUeD4+msSEBDQaDfWNzfzjiweDbtuINen4/T/GsfCj0n63281vXnuXn++qQCXweH96cz4b16wIeo48Hg/Pv72fbaWNaFHG/X6tyI5lbUmRP3ns8XjYe+AwP3vjQypbbZj1WlJiDEQYtXQOuDlSfpmn3zvN8swY/vLhW1m7qiTgeKqq8vKOA7x9upEX0pImlDw+WXaebzy3jy/fU+xPHtc1NPKNZ3bj8qp8r7ePRz62ZdzX79Nv7OFsYy/PZaT4k8eHTp7ln35/EFUNfO2qAIqCQacl2qiwND2Wj9+2kptvWuP/vo+l4sIlvvo/79Ln8PK3dzXzpScfRafT+Z+DH7/0PpWttqD9fAz+ctcqob83f3VXIVmZ6fxm2wecqOnipZz5QQlgt9vNG9t388x7p6jptBNl1JIUacBs0HCp1cMHZ6r4n3dPsHpBPH/35MfIW5gTdH29svMALxyuZWGimZ///ZNkZwXe6jRSa1s733l2F3dvKpHk8VWYF2PmvjU53Lcm9O07QojJW5QRz9/cV8LP3jnNa9uiuGntAFkZ0gNZTL/6Ri0Hj1ro69fypbuLWCa9joUQQkwDo9HI5//kc3zmicf97zmHVNlt/KDuEuX9Yy8O1+py8XxDJ2tjY8iJUuj1Xkm0WjR6Oh0aftsRnDQezunz8UxTLfu7O/haVh6FEVEAREVF8vdf/xpb77yD3734Ush9RyuINITpNszRFtmbZB0mAMkpyXz2M0/w81/8Mmisp6eXn/3Xz/nmt/5h8geepDff3BYygQ3wiU8+GvC1oig8/NCD/MdPgltr9PX1sXPnLh544L5piXMso1UY6/XhadBQXV2NT1W5efNm/7URHR1NQUEBx44fx2q1EhcXF5ZzzQSdGvpDlgCqGpxKKlycz8vffSLoQnO53PzVT14l2qTln/7kHqIiA5NLWo2G+ZkZnDpTjqr6JlX8qPpURu6gqiqqqvAPD69kbcmScROSOq2W1JTk4GOrvsCcKirKJC9mRVVH5mVD/kQYjDlw25HL3ezY+yEP3HV7QDJNHfGQQ4XkGxm7dujkwVRf8EGGvodarZaP3XkLpZcaePFQTcCc7gEPv/jDDv7v//ocZrOZC1WXefHARXzDksyKolCUEcVffPp+jMbQVWWqz4dZp+U//+IuUpLGfiNjNpn8F5nb7eY3L7/JU9vPMi9Cx7ceXcMt61eSEB+PVqvF4/HQ0trG23sP8+L+Cv7yqTf43uNW7rr95hGVy5Ortw31vYLBY3i8Pn70xlGW5GVTuKRgEkcdOoaKoij8xR2L2bppdcCxbQN26ptaOV5Rw75zLRz85U4eOlXB1z//8aBbgIbzeDy8vf84Lo+PeRFatp+8zCfv7SYpaR4AGo2GH3/10zidgZ98+lSVX722i93nWvn2x9ezbHFu0ONNSkhAUZTB5yRERerAwAD/9dvX+NWeSgpSIvjnT29kw+oSYmNj0Gg0uFwuGhqb+OP7h3j5YBVf+Pff8S9/soVNN60NfM2joPpULrXb+f5zb/Cjv/+zUV9Pg5TB76kU9AkhrkFr8lOYF7Oe/36nlHd3wbx4H9nZbpISPEREqIyzaLcQE+LxwsCAhvZOLdW1eto6NKQlRPDlTxWRl3b9vDERQghxfXnqP/8jKAHm8Pl4sbWB3zbX+dtLTMQRaw9nerTclxqHS7FjUcxsa+mmdxIVulV2G39VcZotCUn8TUYu0R/lE4qLi1m2bNmEjwOEbUHncNeWPvTwg3zwwQHKz50PGtuzdx+bb97Exo0bwnzWK9xuN2++uS3kWEpKCptCnPvOLXfwzG+epacn+IOEV155jY997J5xC/LCrWOUDyTCVQW9bt06VqxYEVQAaLPZUGBChYHXEp1OO3qS0TvGhW42m1k8rKJ2iNPpxKBVMOk15OUsIC5u+kvmAdKTEyjIH7/9xbXK7VV59r0TbFqzgoSE2VvZ0Ww289dPPMDxql9yqd0e8OHAzrJm7j99lpXFhTy/bR/dA4ErmMaadXztE7eOmdyEwR/COVmZZI2ojB7L27v28T87z5KbaOJfv/QI+QtzA5LCOp2O7Kz5/NmnU1mx5Az/9Jt3+ZeXPiB5XgIrlxdN+DwTpQBZcUaa+tz8xwvb+bcvJ5GYOPnVTRVFITkxjoJFwRWzq0vgvi1uLl6u5qe/384bJ+ox6V/nH7705Kg/WBsamzhwvpH1OfEUZCXx6z0VnDhTzl233+y/NnKys4L28/l8xEV+iAaFzNSkkPEAQUnnIV6vl1ff2cWz+y+wcWE83/7iI2RlZgR9j/LzFvKV7CxWLDrMt597n39/YTfzEuODzmfUaUiM0LG7vJVX39nFJ++/a8Z/mQghRLgsSI7h3z67iQ/ONfJBeQMnTnfh8934rTvEzNNoIC81lvu3ZnJzYTpazY3bV1wIIcTsG5k4PtDQze866yj3jF1tPBq76uXDBhvadh0k2unVTq61AwzWFO3obKOt3c2n0jNYnzaYk9LcIL8TNRoNX/v6V/jzP/8r3G530PhPf/oziouLiIqKmpbz79zx3qgL3T366MMh37cbDAbuvfceXnjh90FjLS0tfHjgIJtv3hT2WEfjcrk4e7Ys5Nh4+azJGJ4gdjqdnC0ro6KigqVLl47axvNapfvxF24PObDjcBlvn22ddE/j2XK9xDmW8039vLPnAI8//LFZjSMlKYmvPLKJb/xmNz32K7fX9ju9/G7HYWwDdnaVNQXsY9AqfHJ9LmtXrQh7Ar+trZ1nd57AqNfwvx/fGvJDiyF6vZ61K0v4al8/X3t6N0+/sY/83AVh/8GpKLA2P4XeASf7Ktt55Z33+cJjD47b/ziUsV67er2eJYvy+cbnLXzjp7/ntWM13L2pnBXFoRPiR0rLae1z8Wf3riE/Zz7P7q1gx9Fybtmwdlr7CF2uruH598+SGKHnW194iAVjtJrQ6/XctnkDf9HWyQ/fOMVvt+3l/+QsCHjuDDoNT95ayHN7yvnV9pMULcqlcMniaYtfCCGmm0ajcHNhBjcXZjDg9NDc1U+3zYnXO4FbwIQYh1arIcZiIC0+kgiTrM4ohBBidvzqdB0nmntYszCGmqh+3MrE/86xoCPVauHY5R68qorSACvnR9M5z0E/E2/7lYARQ5Oenc2dZPgs/uTxjSQzM5NPPfZJfvvc80FjXV1d/PwXv+Tvvv7VsJ/X5/Px2ut/DDkWFRXFli13jLrvgw/ezx/+8GrIhPfLf3hlxpLHNpuNp576b3p6ekKOZ4cotrtaBw8e5OChQwCkJCdzyy23hP0c0013z523hhy43NgKZ1tnOJy5ze318ft9Zdy6fiVpqamzGsttm9bzUHkVv/vwMu5hb2w/vNBBZeM+umyBF3xxZgyfeWhrUJ+jcNh3+DgX22w8tj6HVSXjVxFrNBpu2bCO9XtOcbiqg/KKi6xbHdyD+WrptBq+9pn7Kf/X53h27zlWLF3ImpUl4+84BfMzM3hy62q+9vRu3tp3nOLCpUGf6Nntdt49UkFSlJH1q4qJj42lMC2K45c7qa1vGDPpfrV2HzxJXbeTv7m7kJwF2ePO12g0PLT1VrYdrmTf+RYuXa4Oqj5ekjufP9Vp+dfXT/Dfr7zH//flNH+/aCGEuJ5ZjDpyU2+8NzJCCCGEEB5V5eBFK2lRRrJzLNTo+sfdJ8cTSfVFB4cHrP5tKnC8rpfoVh2FudFcMvUSoqOqnwaFhfYoTl7sw+4O3Y/3RvLpxz7JBx8coKa6Jmhs5473uGXzJlavWR2841U4dOhwyIXvAB548P4xC9bi4uK45Zabee+9XUFjlZUXKDtbRuGywknH9MGBD6mprZnQXJttgOrqGlwuV8hxk8nE/MyJ3yE/UVlZWSQnJ9Pe3s7RY8f47fPP86lPfnLaqsOnw6h1+zdAIe916WKbnZff2RvQS3g26PV6vvTY/azOjg2oJB5we6mzBrYuSIrS85VP3kFyctK0xPLe8QsYdRq2bCiZcOsCo9HIAxuLGHB52X+yfNoq03Oys/jyQ+sZcHn5/gvvjdo3JxyKly4iO97IocqWkJ/WnT57jvKGHm5blklKUtLgrSHrl9Bj97Lr4Mlpew5sNht7ztSQEKHjrk1rJrxfTEwMd63Owzrg5tCp8qBxjUbhUw/eze0F89hzvp3f/XHHrF8XQgghhBBCCCHG19Tn5FhpL5mtkUQRusgsFj0ZrZEcKe2lbSB0Qq/X6eHgOSsJDWaSVVPIOek+M5HVJj48Z8Xunnyri+uRTqfja1/98qjtOH74o59gs9nCes4/vPxKyO0ajYYlixdx8eLFMf8tKxo9OfzyKMceT3t7OydPnp7Qv8rKC6MmjgE2bLhpWgoi09PTyc3NZd26ddx333309PRw+PDhsJ9nOoX/WZm08CS0rtdexyN5fT62Hb/M1k1Vsx0KiYkJ/PWj/3979x0dxXkufvw7s1WrXhBClSIJEAiQ6EZgTI9NsQ0YF9wS27ET3BPn3pub5Cbnd+8vuS5JHCe24xa3gBsuFFs0C9GLEEhIgAQCgSRUkZB2tX3m/iEjWHYl7Qrhlvdzjs8xOzvvvDOzuxyeed7nmcHJl9dwtsV3rVudRuLu6SPIHh34EyJ/WK1Wys6eJynSSFJCYNnYI4elEmbMp6SyHqfTeVV+BADmXZfDviMn+XjfGV59fx0/e+D2q3Ks0JAQkmJC2XW8kZbz54kzXvyLU1VVvthRiFaWuG7CxUYAU8aOIubzAjYfOsUdLeevSg3yuvoG6lptJEUFkRAf2D0alT4Ig+4QpadqURTF6y8+g8HAI7f9gPI/vsc7+aWMG5nG+OwxfTl9QRAEQRAEQRAE4So5UNVKaL2WUalhHDe1oahqZ5ZwYXkb7U7fsYbLHam3oG2QmJAazsmwNlyoXqUu/tUMGzaUG29axOqPPvba1tTUxKuvvsGjj67ok2MdPlzis0kfdJSz+I9f/vqKxt+9Zy+VladJ6aYE5tUkyzKLFl79ErIDU1IwGAzU1X23Kj18s8FjCQqO1/LsK+/22MrS6XRT02Lrahh2FZXRau75qcr40SMCatT2ddDIEhLgUjp+7Kpb7Lz/+TYGRH/zS/SzR4/krmtP8Oyag53zu9S4lAiW3jAzoFq/bgVy8/cQFe6dbdpBIj42iknjx9Lc0kKbQyEtzkhogAXFIyPCiQo20GR2YLG0Ex5+da6n0WjkRzfP4XDlSlbuPM60sYVMnjCuzx9o6PV6IkOMONxwruU8cf37d26rr29g65GzZCSEMixtSOfr8QPimJAayxdFNRQWlzBjWt93XW0814zZ7iYhKgSDIbAGUDHRUYToNdQ0W7rMjE5PHcIP52bx+w/38uf3NvG31MGifIUgCIIgCIIgCMJ3RJvDxY7SFob1CyYmXkfNGQc7zrX0vONlLpTESAoPIiPJSOEJM5XWwMf5PvnhvXeze9ceampqvLatW7eenKlTGJt95eU1u8o67iuqqrJ69cc8/vijV/U4XbnxxoUMzxjeZ+Nt2LiRkxUV3HfffR4r6BVFweV0orlKyY1Xyzc+2yO1Fk6eq+gpdoyqQrvdRXSId5BSRWXl7ko0e0/3cDSJ/9ZqSU5K/FZlKidGGIgM1nPwTEdHUpei8kVRNTnpXafTf100Gg39osK7vD/xUSEEB5sCGtPmdPPcuiI0clf3QGL6sBjGZ4/BarXhVjrqQwbajE6r1WLQSthdSrdLE/rC4IEp/OTGa3jq9c08994WXhiUQlxs35bxkCQJo16LqoLDfvF8VFVl294D1JudPHTDcI+6OTqdjlkTRvJFcS1f7Cxies7kPu8ya7PZcSkqYcG+lxB1J8hoQK+RabM6uwwey7LMglnXUnCkkrWHzvLmR+v56d23fG+65QqCIAiCIAiCIHzfBWk1hKsaDm5rZsTAcM5qNVhdgZeYGBBsINolsz2vkRGDI1AVaLZ7l3X0WxfBDoujb8pfmJ3+N/vrDYPBwOOPP8JTT/2717+pVVXlj3/8M6/8/cVu6xH3pKqqit179l7pVHu0ceNm7rrrTqKjo676sS7QarXcetsy7rrzjj4dNzIigiKzmcOHDzN69OjO1/fv349bUUhNTe3T411t32zwWIVbJqbw8J0391jL1myx8Nhzb3P2vK8lDRJPLcpm4pjhPQaFE+L6f6sCxwDBBi0PLJjMU69vxmzr+GFpsjhZf6jmGy8+XXb8BC98thun2/c81h6sZvKWbSyaN9PvYJ5Jr+H5B+fRPzamy/eEBgej1WrRarVIEjjcSsD1bt1uNy5FRUb1u1bylZiRM5k7yip5ZUsZL69cw789uDzgTNyeuN1uuOx8bDYbq7cXkxxpZMo474aC2ZkZpPbbQd7RemrOniUxIaFP56TRyEiAoxe1pZxOF263gkHb/YOBkJAQHlm+kNLqt3h5UwmTxhQzbsyob913WRAEQRAEQRAEQfCUGRPKubNWDtY2A3CwrJn+kUbCYoM43NRzQz0ArSSRFRNGecV5jtjbASipaCEkSMv4geHsbzjfq6KoRo3vOEZDux1V7XGRfI8aLL4T2YK0fZcMNWbMaObOmc0XuRu8ttXV1vGPN97ioZ/8uNfjf/D+R19L/yGn08maNWu55567rtoxJEkiNDSE5JQURo8exfU/mEdsbL8+P05WVhbHjh1jy5Yt1NXXEx0VRXV1NWXl5SQlJpI15rtVjvMbzzzW63RERkb0GNzTaGS03QQnE2KjyBia/p0NJo3OGMq8zCOsLjiDoqioqkpvH3SpCth8ZNo6vwo8Xq6ra9bW1sbLH27gdHPXNYjsLoVX1+1lRNpg0i8pl9AdSYLBKUl+lQ+JCA/DoIEWiwOr1YbR6H92a7vNxnmrk/hwAyZT75+y+Uun0/GjJTew80g1nx04Q3bedubPmdFn47tcLlrbHWg1EqEhF0t4lB4r53BVG6mxJvJ2H0CrOeSxn6IoBOk0tLS72LR9H3ctHdCnWbuRkREE6WTqzrXhdrsDCtS3tplpd0N6qLHHOSUmxPPYkqk8+comnn43l+fj4zxKdwiCIAiCIAiCIAjfHtFBelJ0ekqOepeWqGu2UddsI3twBCcdNpptXWcPp0cGo7S4KTpyzmub2eqi6Mg5MhJCaTUonGn1Xe60KyE63/9+dSoq1WYbiaGBr7C9oM3hos3hO/M4SNe34bgHH3qAffsLaGpq8tr2yaefMXXqFEZmBt6rqrm5mU2bt/TFFP3y2WdrWbZsqd+Z0jfMv577fnSv3+OHhIT0dmoB0Wq1LFu2jD179nDy5EnKysoICw1l2tSpjB079mtJcOxL33jwOBBdLWv/PtBpddy1cDpbj6yiwex/iQWNLCNLEpcGhRWg9lyrx/vcbjfV9U1esWNJAqNB7zWuoiis3ZzPltJ6lEtqHV8INF96L8obrLz+8SZ+vWIAJlNgJSx6EhoaSmJUEDXNVuobGwNq+HaqsooWq4upQ/t3ZgBrNBKKquLyc3mM4lZQVdXvp43R0VE8ungaT726gVfW7SNzWFqf1di2Wm3UNFsIM8hER0UCHU/mcncUYncrVDbbeH5doe/zUFRkGXILyllyQ3uf/mD2j4khOkTP6XPtNDWdC+ipXcWZaix2F2kJ0T0Gj2VZ5trJE7ix8Bjv76nk3c82seKuJVc6fUEQBEEQBEEQBKEPaWWJrOgwjle0UmK3dvvekooWQowaxg8Kp6CxFeWSWEOoXktGiImi8haP1305Xt2GViszMTWcwmYzDrd/mbLhRi06WcLpo8fTm0VV/HJK78sLvH/kbJfZ0FHGvg3HBQcH8+hjD/PrX/2X1zZFUXjmuT/x95f/FvC4n3z8WZdlQO9YfjujMjMDHhPgyy1f+syUbmtrY8OGTSxatMCvcQw6/dcWEA6UTqcjJyeHnJycb3oqV+w7FTz+ujlcbiwW3034JElCr9cHXIe3OxlD07lpwiBezSvzCNh2J9hkIsSgxe66rAbukRqams511oppaTlP/uHTXB491mskInw0kjtVeZqX1x/AbPd8SpYcoUcFj2xkt6qy/lA1E/N2cNP1s/08W//IsszkYYm8tuUYhaXlDE3z74dbURS27j+MosKEjEFoNBpUtaMur9Ot0tTsX1H9hubzqKpKeIj/QfFp10xkaekJXvuyjBf+uZbf//wBv/ftTvXZWk40tJOdHNGZgV3f0MCW4jOkxpj43X03dJmZ7XA4eP69TeyuOEfZiZNkj+7dD7wvUVGRjEyOZt3BKg6VHmO2n8Fjl8tF3oFjaGWJ8Rn+3VeDwcAT9yxhx9G/8HZ+GeMzChnQv29rSwuCIAiCIAiCIAiB02lkUiNMaC2qzyzhrphtHVnFwxNCadOrnG6zkhUTSnWVhYM1zX6P43IpHDzaTFykkeB+pi6zij3mLMukRgZzxEf5jHdKqqky25ifGktKWBDhhu5DaG4VmqwO6iwOtled49OyOp/v6x9sIFTf9+G4yZMmMm3aVPLzt3ltq66q5rXX3iAmJtrv8Ww2G2vXrfO5LTw8nNtvW4Ze752M6I+UlCQ2bd6Cy+Wdmf3hh6uZP//671x27veZ9lxzxxdRo9EQEhyMoiiYzRZsjisoOP498ed1B/nrF0U+t2k0Gn65ZCK3LPpBnx1PkiSWL5pFfmkVR2t9B60vFx4WSmqsiaaTnk+Cjte3c+evX2R6ZjKyLLHjSBVFVW1e+6dEBRHbz7P2sMPh4HevfkxVi2e5Cr1W5onFOSDBv72Zh/WSuhoWh5s/fryb0cPTGDxooH8n7Kfrp43n4z0nWPXlIaZPHutXI7qTpypZvbeCITFBTB7fUUtGkiSGp8SjkcrYX3KCa6dM6vbHyOVyse9YNUE6LYOT/a8TrNFouG/pfI6e+Qfri84ybq3307RA2Ww2VuVux+pQWJiTiVarRVVV8nYVUH3ezhPzR5M9uusawKqqcmtTMzv/vpFPtuwmM2NYnz34kCSJhdOy2Vhcw+vrd5EzcaxfS0z2Fxax9Wg9mfFhjB3j//KZyMgIfnvPXB59cR1/WPUlTyyZeiXTFwRBEARBEARBEPrAM9cN44WtJ/noRHWv9j9e3UayScu8UA07y1qw97LMrt3u5qfp8SzIHODX+8cNCPcZPAbIq2wir9K7FMSVGBlz9TJlf/rTByksPEhbm3f8Z/XqTwIaa926z2lt9R4HYOGiBb0OHANER0czNWcKX+Zt9dpWW1vL9m07uHb6tF6PL/Qt+e5Ntdy9qZafbSinrqGRGJI6+AAAETxJREFUg8UlLPn3v7ByR/n3ukyEP5wKWJ2Kz/9sTjeuq1AwfEBcHLdPz0Sv8a9OQnBwMPPG+a71fKy+nde+PMYrm49SXO39Q6iVJWaNSfEI9LlcLj5cu4HdFee87v/0Yf2YNnkcOROymZbu3eyuttXOn95di9Xa/bKUQKWnDmHRuEGcaLDy13c/w2zuvqB+bX09z72zFrNd4c6ZY4iNuTjXidmjiA3Vs+VwFScqTnU7zt6CQoqrWxgeH0za4IEBzTkyMoKHbr6OKJOOv67dT0OrDamX3yez2czbH61jfWEVY1PCuW7KRCRJoq2tjdz9ZYQYNMyYPLbbet+SJDFhzCiSwg3sPFpLVc3ZXs2lK6NHZjBvdCIHz7Ty6qpPaW9v7/K9qqpSXVPDM6s2IUuwfO44goODu3y/L5PHZ7Ns0hBONVl54/M9uPxckiQIgiAIgiAIgiD0jZYWzxW94UYdv5ybzrv3jmN4XGhAY+lkiclGFVtBOQW5h0k6XUNmcGC9eiQJ5mfG8fEDk1g4aoBH+cn6+vou91s8zL8gc1/5QerVWz0bFRXFgz++/4rHcbvdfPyx72CzTqdj/g1Xnki5ZOniLre9/8GHVzy+0Hfk6qABVAcNoE4Ow+lyYbXZOd1s57y1l93aviEOhxOLxYLZbO72P4vFgtv97T03WZaZlTOR7ORwv96v0WhYOOdaRieG4qtkrEtRcX3VgM/zOBIZ8aHc8oPpHkHHY8dP8NLnhThdnsG4EIOG+2+8jrCwMCIiIrjr+hxCDJ5Zu25FZWNJHbl5O/r0Gms0Gu68eS456dF8WnCG/3l5JRWnKrHZbLjdbhRFwe12Y7VaOVRcwm9fXMXWYw3cPD6ZG2ZN86il269fDLdNHcbZVgfPvbuO8uMVOBwOj3FsNhuFRcU8s2oLbgWWzxpHWJh3aY/uSJLEmMwR3DtzJPVtDkrPmlG7CO66nC6vz+n58+eprasjf+ce/vPPb/K33CKSo4L42R3zOuv5lBwt48jZNsamRJGclNjjnMLDw5g5Komq8w72HiwJ6Hx6YjKZuG/xHEYlhvHq5lL+8o8POX2myuPaulwuLBYL+w4c5BfPr6SszszyqUO59pqJATe61Gq13L14LpmJoeytaMbS2+6SgiAIgiAIgiAIQq888cRTvPX2u16lB4bHhfL2PeP4+ew0TPqeSw8MD9aQeraOkt3l2Owdq+DrG81U7jjKJKeFKF3PQeTkyCBevC2L/7cgg0jTxVW2drud1//xJo8/+fMu9x0aFcz1Q/zv3XMlUsKMzBronYzXl+bMnc24cWOvaIy8vK3U1fkOuM+aOYOoqKgrGh8gPT2NjOHDfG4rKyunuKj4io8h9A2vIiuBBnG+DSQJXlq7h/fzDno1hLtckFHLv92zqM9LK/Sl2Nh+3HP9ZApezvUK4voSERHB0w8v41cvfci+U+dx95ARLUkyWUmh/OreBSQlXizH0NrayksfbKC6xbM7qSzDorFJjB6Z0fla1qgRzM8u4L3dlR6BaYdL4YVPdzNqWGqfXuO42Fh+8+Aynn5jNR/tP8O2I28ycUgM6UmxmIwG2tptlJyqZd/JZtodbpZOHMiTP7zFK6NVkiTuXHwDjectrNx1kuLfv820YQMYEh+DUa/D3G7jWHUD+UfrcblVHl+QxezpvSturtPpWDp/Fvklp9he5nuZi1tReDevmI0Fxy95VcXicNPQZqfR4kIjw+wRcfzklrmkpQ7p2M/tJnfnQWxOlXmTMvwqQSHLMvNyslm18wQb9h3hhplT+7Sw/MCUZJ5+5DZ+9dL7vLHtOLmHKpmY1p/Ur67tuTYLRRW17K9sQVFhxbxR3Lm46zrNPYnr358VN0/niZfW02Txv8mkIAiCIAiCIAiCcOUcDjtvv/UO27ft4NHHHmZExvDObVpZ4o7xScweFssfNpSx+ViD1/6hWolMxUHprvIu+z6VllQTYtIzeVQKe2wyymVBH51GZvmERH4ybTA6jWeQubDwIE8/+xynz5xhwIDus4t/MzWdmjY7B+tb/T39gIXptfx+xnAMmsAyqnvjscce4f77H+z1yvAPP1zd5bYbb17U22l5ufnmmyj97//vc9sHH3xE5qi+69ck9J72GusxAKK1boIM6URFhHHdsH6olwQgDTotYWH+LTmQZZmJaf0JDdKj03VdADwyIoxrh8eSltTfr4C1TqdjXFo8yS1mj0BZSnws16X7X/DboNXAZceLCA9j3ugkrHbvQt1dkWWJQQn9O/8cbDIxZ3QSre2XBLEkGD7Is1Zucnx/FmTFewS5E/qFYTBcrBUjSRJTJmSz4lQ1J2o8i8wnxIT6vF6DBw3ktd+uYOuuvWzZW8qxsy00tNlpd3TcxyCdTFSInrQB4cwZn8G110zAZPJsAnfiVCUGnZaFWZ5ZrCFBen5yxwKP+sAGg4GHly/C6VqN03XZj7wEh0rLSElO8thHlmVGDhqAokJQLwKGcf3784ef3c/igkI++rKA0jNNbC6tw+5SCNJrSAg3Mm9UPDfPmkzmiOEeGceXMplM/OLB5cyYcJCPtuzjQEUDnx+qxulWMOo09A8zMH9MIrdeP42haale44SGhjAtvR/pST0vNQkLC+N3P17K79/4BJNBR0jwxWueEBvD9KH9UBSl46JdIEF4sIERydGkJfZj2oQskhITPK6lxWLB6VZZkJ3AtIn+P1HMzBjO0kmDaW6zUt/Y1Bk8liSJtOT+TDvfTmRE11nWsiwzanAcRr3W5z1MTkrkld+sYOvOvazdcYgDJxtYf6gap0sh1KglIcLA0omDWDI3h7Qhg31+locm9afVYiMyoufs+8njs3mirpHN+48yNO7b2WFVEARBEARBEATh++zkyZM8/tiTzJw5g4ceesBj5W5sqIFnF2ey9XgT//PFUepaO3orZQfLNBSf4nCrrathO5nbHZTsLidzUD/Ox/XjlLUjdjM2OYL/nDeUQTGeSWPnzjXz15deIjfX//5DYXotby4cwxuHzvBOSTWN7X2XoKSTZWYPiuaR8YNJCetd8lSg+veP5Z577+LFv70c8L4FBQc4fvyEz23jxo1l8KBBVzq9TlOn5RD3Why1tbVe23bv2Utl5WlSUpL77HhC70jlx0+o0BEUMup1qKqKzW7n0ioHkgRGg8HvToftViuSJGE0GLoMDLvdbmx2Ozqt1q8i26qqYrc7UFSFIKOxc1yn04k9gOZ+vs5FURQcDidqT2nLl46DhFarQavVeszv8jG0Go1HsNvlcuG8bEmHLMno9Tqva+V0OnFdVv5BlmSPQPPlLsyj3WbH4XJ31oLVyBJ6nQaT0dDlffE1t+7m19U5dxxP9nlf7XYHLreLIKOxy+BuTy58Rs3tNmwOF25VQitDkEFLSFCQz7l2NY7d7qDVYsXudONWQSuDUa8lLDioy89lbz67l34nLpy30+nE4XRyeSlkSeoI5mo1HZ8vX9dJURRsdnuP3zNfbDY7bsXt9T1wOBw4Xa4ev+t2u6Nz/67uoaqqWG02zO12bE4Xiiqh10gEGXQEBxm6vW7+zuOCC78Bep0Ovb5vmgAKgiAIgiAIgiAI3Vu+/G6v0gaRkZHcf/8PmT17ltf7zXYXL+efoDSvlPLyul4dU6ORyZqSzoxrh3HDyDiP3EBVVcndsIHnX/gbra2eGcQDBgzgg1X/9OsYTkWhtNFMaUMbZy12Wh3ugHuChei1hBu0DIsKJjM2jEhj9/9Wzc3dSOmRI16vz5kz2yOjOxCKovDaa29gtlh6fO/IERmd9+yL3A0cOXLU5/vmzp3TZamJ3tq2bTv7Cw743DZxwgSuuWYSBw4cZGt+vtf2rKwxTL9WNNa72qSzNTX/2l3xBEEQBEEQBEEQBEEQhID4Ch5fMHr0KB577GESE73785SfauTpv+dz9HjXTex8kSSJOVPTWHH3NYSHembwnqmq4ulnn+PAgUKf+wYSPBYEwZMIHguCIAiCIAiCIAiCIAgB6S54DKDX61l26y3cdustXn163G6F1bklvPbePtqtPZeISIoL54kHpjF2pGdpULvdzrsrV/HW2+94Ne67lAgeC0LvdV2UWBAEQRAEQRAEQRAEQRB6weFw8PZb77Bly5c8+sgKsrLGdG7TaGSWXp/JdZOH8Pwb28nbXeFzDINey+2LxrD8pix0Ws+yhgcOFPLMc3/k9JkzV/U8BOFfncg8FgRBEARBEARBEARBEALSU+bxpSRJYubMGTz44AOEh3s3ad9RUMmfXttGXaO587WsEfE8ed80khMiPN7bm4Z43WUeO51OGhoakGUN/frF4Ha7sds7sqFNpiAALO3tAMiShF6vR5blzh5YLpcLrVaLy+XC7XZjMBg6X7fb7biVjl5UBr0eu+NilrUsSQQFBaHRaHB/1e/q0v93OBw0Nzej0+mIiYnBbnfgdDo95iVJErIsd/Z0MhoNnePbbPbOP1+YI3T0cbrQg+mCC72UGhsbkSS58zpcep6qqmK1WjGZTKiqisPhwGAw4HA4sNntnWOZgjrmptVqaWxsxOFwEB4ejslk6tz/8jmZzWZUteOhgslk8th2gcPhQKPRoNFoMJvNKF/VoZaQ0Ol0OJwd11av02Mw6GlsbMTpdBIZGYnBYMBiaf9qXhqCgoKwWq0YLunldPn9Ey7S/OzJJ//rm56EIAiCIAiCIAiCIAiC8N2xevUnWPxoxnZBRcVJNm7cTEREOIMHD/Jo/J4cH8HCWRkoisLZ+lYe/1EOK+6eQnjYxdrGFxri/eI/fklpaWlAcw0NDeWWJYu9Xjebzaxc9R5BQUE0tzSzNX8b1TXVNDY0UlNTQ17+NiwWMyWHS2hobKKxsZGS0lL2Fxxg5IgMZFlm48ZNpKYOYcfOXWzJyyMtNQ2DQc+GjRvZsXMXFks71dU1yJLE4dIjrFmzDkVRaG+3cLComPS0VLZuzed4xUmGDB7M9h07aDOb2bV7Dxqthvr6BgoKCjhUXIy5ra1jXlvzaW9vR6/Toaoq/1y5isSkREJDQgBob2/n6WeeZdiwYYSEBLNh40ZSU1MBqKqu5vDhEk6fqeqciyTBmnXrCTIaaWlpIS9/GzU1NZSfOM7Q9HQAdu7aTX7+NrLGjGHnrt1s2rKFsdlZVFVVUVR8uHOskGATu3bv5lDxYex2O+1WK4cOFWGzWfnnyveIioqkX79+ndcN4NXX38DpcHDq9GkOHTrE6TNVpH013wv+ueo96usbGDJkMPv2F1BUXExBwQHare0UFh7gXHML1dU1oKps+TIPp9NFu9XK/oIDuF0u1n/+OQ67nYqKkxw9doyiomKam1sYmJICwPrPv6C8/DjDhg4N6LP1r0CUrRAEQRAEQRAEQRAEQRCuuubmZv73f58lN3cjjz66gqSkpM5tRoOWH98xiftum4Dmq2zQC05UVPDMs89RfLikT+dTW1/PtKk5nYHVhsZGNLKGoUM7AqaqqmK2WJA1GrSyjMFoRG/RcePChXz22RpuuulGj/FuWbKYT9es4fZblwF0ZO5+dS4RERHMTk3FZrMye+YMANasXQuAxWpF/1WmbWubGbvDyU2LFnZm3+bmbkBF7ZxXu82GzWYjb2s+sixz9113otFcLOvx5dZ8fvbkE2zavIWFC+Z7nXdMTAwjRmR0zuX0mTNMmjCejIwMAFpaWlBRGTxoMOUnTjB44EDa2loZMCAOgPq6OmZcN52i4mJGZWaSkpLicV6HiooIMZmYcs3kjgOOHcsnn3xKTs4Ujh49SkJ8vOd8oqM7z23Xnr1e8608fZrMESM4XlGBoihMuWYydXX11NTUkJU1hvff/6DzOuv1esLDwjqPPWbUKNZ/kUtCYgJDh6ajqip79u4lKjISp8uJzWajpeU8CfHx1NcH1sTxX8X/AYgvirngDMJyAAAAAElFTkSuQmCC;" vertex="1" parent="1">
          <mxGeometry x="630" y="-3544" width="1423" height="703" as="geometry" />
        </mxCell>
        <mxCell id="dkhloUsF44E33A5MY1pY-44" value="" style="group;fillColor=#d5e8d4;strokeColor=#82b366;" vertex="1" connectable="0" parent="1">
          <mxGeometry x="170" y="-3354.37" width="240" height="60" as="geometry" />
        </mxCell>
        <mxCell id="dkhloUsF44E33A5MY1pY-40" value="NSMF" style="rounded=0;whiteSpace=wrap;html=1;fillColor=#d5e8d4;strokeColor=#82b366;" vertex="1" parent="dkhloUsF44E33A5MY1pY-44">
          <mxGeometry width="240" height="60" as="geometry" />
        </mxCell>
        <mxCell id="dkhloUsF44E33A5MY1pY-43" value="temp" style="shape=datastore;whiteSpace=wrap;html=1;fontSize=12;fillColor=default;" vertex="1" parent="dkhloUsF44E33A5MY1pY-44">
          <mxGeometry x="20" y="10" width="70" height="40" as="geometry" />
        </mxCell>
        <mxCell id="dkhloUsF44E33A5MY1pY-46" value="Deploy Kub Service" style="rounded=0;whiteSpace=wrap;html=1;fontSize=12;fillColor=default;" vertex="1" parent="1">
          <mxGeometry x="417.5" y="-3114.06" width="115" height="60" as="geometry" />
        </mxCell>
        <mxCell id="dkhloUsF44E33A5MY1pY-47" value="" style="rounded=0;whiteSpace=wrap;html=1;fontSize=12;fillColor=default;" vertex="1" parent="1">
          <mxGeometry x="417.5" y="-3184.06" width="115" height="60" as="geometry" />
        </mxCell>
        <mxCell id="dkhloUsF44E33A5MY1pY-48" value="Build file" style="rounded=0;whiteSpace=wrap;html=1;fontSize=12;fillColor=default;" vertex="1" parent="1">
          <mxGeometry x="437.5" y="-3177.81" width="75" height="20" as="geometry" />
        </mxCell>
        <mxCell id="dkhloUsF44E33A5MY1pY-49" value="Create PV" style="rounded=0;whiteSpace=wrap;html=1;fontSize=12;fillColor=default;" vertex="1" parent="1">
          <mxGeometry x="437.5" y="-3150.31" width="75" height="20" as="geometry" />
        </mxCell>
        <mxCell id="dkhloUsF44E33A5MY1pY-51" value="NSSMF - CN" style="text;html=1;align=center;verticalAlign=middle;resizable=0;points=[];autosize=1;strokeColor=none;fillColor=none;" vertex="1" parent="1">
          <mxGeometry x="400" y="-3221.56" width="90" height="20" as="geometry" />
        </mxCell>
        <mxCell id="dkhloUsF44E33A5MY1pY-52" value="" style="rounded=0;whiteSpace=wrap;html=1;" vertex="1" parent="1">
          <mxGeometry x="215" y="-3224.06" width="150" height="187.5" as="geometry" />
        </mxCell>
        <mxCell id="dkhloUsF44E33A5MY1pY-57" value="NSSMF - TN" style="text;html=1;align=center;verticalAlign=middle;resizable=0;points=[];autosize=1;strokeColor=none;fillColor=none;" vertex="1" parent="1">
          <mxGeometry x="220" y="-3221.56" width="80" height="20" as="geometry" />
        </mxCell>
        <mxCell id="dkhloUsF44E33A5MY1pY-58" value="" style="rounded=0;whiteSpace=wrap;html=1;" vertex="1" parent="1">
          <mxGeometry x="30" y="-3224.06" width="150" height="187.5" as="geometry" />
        </mxCell>
        <mxCell id="dkhloUsF44E33A5MY1pY-63" value="NSSMF - AN" style="text;html=1;align=center;verticalAlign=middle;resizable=0;points=[];autosize=1;strokeColor=none;fillColor=none;" vertex="1" parent="1">
          <mxGeometry x="35" y="-3221.56" width="80" height="20" as="geometry" />
        </mxCell>
        <mxCell id="dkhloUsF44E33A5MY1pY-69" style="edgeStyle=orthogonalEdgeStyle;rounded=0;orthogonalLoop=1;jettySize=auto;html=1;exitX=0.5;exitY=1;exitDx=0;exitDy=0;" edge="1" parent="1" source="dkhloUsF44E33A5MY1pY-40" target="dkhloUsF44E33A5MY1pY-50">
          <mxGeometry relative="1" as="geometry" />
        </mxCell>
        <mxCell id="dkhloUsF44E33A5MY1pY-70" style="edgeStyle=orthogonalEdgeStyle;rounded=0;orthogonalLoop=1;jettySize=auto;html=1;exitX=0.5;exitY=1;exitDx=0;exitDy=0;" edge="1" parent="1" source="dkhloUsF44E33A5MY1pY-40" target="dkhloUsF44E33A5MY1pY-52">
          <mxGeometry relative="1" as="geometry" />
        </mxCell>
        <mxCell id="dkhloUsF44E33A5MY1pY-71" style="edgeStyle=orthogonalEdgeStyle;rounded=0;orthogonalLoop=1;jettySize=auto;html=1;exitX=0.5;exitY=1;exitDx=0;exitDy=0;" edge="1" parent="1" source="dkhloUsF44E33A5MY1pY-40" target="dkhloUsF44E33A5MY1pY-58">
          <mxGeometry relative="1" as="geometry" />
        </mxCell>
      </root>
    </mxGraphModel>
  </diagram>
</mxfile>
